<?xml version="1.0" encoding="UTF-8"?><svg id="Calque_1" xmlns="http://www.w3.org/2000/svg" viewBox="0 0 400 350"><defs><style>.cls-1{fill:#fff;stroke-width:0px;}</style></defs><path class="cls-1" d="m346.66,1.75H53.34C25.04,1.75,2,24.79,2,53.09v243.86c0,28.3,23.04,51.34,51.34,51.34h293.32c28.3,0,51.34-23.04,51.34-51.34V53.09c0-28.3-23.04-51.34-51.34-51.34Zm0,30.83c11.32,0,20.51,9.19,20.51,20.51v53.89h-90.9v-.24h-1.18c-4.03-29.65-19.12-55.51-39.05-74.16h110.62Zm-70.39,105.23h90.9v74.42h-90.9v-74.42ZM53.34,32.58h112.84c35.91,0,79.26,40.06,79.26,89.82s-43.35,89.84-79.26,89.84H32.83V53.09c0-11.32,9.19-20.51,20.51-20.51Zm-20.51,264.37v-53.89h133.35c27.59,0,57.55-15.57,79.26-40.58v114.98H53.34c-11.32,0-20.51-9.19-20.51-20.51Zm313.83,20.51h-70.39v-74.4h90.9v53.89c0,11.32-9.19,20.51-20.51,20.51Z"/></svg>