<?xml version="1.0" encoding="UTF-8"?><svg id="Calque_1" xmlns="http://www.w3.org/2000/svg" viewBox="0 0 800 150"><defs><style>.cls-1{fill:#fff;stroke-width:0px;}</style></defs><path class="cls-1" d="m246.23,47.55c0,24.34-13.57,32.75-39.13,32.79h-13.68v37.95h-22.34V14.7h36.02c25.46,0,39.13,8.5,39.13,32.85Zm-22.58.09c0-12.09-4.91-15.25-18.64-15.25h-11.57v30.22h11.57c13.83-.01,18.64-3.08,18.64-14.97Z"/><path class="cls-1" d="m325.61,65.15v53.15h-19.25l-.55-6.44c-8.86,5.25-16.97,8.21-25.89,8.21-12.72,0-23.81-5.92-23.81-25.21,0-20.6,12.56-25.12,31.56-25.51,6.92-.09,9.87-.05,17.55-.03v-3.66c-.04-8.46-5.22-10.33-13.83-10.33-8.11,0-19.05,1.43-28.64,3.24v-17.23c9.62-1.78,19.64-3.27,28.89-3.27,18.34,0,33.96,5.78,33.96,27.06Zm-38.38,38.18c5.77,0,11.3-1.73,18-5.17v-15.79h-15.06c-9.73.03-13.3,1.75-13.29,10.33,0,8.14,3.32,10.63,10.35,10.63Z"/><path class="cls-1" d="m414.34,39.86l-33.13,91.32c-3.66,10.1-12.38,16.27-23.16,16.27h-10.19v-15.78h6.33c5.41,0,9.12-3.16,10.63-7.79l3.37-10.03-33.18-74h21.71l20.4,47.42,15.93-47.42h21.28Z"/><path class="cls-1" d="m450.73,33.39v24.2h38.68v18.7h-38.68s0,42.01,0,42.01h-22.34V14.7h63.39v18.7h-41.05Z"/><path class="cls-1" d="m571.38,65.15v53.15h-19.25l-.55-6.44c-8.86,5.25-16.97,8.21-25.89,8.21-12.72,0-23.8-5.92-23.8-25.21,0-20.6,12.56-25.12,31.55-25.51,6.92-.09,9.88-.05,17.55-.03v-3.66c-.04-8.46-5.22-10.33-13.83-10.33-8.11,0-19.04,1.43-28.64,3.24v-17.23c9.62-1.78,19.64-3.27,28.89-3.27,18.34,0,33.96,5.78,33.96,27.06Zm-38.37,38.18c5.77,0,11.29-1.73,17.99-5.17v-15.79h-15.06c-9.72.03-13.29,1.75-13.29,10.33,0,8.14,3.32,10.63,10.36,10.63Z"/><path class="cls-1" d="m649.12,40.83l.07,17.51c-7.35-1.65-13.94-2.56-20.11-2.56-15.72,0-20.34,6.34-20.34,23.31s4.56,23.31,20.34,23.31c6.16,0,12.73-.92,20.36-2.64l.07,17.5c-7.57,1.65-15.42,2.82-23.25,2.82-28.87,0-38.45-15.05-38.45-40.99s9.65-40.99,38.25-40.99c7.18,0,14.54,1.05,23.06,2.73Z"/><path class="cls-1" d="m707.86,103v16.44c-3.81.37-7.85.64-11.07.64-14.23,0-24.46-4.93-24.46-20.58v-44.14h-11.49v-15.49h11.49v-18.51h20.41v18.52h15.11v15.48h-15.11s0,39.3,0,39.3c0,5.77,2.65,8.64,9.44,8.66,1.91,0,3.27-.16,5.69-.3Z"/><path class="cls-1" d="m798,79.09c0,26.04-9.16,40.99-38.18,40.99s-38.17-14.96-38.17-40.99,9.16-40.99,38.17-40.99,38.18,14.96,38.18,40.99Zm-55.48,0c0,16.72,3.96,23.23,17.3,23.23s17.3-6.51,17.3-23.23-3.96-23.31-17.3-23.31-17.3,6.52-17.3,23.31Z"/><path class="cls-1" d="m126.06,2.55H20.48C10.29,2.55,2,10.84,2,21.03v87.78c0,10.19,8.29,18.48,18.48,18.48h105.58c10.19,0,18.48-8.29,18.48-18.48V21.03c0-10.19-8.29-18.48-18.48-18.48Zm0,11.1c4.07,0,7.38,3.31,7.38,7.38v19.4h-32.72v-.09h-.42c-1.45-10.67-6.88-19.98-14.06-26.7h39.82Zm-25.34,37.88h32.72v26.79h-32.72v-26.79ZM20.48,13.65h40.62c12.93,0,28.53,14.42,28.53,32.33s-15.61,32.34-28.53,32.34H13.1V21.03c0-4.07,3.31-7.38,7.38-7.38Zm-7.38,95.16v-19.4h48c9.93,0,20.71-5.6,28.53-14.61v41.39H20.48c-4.07,0-7.38-3.31-7.38-7.38Zm112.97,7.38h-25.34v-26.78h32.72v19.4c0,4.07-3.31,7.38-7.38,7.38Z"/></svg>