<?xml version="1.0" encoding="UTF-8"?><svg id="Calque_1" xmlns="http://www.w3.org/2000/svg" viewBox="0 0 48 48"><defs><style>.cls-1{fill:#bc955b;}.cls-1,.cls-2{stroke-width:0px;}</style></defs><path class="cls-2" d="m22.99,30.06c-1.44,0-2.76-.61-3.55-1.64-.24-.31-.18-.76.13-1,.31-.24.76-.18,1,.13.52.68,1.42,1.08,2.42,1.08,1.55,0,2.82-.99,2.82-2.22,0-1.11-1.11-2.06-2.58-2.21-2.02-.15-3.56-1.59-3.56-3.35,0-1.86,1.76-3.37,3.92-3.37,1.3,0,2.51.55,3.24,1.48.24.31.19.75-.12,1-.31.24-.75.19-1-.12-.46-.59-1.26-.94-2.13-.94-1.38,0-2.5.87-2.5,1.95,0,1,1,1.85,2.27,1.94,2.26.22,3.88,1.75,3.88,3.62,0,2-1.9,3.64-4.24,3.64Z"/><path class="cls-2" d="m23.26,32.25c-.39,0-.71-.32-.71-.71v-2.07c0-.39.32-.71.71-.71s.71.32.71.71v2.07c0,.39-.32.71-.71.71Z"/><path class="cls-2" d="m23.26,18.73c-.39,0-.71-.32-.71-.71v-2.16c0-.39.32-.71.71-.71s.71.32.71.71v2.16c0,.39-.32.71-.71.71Z"/><path class="cls-1" d="m23.26,35.64c-6.58,0-11.93-5.35-11.93-11.94s5.35-11.93,11.93-11.93,11.93,5.35,11.93,11.93-5.35,11.94-11.93,11.94Zm0-22.45c-5.8,0-10.51,4.72-10.51,10.51s4.72,10.52,10.51,10.52,10.51-4.72,10.51-10.52-4.72-10.51-10.51-10.51Z"/><path class="cls-2" d="m42.58,36.23c-.12,0-.24-.03-.34-.09-.19-.1-.32-.29-.36-.5l-.81-4.81c-.06-.39.2-.75.58-.82.38-.07.75.2.82.58l.66,3.92,3.88-1.65c.36-.16.78.01.93.38s-.01.78-.38.93l-4.71,2c-.09.04-.18.06-.28.06Z"/><path class="cls-2" d="m42.58,36.23c-.13,0-.26-.03-.37-.11-.33-.21-.44-.64-.23-.98,2.87-4.65,3.83-10.16,2.7-15.51-.06-.27-.12-.54-.18-.8-.1-.38.14-.77.52-.86.37-.1.77.13.86.52.07.28.14.57.2.85,1.2,5.71.18,11.58-2.88,16.55-.13.22-.37.34-.61.34Z"/><path class="cls-2" d="m14.48,48c-.28,0-.54-.16-.65-.43l-2-4.71c-.08-.2-.07-.43.03-.62.1-.19.29-.32.5-.36l4.81-.81c.38-.06.75.2.82.58.06.39-.2.75-.58.82l-3.92.66,1.65,3.88c.15.36-.01.78-.38.93-.09.04-.18.06-.28.06Z"/><path class="cls-2" d="m23.95,46.55c-4.15,0-8.24-1.15-11.85-3.37-.33-.21-.44-.64-.23-.98.21-.33.64-.44.98-.23,4.65,2.87,10.16,3.83,15.51,2.7.39-.08.76.17.84.55.08.38-.16.76-.55.84-1.56.33-3.14.49-4.7.49Z"/><path class="cls-2" d="m6.23,18c-.34,0-.64-.25-.7-.59l-.66-3.92-3.88,1.65c-.36.16-.78-.01-.93-.38-.15-.36.01-.78.38-.93l4.71-2c.2-.09.43-.07.62.03s.32.29.36.5l.81,4.81c.06.39-.2.75-.58.82-.04,0-.08,0-.12,0Z"/><path class="cls-2" d="m2.7,29.54c-.32,0-.62-.22-.69-.55l-.07-.34c-1.2-5.71-.18-11.58,2.88-16.55.21-.33.64-.44.98-.23.33.21.44.64.23.98-2.87,4.65-3.83,10.16-2.7,15.51l.07.32c.09.38-.15.76-.54.85-.05.01-.11.02-.16.02Z"/><path class="cls-2" d="m30.71,6.94c-.34,0-.64-.25-.7-.59-.06-.39.2-.75.58-.82l3.92-.66-1.65-3.88c-.15-.36.01-.78.38-.93.36-.16.78.01.93.38l2,4.71c.08.2.07.43-.03.62-.1.19-.29.32-.5.36l-4.81.81s-.08,0-.12,0Z"/><path class="cls-2" d="m35.52,6.13c-.13,0-.26-.03-.37-.11-4.65-2.87-10.16-3.83-15.51-2.7-.52.11-1.03.24-1.53.38-.38.11-.77-.11-.88-.48s.11-.77.48-.88c.54-.16,1.08-.29,1.63-.41,5.71-1.2,11.58-.18,16.55,2.88.33.21.44.64.23.98-.13.22-.37.34-.61.34Z"/><path class="cls-1" d="m10.97,12.37c-2.99,0-5.42-2.43-5.42-5.42S7.98,1.53,10.97,1.53s5.42,2.43,5.42,5.42-2.43,5.42-5.42,5.42Zm0-9.42c-2.2,0-4,1.79-4,4s1.79,4,4,4,4-1.79,4-4-1.79-4-4-4Z"/><path class="cls-1" d="m39.82,16.56c-2.99,0-5.42-2.43-5.42-5.42s2.43-5.42,5.42-5.42,5.42,2.43,5.42,5.42-2.43,5.42-5.42,5.42Zm0-9.42c-2.2,0-4,1.79-4,4s1.79,4,4,4,4-1.79,4-4-1.79-4-4-4Z"/><path class="cls-1" d="m35.63,45.41c-2.99,0-5.42-2.43-5.42-5.42s2.43-5.42,5.42-5.42,5.42,2.43,5.42,5.42-2.43,5.42-5.42,5.42Zm0-9.42c-2.2,0-4,1.79-4,4s1.79,4,4,4,4-1.79,4-4-1.79-4-4-4Z"/><path class="cls-1" d="m4.22,40.46c-.13,0-.27-.04-.39-.12-1.54-1-2.46-2.7-2.46-4.54,0-2.99,2.43-5.42,5.42-5.42.56,0,1.11.08,1.64.25.37.12.58.52.46.89-.12.37-.52.58-.89.46-.39-.12-.79-.19-1.21-.19-2.2,0-4,1.79-4,4,0,1.36.68,2.61,1.82,3.35.33.21.42.65.21.98-.14.21-.36.32-.6.32Z"/><path class="cls-2" d="m7.37,39.24c-.39,0-.82-.57-3.13-3.7-.23-.32-.17-.76.15-.99s.76-.17.99.15c.72.98,1.52,2.04,2.02,2.68.69-.84,2.08-2.43,4.87-5.56.26-.29.71-.32,1-.06.29.26.32.71.06,1-1.87,2.1-4.91,5.56-5.27,6.06-.08.17-.23.3-.41.36-.11.04-.19.06-.28.06Z"/></svg>