<?xml version="1.0" encoding="UTF-8"?><svg id="Calque_1" xmlns="http://www.w3.org/2000/svg" viewBox="0 0 48 48"><defs><style>.cls-1{fill:#bc955b;}.cls-1,.cls-2{stroke-width:0px;}</style></defs><path class="cls-2" d="m31.43,38.31H9.01c-.39,0-.71-.32-.71-.71s.32-.71.71-.71h22.3v-14.73H7.26v5.42c0,.39-.32.71-.71.71s-.71-.32-.71-.71v-5.55c0-.72.58-1.3,1.3-1.3h24.29c.72,0,1.3.58,1.3,1.3v14.97c0,.72-.58,1.3-1.3,1.3Z"/><path class="cls-2" d="m29.22,30.53h-4.82c-.39,0-.71-.32-.71-.71v-2.99c0-.39.32-.71.71-.71h4.82c.39,0,.71.32.71.71v2.99c0,.39-.32.71-.71.71Zm-4.11-1.42h3.4v-1.57h-3.4v1.57Z"/><path class="cls-2" d="m15.66,34.2h-1.69c-.39,0-.71-.32-.71-.71s.32-.71.71-.71h1.69c.39,0,.71.32.71.71s-.32.71-.71.71Z"/><path class="cls-2" d="m25.03,34.2h-5.63c-.39,0-.71-.32-.71-.71s.32-.71.71-.71h5.63c.39,0,.71.32.71.71s-.32.71-.71.71Z"/><path class="cls-2" d="m28.6,34.2h-1.69c-.39,0-.71-.32-.71-.71s.32-.71.71-.71h1.69c.39,0,.71.32.71.71s-.32.71-.71.71Z"/><path class="cls-2" d="m44.89,25.95c-.39,0-.71-.32-.71-.71V1.49s-.03-.07-.07-.07H10.15s-.07.03-.07.07v15.56c0,.39-.32.71-.71.71s-.71-.32-.71-.71V1.49c0-.82.67-1.49,1.49-1.49h33.95c.82,0,1.49.67,1.49,1.49v23.75c0,.39-.32.71-.71.71Z"/><path class="cls-2" d="m41.2,21.52c-.39,0-.71-.32-.71-.71V4.72H13.77v12.23c0,.39-.32.71-.71.71s-.71-.32-.71-.71V4.63c0-.73.6-1.33,1.33-1.33h26.9c.73,0,1.33.6,1.33,1.33v16.18c0,.39-.32.71-.71.71Z"/><path class="cls-2" d="m43.56,31.88h-8.29c-.39,0-.71-.32-.71-.71s.32-.71.71-.71h8.29c1.67,0,3.02-1.36,3.02-3.02v-1.16h-10.88c-.39,0-.71-.32-.71-.71s.32-.71.71-.71h11.59c.39,0,.71.32.71.71v1.87c0,2.45-1.99,4.44-4.44,4.44Z"/><path class="cls-1" d="m24.48,15.67c-1,0-1.87-.65-2.05-1.57l-1.12-5.68c-.04-.22.02-.44.16-.61.15-.17.36-.25.58-.24l12.59.85c.2.01.39.11.52.28.12.16.17.37.13.57l-.83,4.21c-.17.85-.94,1.49-1.88,1.57l-7.92.62c-.06,0-.12,0-.18,0Zm-1.6-6.62l.94,4.77c.05.26.38.46.73.43l7.92-.62c.3-.02.55-.2.59-.43l.68-3.42-10.86-.73Z"/><path class="cls-1" d="m31.33,18.18h0l-7.73-.08c-.46,0-.89-.21-1.18-.56-.29-.35-.42-.81-.34-1.26l.05-.31c.07-.39.44-.65.82-.58.39.07.65.43.58.82l-.05.31c0,.05.01.09.03.11s.05.05.1.05l7.73.08c.39,0,.71.33.7.72,0,.39-.32.7-.71.7Z"/><path class="cls-1" d="m21.23,7.28h-1.56c-.39,0-.71-.32-.71-.71s.32-.71.71-.71h1.56c.39,0,.71.32.71.71s-.32.71-.71.71Z"/><path class="cls-1" d="m24.56,19.41c-.39,0-.71-.32-.71-.71v-1.23c0-.39.32-.71.71-.71s.71.32.71.71v1.23c0,.39-.32.71-.71.71Z"/><path class="cls-1" d="m29.86,19.41c-.39,0-.71-.32-.71-.71v-1.23c0-.39.32-.71.71-.71s.71.32.71.71v1.23c0,.39-.32.71-.71.71Z"/><path class="cls-1" d="m.71,48c-.39,0-.71-.32-.71-.71v-17.34c0-2.02,1.01-3.88,2.7-4.98l1.45-.94c.33-.21.77-.12.98.21.21.33.12.77-.21.98l-1.45.94c-1.29.84-2.05,2.26-2.05,3.79v17.34c0,.39-.32.71-.71.71Z"/><path class="cls-1" d="m10.19,41.6c-.37,0-.68-.29-.71-.66l-.04-.67c-.09-1.33-.94-2.5-2.18-2.99-.22-.08-.38-.27-.43-.49-.06-.22,0-.46.15-.64l4.69-5.37c.53-.6.47-1.53-.12-2.07-.56-.5-1.41-.51-1.97,0l-6.51,5.77c-.29.26-.74.23-1-.06-.26-.29-.23-.74.06-1l6.51-5.77c1.1-.98,2.76-.97,3.86.02,1.17,1.05,1.28,2.87.24,4.06l-4.09,4.69c1.27.83,2.11,2.22,2.21,3.77l.04.67c.03.39-.27.73-.66.75-.02,0-.03,0-.05,0Z"/><path class="cls-1" d="m8.22,45.18h-.55c-.39,0-.71-.32-.71-.71s.32-.71.71-.71h.55c1.89,0,3.56-1.27,4.05-3.1.1-.38.5-.6.87-.5.38.1.6.49.5.87-.66,2.44-2.89,4.14-5.42,4.14Z"/><path class="cls-1" d="m11.19,48c-.39,0-.71-.32-.71-.71v-3.81c0-.39.32-.71.71-.71s.71.32.71.71v3.81c0,.39-.32.71-.71.71Z"/></svg>