<?xml version="1.0" encoding="UTF-8"?><svg id="Calque_1" xmlns="http://www.w3.org/2000/svg" viewBox="0 0 48 48"><defs><style>.cls-1{fill:#bc955b;}.cls-1,.cls-2{stroke-width:0px;}</style></defs><path class="cls-2" d="m42.51,48H5.49c-2.58,0-4.68-2.1-4.68-4.68s2.1-4.68,4.68-4.68h37.03c2.58,0,4.68,2.1,4.68,4.68s-2.1,4.68-4.68,4.68Zm-37.03-7.94c-1.8,0-3.26,1.46-3.26,3.26s1.46,3.26,3.26,3.26h37.03c1.8,0,3.26-1.46,3.26-3.26s-1.46-3.26-3.26-3.26H5.49Z"/><path class="cls-2" d="m4.84,37.87s-.05,0-.07,0c-.39-.04-.67-.39-.64-.78l2.25-22.48c.04-.39.39-.67.78-.64.39.04.67.39.64.78l-2.25,22.48c-.04.37-.35.64-.71.64Z"/><path class="cls-2" d="m43.16,37.87c-.36,0-.67-.27-.71-.64l-2.18-21.84h-20.01c-.39,0-.71-.32-.71-.71s.32-.71.71-.71h20.65c.36,0,.67.28.71.64l2.25,22.48c.04.39-.25.74-.64.78-.02,0-.05,0-.07,0Z"/><path class="cls-1" d="m17.2,28.62c-.39,0-.71-.32-.71-.71V10.68h-5.16v17.23c0,.39-.32.71-.71.71s-.71-.32-.71-.71V9.97c0-.39.32-.71.71-.71h6.58c.39,0,.71.32.71.71v17.94c0,.39-.32.71-.71.71Z"/><path class="cls-1" d="m19.2,28.62h-10.57c-.39,0-.71-.32-.71-.71s.32-.71.71-.71h10.57c.39,0,.71.32.71.71s-.32.71-.71.71Z"/><path class="cls-2" d="m29.94,15.39c-.39,0-.71-.32-.71-.71v-3.64c0-.39.32-.71.71-.71s.71.32.71.71v3.64c0,.39-.32.71-.71.71Z"/><path class="cls-2" d="m36.36,15.39c-.39,0-.71-.32-.71-.71v-3.64c0-.39.32-.71.71-.71s.71.32.71.71v3.64c0,.39-.32.71-.71.71Z"/><path class="cls-1" d="m44.36,9.36h-21.69c-.39,0-.71-.32-.71-.71V.71c0-.39.32-.71.71-.71h21.69c.39,0,.71.32.71.71v7.94c0,.39-.32.71-.71.71Zm-20.98-1.42h20.27V1.42h-20.27v6.52Z"/><path class="cls-2" d="m37.95,23.34h-11.67c-.39,0-.71-.32-.71-.71v-4.75c0-.39.32-.71.71-.71h11.67c.39,0,.71.32.71.71v4.75c0,.39-.32.71-.71.71Zm-10.96-1.42h10.25v-3.33h-10.25v3.33Z"/><path class="cls-1" d="m36.51,44.03H11.49c-.39,0-.71-.32-.71-.71s.32-.71.71-.71h25.03c.39,0,.71.32.71.71s-.32.71-.71.71Z"/><path class="cls-2" d="m27.68,26.85h-1.91c-.39,0-.71-.32-.71-.71s.32-.71.71-.71h1.91c.39,0,.71.32.71.71s-.32.71-.71.71Z"/><path class="cls-2" d="m33.08,26.85h-1.91c-.39,0-.71-.32-.71-.71s.32-.71.71-.71h1.91c.39,0,.71.32.71.71s-.32.71-.71.71Z"/><path class="cls-2" d="m38.47,26.85h-1.91c-.39,0-.71-.32-.71-.71s.32-.71.71-.71h1.91c.39,0,.71.32.71.71s-.32.71-.71.71Z"/><path class="cls-2" d="m27.68,31.52h-1.91c-.39,0-.71-.32-.71-.71s.32-.71.71-.71h1.91c.39,0,.71.32.71.71s-.32.71-.71.71Z"/><path class="cls-2" d="m33.08,31.52h-1.91c-.39,0-.71-.32-.71-.71s.32-.71.71-.71h1.91c.39,0,.71.32.71.71s-.32.71-.71.71Z"/><path class="cls-2" d="m38.47,31.52h-1.91c-.39,0-.71-.32-.71-.71s.32-.71.71-.71h1.91c.39,0,.71.32.71.71s-.32.71-.71.71Z"/><path class="cls-2" d="m27.68,36.19h-1.91c-.39,0-.71-.32-.71-.71s.32-.71.71-.71h1.91c.39,0,.71.32.71.71s-.32.71-.71.71Z"/><path class="cls-2" d="m33.08,36.19h-1.91c-.39,0-.71-.32-.71-.71s.32-.71.71-.71h1.91c.39,0,.71.32.71.71s-.32.71-.71.71Z"/><path class="cls-2" d="m38.47,36.19h-1.91c-.39,0-.71-.32-.71-.71s.32-.71.71-.71h1.91c.39,0,.71.32.71.71s-.32.71-.71.71Z"/></svg>