<?xml version="1.0" encoding="UTF-8"?><svg id="Calque_1" xmlns="http://www.w3.org/2000/svg" viewBox="0 0 48 48"><defs><style>.cls-1{fill:#bc955b;}.cls-1,.cls-2{stroke-width:0px;}</style></defs><path class="cls-1" d="m41.71,12.58H6.29c-3.47,0-6.29-2.82-6.29-6.29S2.82,0,6.29,0h35.42c3.47,0,6.29,2.82,6.29,6.29s-2.82,6.29-6.29,6.29ZM6.29,1.42C3.6,1.42,1.42,3.6,1.42,6.29s2.18,4.87,4.87,4.87h35.42c2.68,0,4.87-2.18,4.87-4.87s-2.18-4.87-4.87-4.87H6.29Z"/><path class="cls-2" d="m11.11,7h-4.82c-.39,0-.71-.32-.71-.71s.32-.71.71-.71h4.82c.39,0,.71.32.71.71s-.32.71-.71.71Z"/><path class="cls-1" d="m41.71,29.42H6.29c-3.47,0-6.29-2.82-6.29-6.29s2.82-6.29,6.29-6.29h35.42c3.47,0,6.29,2.82,6.29,6.29s-2.82,6.29-6.29,6.29ZM6.29,18.27c-2.68,0-4.87,2.18-4.87,4.87s2.18,4.87,4.87,4.87h35.42c2.68,0,4.87-2.18,4.87-4.87s-2.18-4.87-4.87-4.87H6.29Z"/><path class="cls-2" d="m11.11,23.84h-4.82c-.39,0-.71-.32-.71-.71s.32-.71.71-.71h4.82c.39,0,.71.32.71.71s-.32.71-.71.71Z"/><path class="cls-2" d="m17,44.23H.71c-.39,0-.71-.32-.71-.71s.32-.71.71-.71h16.29c.39,0,.71.32.71.71s-.32.71-.71.71Z"/><path class="cls-2" d="m24,48c-2.3,0-4.16-1.87-4.16-4.16s1.87-4.16,4.16-4.16c.39,0,.71.32.71.71s-.32.71-.71.71c-1.51,0-2.74,1.23-2.74,2.74s1.23,2.74,2.74,2.74,2.74-1.23,2.74-2.74c0-.39.32-.71.71-.71s.71.32.71.71c0,2.3-1.87,4.16-4.16,4.16Z"/><path class="cls-2" d="m24,41.09c-.39,0-.71-.32-.71-.71v-8.82c0-.39.32-.71.71-.71s.71.32.71.71v8.82c0,.39-.32.71-.71.71Z"/><path class="cls-2" d="m47.29,44.23h-16.29c-.39,0-.71-.32-.71-.71s.32-.71.71-.71h16.29c.39,0,.71.32.71.71s-.32.71-.71.71Z"/></svg>