<?xml version="1.0" encoding="UTF-8"?><svg id="Calque_1" xmlns="http://www.w3.org/2000/svg" viewBox="0 0 48 48"><defs><style>.cls-1{fill:#bc955b;}.cls-1,.cls-2{stroke-width:0px;}</style></defs><path class="cls-2" d="m6.53,9.54h-2.46c-1.32,0-2.39-1.07-2.39-2.39s1.07-2.39,2.39-2.39h8.39c.39,0,.71.32.71.71s-.32.71-.71.71H4.07c-.53,0-.97.43-.97.97s.43.97.97.97h2.46c.39,0,.71.32.71.71s-.32.71-.71.71Z"/><path class="cls-2" d="m12.47,12.89H2.39c-1.32,0-2.39-1.07-2.39-2.39s1.07-2.39,2.39-2.39h10.08c.39,0,.71.32.71.71s-.32.71-.71.71H2.39c-.53,0-.97.43-.97.97s.43.97.97.97h10.08c.39,0,.71.32.71.71s-.32.71-.71.71Z"/><path class="cls-2" d="m14.99,16.25H4.07c-.65,0-1.28-.27-1.73-.74-.46-.48-.69-1.11-.65-1.77.07-1.27,1.16-2.26,2.48-2.26h2.37c.39,0,.71.32.71.71s-.32.71-.71.71h-2.37c-.56,0-1.04.41-1.06.92-.01.27.08.53.26.72.19.19.43.3.7.3h10.92c.39,0,.71.32.71.71s-.32.71-.71.71Z"/><path class="cls-2" d="m12.47,6.18h-6.83c-1.32,0-2.39-1.07-2.39-2.39s1.07-2.39,2.39-2.39h10.84c.39,0,.71.32.71.71s-.32.71-.71.71H5.63c-.53,0-.97.43-.97.97s.43.97.97.97h6.83c.39,0,.71.32.71.71s-.32.71-.71.71Z"/><path class="cls-2" d="m16.49,19.61h-6.29c-.58,0-1.11-.29-1.43-.78-.31-.48-.36-1.07-.13-1.59.65-1.46,2.11-2.41,3.72-2.41h2.63c.39,0,.71.32.71.71s-.32.71-.71.71h-2.63c-1.04,0-1.99.62-2.42,1.57-.04.1-.01.18.02.24.03.04.1.13.24.13h6.29c1.91,0,2.78-.97,3.71-1.99.82-.91,1.68-1.86,3.17-1.86h1.67c.39,0,.71.32.71.71s-.32.71-.71.71h-1.67c-.83,0-1.32.5-2.12,1.39-.99,1.1-2.22,2.46-4.76,2.46Z"/><path class="cls-2" d="m25.04,6.18h-1.67c-1.47,0-2.32-.82-3.15-1.61-.93-.9-1.81-1.74-3.75-1.74-.39,0-.71-.32-.71-.71s.32-.71.71-.71c2.51,0,3.75,1.19,4.74,2.14.81.78,1.31,1.22,2.16,1.22h1.67c.39,0,.71.32.71.71s-.32.71-.71.71Z"/><path class="cls-1" d="m7.15,46.32c-1.32,0-2.39-1.07-2.39-2.39v-8.39c0-.39.32-.71.71-.71s.71.32.71.71v8.39c0,.53.43.97.97.97s.97-.43.97-.97v-2.46c0-.39.32-.71.71-.71s.71.32.71.71v2.46c0,1.32-1.07,2.39-2.39,2.39Z"/><path class="cls-1" d="m10.5,48c-1.32,0-2.39-1.07-2.39-2.39v-10.08c0-.39.32-.71.71-.71s.71.32.71.71v10.08c0,.53.43.97.97.97s.97-.43.97-.97v-10.08c0-.39.32-.71.71-.71s.71.32.71.71v10.08c0,1.32-1.07,2.39-2.39,2.39Z"/><path class="cls-1" d="m13.86,46.32s-.09,0-.13,0c-1.27-.07-2.26-1.15-2.26-2.48v-2.37c0-.39.32-.71.71-.71s.71.32.71.71v2.37c0,.56.41,1.04.91,1.06.27.01.53-.08.72-.26.19-.18.3-.43.3-.7v-10.92c0-.39.32-.71.71-.71s.71.32.71.71v10.92c0,.65-.27,1.28-.74,1.73-.45.43-1.03.66-1.64.66Z"/><path class="cls-1" d="m3.79,44.75c-1.32,0-2.39-1.07-2.39-2.39v-10.84c0-.39.32-.71.71-.71s.71.32.71.71v10.84c0,.53.43.97.97.97s.97-.43.97-.97v-6.83c0-.39.32-.71.71-.71s.71.32.71.71v6.83c0,1.32-1.07,2.39-2.39,2.39Z"/><path class="cls-1" d="m17.92,39.5c-.23,0-.46-.05-.68-.14-1.46-.65-2.41-2.11-2.41-3.71v-2.63c0-.39.32-.71.71-.71s.71.32.71.71v2.63c0,1.04.62,1.99,1.57,2.42.1.04.18.01.24-.02.04-.03.13-.1.13-.24v-6.29c0-1.91-.97-2.78-1.99-3.71-.91-.82-1.86-1.67-1.86-3.17v-1.67c0-.39.32-.71.71-.71s.71.32.71.71v1.67c0,.83.5,1.32,1.39,2.12,1.1.99,2.46,2.22,2.46,4.76v6.29c0,.58-.29,1.11-.78,1.43-.28.18-.59.27-.91.27Z"/><path class="cls-1" d="m2.11,32.24c-.39,0-.71-.32-.71-.71,0-2.51,1.19-3.75,2.14-4.74.78-.81,1.22-1.31,1.22-2.16v-1.67c0-.39.32-.71.71-.71s.71.32.71.71v1.67c0,1.47-.82,2.32-1.61,3.15-.9.93-1.74,1.81-1.74,3.75,0,.39-.32.71-.71.71Z"/><path class="cls-2" d="m43.93,43.24h-8.39c-.39,0-.71-.32-.71-.71s.32-.71.71-.71h8.39c.53,0,.97-.43.97-.97s-.43-.97-.97-.97h-2.46c-.39,0-.71-.32-.71-.71s.32-.71.71-.71h2.46c1.32,0,2.39,1.07,2.39,2.39s-1.07,2.39-2.39,2.39Z"/><path class="cls-2" d="m45.61,39.88h-10.08c-.39,0-.71-.32-.71-.71s.32-.71.71-.71h10.08c.53,0,.97-.43.97-.97s-.43-.97-.97-.97h-10.08c-.39,0-.71-.32-.71-.71s.32-.71.71-.71h10.08c1.32,0,2.39,1.07,2.39,2.39s-1.07,2.39-2.39,2.39Z"/><path class="cls-2" d="m43.83,36.53h-2.37c-.39,0-.71-.32-.71-.71s.32-.71.71-.71h2.37c.56,0,1.04-.41,1.06-.92.01-.27-.08-.52-.26-.72-.19-.19-.43-.3-.7-.3h-10.92c-.39,0-.71-.32-.71-.71s.32-.71.71-.71h10.92c.65,0,1.28.27,1.73.75.46.48.69,1.11.65,1.77-.07,1.27-1.16,2.26-2.48,2.26Z"/><path class="cls-2" d="m42.37,46.6h-10.84c-.39,0-.71-.32-.71-.71s.32-.71.71-.71h10.84c.53,0,.97-.43.97-.97s-.43-.97-.97-.97h-6.83c-.39,0-.71-.32-.71-.71s.32-.71.71-.71h6.83c1.32,0,2.39,1.07,2.39,2.39s-1.07,2.39-2.39,2.39Z"/><path class="cls-2" d="m24.62,33.66h-1.67c-.39,0-.71-.32-.71-.71s.32-.71.71-.71h1.67c.83,0,1.32-.5,2.12-1.39.99-1.09,2.22-2.46,4.76-2.46h6.29c.58,0,1.11.29,1.43.78.31.48.36,1.07.13,1.59-.65,1.46-2.11,2.41-3.72,2.41h-2.63c-.39,0-.71-.32-.71-.71s.32-.71.71-.71h2.63c1.04,0,1.99-.62,2.42-1.57.04-.1.01-.18-.02-.24-.03-.04-.1-.13-.24-.13h-6.29c-1.91,0-2.78.97-3.71,1.99-.82.91-1.68,1.86-3.17,1.86Z"/><path class="cls-2" d="m31.53,46.6c-2.51,0-3.75-1.19-4.74-2.14-.81-.78-1.31-1.22-2.16-1.22h-1.67c-.39,0-.71-.32-.71-.71s.32-.71.71-.71h1.67c1.47,0,2.32.82,3.15,1.61.93.9,1.81,1.74,3.75,1.74.39,0,.71.32.71.71s-.32.71-.71.71Z"/><path class="cls-2" d="m25.95,18.91h-.86c-.39,0-.71-.32-.71-.71V4.07c0-.39.32-.71.71-.71h4.37c.39,0,.71.32.71.71s-.32.71-.71.71h-3.66v12.71h.15c.39,0,.71.32.71.71s-.32.71-.71.71Z"/><path class="cls-1" d="m18.2,23.62H4.07c-.39,0-.71-.32-.71-.71v-4.37c0-.39.32-.71.71-.71s.71.32.71.71v3.66h12.71v-.15c0-.39.32-.71.71-.71s.71.32.71.71v.86c0,.39-.32.71-.71.71Z"/><path class="cls-2" d="m22.91,44.64h-4.37c-.39,0-.71-.32-.71-.71s.32-.71.71-.71h3.66v-12.71h-.15c-.39,0-.71-.32-.71-.71s.32-.71.71-.71h.86c.39,0,.71.32.71.71v14.13c0,.39-.32.71-.71.71Z"/><path class="cls-1" d="m43.93,30.17c-.39,0-.71-.32-.71-.71v-3.66h-12.71v.15c0,.39-.32.71-.71.71s-.71-.32-.71-.71v-.86c0-.39.32-.71.71-.71h14.13c.39,0,.71.32.71.71v4.37c0,.39-.32.71-.71.71Z"/><path class="cls-1" d="m42.53,13.18c-.39,0-.71-.32-.71-.71V4.07c0-.53-.43-.97-.97-.97s-.97.43-.97.97v2.46c0,.39-.32.71-.71.71s-.71-.32-.71-.71v-2.46c0-1.32,1.07-2.39,2.39-2.39s2.39,1.07,2.39,2.39v8.39c0,.39-.32.71-.71.71Z"/><path class="cls-1" d="m39.17,13.18c-.39,0-.71-.32-.71-.71V2.39c0-.53-.43-.97-.97-.97s-.97.43-.97.97v10.08c0,.39-.32.71-.71.71s-.71-.32-.71-.71V2.39c0-1.32,1.07-2.39,2.39-2.39s2.39,1.07,2.39,2.39v10.08c0,.39-.32.71-.71.71Z"/><path class="cls-1" d="m32.46,15.7c-.39,0-.71-.32-.71-.71V4.07c0-.65.27-1.28.74-1.73.48-.46,1.11-.68,1.77-.65,1.27.07,2.26,1.15,2.26,2.48v2.37c0,.39-.32.71-.71.71s-.71-.32-.71-.71v-2.37c0-.56-.41-1.04-.92-1.06-.27-.01-.53.08-.72.26s-.3.43-.3.7v10.92c0,.39-.32.71-.71.71Z"/><path class="cls-1" d="m45.89,17.18c-.39,0-.71-.32-.71-.71V5.63c0-.53-.43-.97-.97-.97s-.97.43-.97.97v6.83c0,.39-.32.71-.71.71s-.71-.32-.71-.71v-6.83c0-1.32,1.07-2.39,2.39-2.39s2.39,1.07,2.39,2.39v10.84c0,.39-.32.71-.71.71Z"/><path class="cls-1" d="m32.95,25.75c-.39,0-.71-.32-.71-.71v-1.67c0-.83-.5-1.32-1.39-2.12-1.1-.99-2.46-2.22-2.46-4.76v-6.29c0-.58.29-1.11.78-1.43.48-.31,1.07-.36,1.59-.13,1.46.65,2.41,2.11,2.41,3.71v2.63c0,.39-.32.71-.71.71s-.71-.32-.71-.71v-2.63c0-1.04-.62-1.99-1.57-2.42-.1-.04-.19-.01-.24.02-.04.03-.13.1-.13.24v6.29c0,1.91.97,2.78,1.99,3.71.91.82,1.86,1.67,1.86,3.17v1.67c0,.39-.32.71-.71.71Z"/><path class="cls-1" d="m42.53,25.75c-.39,0-.71-.32-.71-.71v-1.67c0-1.47.82-2.32,1.61-3.15.9-.93,1.74-1.81,1.74-3.75,0-.39.32-.71.71-.71s.71.32.71.71c0,2.51-1.19,3.75-2.14,4.74-.78.81-1.22,1.31-1.22,2.16v1.67c0,.39-.32.71-.71.71Z"/></svg>