<?xml version="1.0" encoding="UTF-8"?><svg id="Calque_1" xmlns="http://www.w3.org/2000/svg" viewBox="0 0 48 48"><defs><style>.cls-1{fill:#bc955b;}.cls-1,.cls-2{stroke-width:0px;}</style></defs><path class="cls-1" d="m27,48s-.06,0-.09,0l-17.28-2.25c-.35-.05-.62-.35-.62-.7v-12.02c0-.26.14-.5.37-.62l6.76-3.76c.11-.06.22-.09.34-.09h15.4c1.84,0,3.34,1.5,3.34,3.34s-1.5,3.34-3.34,3.34h-9.43v1.86l5.33,2.66,15.22-6.29c1.82-.75,3.92.11,4.7,1.91.77,1.8-.06,3.92-1.85,4.72l-18.58,7.86c-.09.04-.18.06-.28.06Zm-16.57-3.59l16.47,2.15,18.39-7.78c1.07-.48,1.58-1.76,1.11-2.86-.47-1.1-1.75-1.62-2.85-1.16l-15.52,6.42c-.19.08-.41.07-.59-.02l-6.01-3c-.24-.12-.39-.37-.39-.63v-3.01c0-.39.32-.71.71-.71h10.14c1.06,0,1.92-.86,1.92-1.92s-.86-1.92-1.92-1.92h-15.22l-6.24,3.46v10.98Z"/><path class="cls-1" d="m2.21,47.25H.71c-.39,0-.71-.32-.71-.71s.32-.71.71-.71h1.5c.85,0,1.54-.69,1.54-1.54v-10.52c0-.85-.69-1.54-1.54-1.54H.71c-.39,0-.71-.32-.71-.71s.32-.71.71-.71h1.5c1.63,0,2.96,1.33,2.96,2.96v10.52c0,1.63-1.33,2.96-2.96,2.96Z"/><path class="cls-1" d="m9.73,35.98h-5.26c-.39,0-.71-.32-.71-.71s.32-.71.71-.71h5.26c.39,0,.71.32.71.71s-.32.71-.71.71Z"/><path class="cls-1" d="m9.73,43.49h-5.26c-.39,0-.71-.32-.71-.71s.32-.71.71-.71h5.26c.39,0,.71.32.71.71s-.32.71-.71.71Z"/><path class="cls-1" d="m21.75,35.23c-.39,0-.71-.32-.71-.71v-5.26c0-.39.32-.71.71-.71s.71.32.71.71v5.26c0,.39-.32.71-.71.71Z"/><path class="cls-1" d="m39.07,42.9c-.27,0-.53-.15-.64-.41l-2.45-5.32c-.16-.36,0-.78.35-.94.36-.17.78,0,.94.35l2.45,5.32c.16.36,0,.78-.35.94-.1.04-.2.07-.3.07Z"/><path class="cls-1" d="m14.99,41.99c-.25,0-.49-.13-.62-.37-.19-.34-.07-.78.28-.97l6.76-3.76c.34-.19.78-.07.97.28.19.34.07.78-.28.97l-6.76,3.76c-.11.06-.23.09-.34.09Z"/><path class="cls-1" d="m27.01,48s-.05,0-.08,0c-.39-.04-.67-.39-.63-.78l.75-6.76c.04-.39.4-.67.78-.63.39.04.67.39.63.78l-.75,6.76c-.04.36-.35.63-.71.63Z"/><path class="cls-2" d="m40.32,31.45c-.37,0-.75-.14-1.03-.43l-.76-.76c-.36.15-.8-.03-.95-.39-.15-.36,0-.78.36-.93.55-.23,1.17-.1,1.59.32l.76.76,3.25-3.19-.76-.81c-.42-.42-.54-1.04-.32-1.59l1.65-3.99c.23-.55.76-.9,1.35-.9h1.07l.04-4.55-1.11-.04c-.59,0-1.12-.35-1.35-.9l-1.65-3.99c-.23-.55-.1-1.17.32-1.59l.76-.76-3.19-3.25-.81.76c-.42.42-1.04.54-1.59.32l-3.99-1.65c-.55-.23-.9-.76-.9-1.35v-1.07l-4.55-.04-.04,1.11c0,.59-.35,1.12-.9,1.35l-3.99,1.65c-.55.23-1.17.1-1.59-.32l-.76-.76-3.25,3.19.76.81c.42.42.54,1.04.32,1.59l-1.65,3.99c-.23.55-.76.9-1.35.9h-1.07l-.04,4.55,1.11.04c.59,0,1.12.35,1.35.9l1.65,3.99c.15.36-.02.78-.38.93-.36.15-.78-.02-.93-.38l-1.65-3.99-1.11-.03c-.81,0-1.46-.66-1.46-1.46v-4.51c0-.81.66-1.46,1.46-1.46h1.07l1.69-4.01-.76-.8c-.57-.57-.57-1.5,0-2.07l3.19-3.19c.57-.57,1.5-.57,2.07,0l.76.76,4.03-1.64.03-1.11c0-.81.66-1.46,1.46-1.46h4.51c.81,0,1.46.66,1.46,1.46v1.07l4.01,1.69.8-.76c.57-.57,1.49-.57,2.07,0l3.19,3.19c.57.57.57,1.5,0,2.07l-.76.76,1.64,4.03,1.11.03c.81,0,1.46.66,1.46,1.46v4.51c0,.81-.66,1.46-1.46,1.46h-1.07l-1.69,4.01.76.8c.28.28.43.64.43,1.03s-.15.76-.43,1.03l-3.19,3.19c-.29.28-.66.43-1.03.43Z"/><path class="cls-2" d="m30.76,25.46c-4.53,0-8.22-3.69-8.22-8.22s3.69-8.22,8.22-8.22,8.22,3.69,8.22,8.22-3.69,8.22-8.22,8.22Zm0-15.03c-3.75,0-6.8,3.05-6.8,6.8s3.05,6.8,6.8,6.8,6.8-3.05,6.8-6.8-3.05-6.8-6.8-6.8Z"/></svg>