<?xml version="1.0" encoding="UTF-8"?><svg id="Calque_1" xmlns="http://www.w3.org/2000/svg" viewBox="0 0 48 48"><defs><style>.cls-1{fill:#bc955b;}.cls-1,.cls-2{stroke-width:0px;}</style></defs><path class="cls-1" d="m.71,28.84c-.39,0-.71-.32-.71-.71v-4.73c0-.39.32-.71.71-.71s.71.32.71.71v4.73c0,.39-.32.71-.71.71Z"/><path class="cls-1" d="m.71,38.7c-.39,0-.71-.32-.71-.71v-4.73c0-.39.32-.71.71-.71s.71.32.71.71v4.73c0,.39-.32.71-.71.71Z"/><path class="cls-1" d="m32.67,28.84c-.39,0-.71-.32-.71-.71v-4.73c0-.39.32-.71.71-.71s.71.32.71.71v4.73c0,.39-.32.71-.71.71Z"/><path class="cls-1" d="m32.67,38.7c-.39,0-.71-.32-.71-.71v-4.73c0-.39.32-.71.71-.71s.71.32.71.71v4.73c0,.39-.32.71-.71.71Z"/><path class="cls-1" d="m23.99,15.43h-4.73c-.39,0-.71-.32-.71-.71s.32-.71.71-.71h4.73c.39,0,.71.32.71.71s-.32.71-.71.71Z"/><path class="cls-1" d="m.71,18.98c-.39,0-.71-.32-.71-.71v-3.55c0-.39.32-.71.71-.71h3.55c.39,0,.71.32.71.71s-.32.71-.71.71H1.42v2.84c0,.39-.32.71-.71.71Z"/><path class="cls-1" d="m14.12,15.43h-4.73c-.39,0-.71-.32-.71-.71s.32-.71.71-.71h4.73c.39,0,.71.32.71.71s-.32.71-.71.71Z"/><path class="cls-1" d="m23.99,47.39h-4.73c-.39,0-.71-.32-.71-.71s.32-.71.71-.71h4.73c.39,0,.71.32.71.71s-.32.71-.71.71Z"/><path class="cls-1" d="m32.67,47.39h-3.55c-.39,0-.71-.32-.71-.71s.32-.71.71-.71h2.84v-2.84c0-.39.32-.71.71-.71s.71.32.71.71v3.55c0,.39-.32.71-.71.71Z"/><path class="cls-1" d="m4.26,47.39H.71c-.39,0-.71-.32-.71-.71v-3.55c0-.39.32-.71.71-.71s.71.32.71.71v2.84h2.84c.39,0,.71.32.71.71s-.32.71-.71.71Z"/><path class="cls-1" d="m14.12,47.39h-4.73c-.39,0-.71-.32-.71-.71s.32-.71.71-.71h4.73c.39,0,.71.32.71.71s-.32.71-.71.71Z"/><path class="cls-2" d="m42.82,28.82c-.67,0-1.34-.13-1.98-.4-1.28-.53-2.27-1.52-2.8-2.8-.53-1.28-.53-2.68,0-3.96.53-1.28,1.52-2.27,2.8-2.8,1.28-.53,2.68-.53,3.96,0,1.28.53,2.27,1.52,2.8,2.8.53,1.28.53,2.69,0,3.96-.53,1.28-1.52,2.27-2.8,2.8-.64.26-1.31.4-1.98.4Zm0-8.94c-.49,0-.97.1-1.44.29-.93.38-1.65,1.11-2.03,2.03-.38.93-.38,1.95,0,2.88.38.93,1.11,1.65,2.03,2.03.93.38,1.95.38,2.88,0,.93-.38,1.65-1.11,2.03-2.03.38-.93.38-1.95,0-2.88-.38-.93-1.11-1.65-2.03-2.03h0c-.46-.19-.95-.29-1.44-.29Z"/><path class="cls-2" d="m44.53,20.23c-.09,0-.18-.02-.27-.05L11.59,6.64c-.36-.15-.53-.57-.38-.93s.57-.54.93-.38l32.67,13.53c.36.15.53.57.38.93-.11.27-.38.44-.66.44Z"/><path class="cls-2" d="m42.82,10.97c-.67,0-1.34-.13-1.98-.4-1.28-.53-2.27-1.52-2.8-2.8-.53-1.28-.53-2.68,0-3.96.53-1.28,1.52-2.27,2.8-2.8,1.28-.53,2.68-.53,3.96,0,1.28.53,2.27,1.52,2.8,2.8.53,1.28.53,2.68,0,3.96-.53,1.28-1.52,2.27-2.8,2.8h0c-.64.26-1.31.4-1.98.4Zm1.71-1.05h0,0Zm-1.71-7.89c-.49,0-.97.1-1.44.29-.93.38-1.65,1.11-2.03,2.03-.38.93-.38,1.95,0,2.88.38.93,1.11,1.65,2.03,2.03.93.38,1.95.38,2.88,0,.93-.38,1.65-1.11,2.03-2.03.38-.93.38-1.95,0-2.88-.38-.93-1.11-1.65-2.03-2.03-.46-.19-.95-.29-1.44-.29Z"/><path class="cls-2" d="m11.86,24.16c-.28,0-.54-.17-.66-.44-.15-.36.02-.78.38-.93l32.67-13.53c.36-.15.78.02.93.38.15.36-.02.78-.38.93L12.13,24.1c-.09.04-.18.05-.27.05Z"/><path class="cls-2" d="m18.77,26.36c-2.82,0-5.42-.8-7.36-2.36-.31-.25-.35-.69-.11-1,.25-.31.69-.35,1-.11,2.95,2.38,7.75,2.72,12.24.86,2.84-1.18,5.21-3.1,6.65-5.41.21-.33.65-.43.98-.23.33.21.43.65.23.98-1.6,2.56-4.2,4.68-7.31,5.97-2.1.87-4.26,1.3-6.32,1.3Z"/><path class="cls-2" d="m31.81,11.42c-.24,0-.47-.12-.6-.33-1.44-2.31-3.81-4.23-6.65-5.41-4.49-1.86-9.3-1.52-12.24.86-.3.25-.75.2-1-.11-.25-.3-.2-.75.11-1,3.35-2.7,8.71-3.12,13.68-1.07,3.12,1.29,5.71,3.41,7.31,5.97.21.33.11.77-.23.98-.12.07-.25.11-.38.11Z"/></svg>