<?xml version="1.0" encoding="UTF-8"?><svg id="Calque_1" xmlns="http://www.w3.org/2000/svg" viewBox="0 0 48 48"><defs><style>.cls-1{fill:#bc955b;}.cls-1,.cls-2{stroke-width:0px;}</style></defs><path class="cls-1" d="m7.22,44.18H2.39c-1.32,0-2.39-1.07-2.39-2.39v-11.07c0-1.32,1.07-2.39,2.39-2.39h4.83c1.32,0,2.39,1.07,2.39,2.39v11.07c0,1.32-1.07,2.39-2.39,2.39Zm-4.83-14.43c-.53,0-.97.43-.97.97v11.07c0,.53.43.97.97.97h4.83c.53,0,.97-.43.97-.97v-11.07c0-.53-.43-.97-.97-.97H2.39Z"/><path class="cls-2" d="m19.31,31.21h-5.9c-.39,0-.71-.32-.71-.71s.32-.71.71-.71h5.9c.39,0,.71.32.71.71s-.32.71-.71.71Z"/><path class="cls-2" d="m43.99,40.22h-21.85c-2.21,0-4.01-1.8-4.01-4.01,0-.39.32-.71.71-.71s.71.32.71.71c0,1.43,1.16,2.59,2.59,2.59h21.85c1.43,0,2.59-1.16,2.59-2.59,0-.39.32-.71.71-.71s.71.32.71.71c0,2.21-1.8,4.01-4.01,4.01Z"/><path class="cls-1" d="m43.99,36.92h-21.85c-.39,0-.71-.32-.71-.71v-14.59c0-.39.32-.71.71-.71h21.85c.39,0,.71.32.71.71v14.59c0,.39-.32.71-.71.71Zm-21.14-1.42h20.43v-13.17h-20.43v13.17Z"/><path class="cls-2" d="m19.31,25.78H4.81c-1.15,0-2.09-.94-2.09-2.09V5.92c0-1.15.94-2.09,2.09-2.09h29.25c1.15,0,2.09.94,2.09,2.09v12.87c0,.39-.32.71-.71.71s-.71-.32-.71-.71V5.92c0-.37-.3-.67-.67-.67H4.81c-.37,0-.67.3-.67.67v17.77c0,.37.3.67.67.67h14.5c.39,0,.71.32.71.71s-.32.71-.71.71Z"/><path class="cls-2" d="m19.31,31.21h-1.81c-.39,0-.71-.32-.71-.71v-5.43c0-.39.32-.71.71-.71h1.81c.39,0,.71.32.71.71s-.32.71-.71.71h-1.1v4.01h1.1c.39,0,.71.32.71.71s-.32.71-.71.71Z"/></svg>