<?xml version="1.0" encoding="UTF-8"?><svg id="Calque_1" xmlns="http://www.w3.org/2000/svg" viewBox="0 0 48 48"><defs><style>.cls-1{fill:#bc955b;}.cls-1,.cls-2{stroke-width:0px;}</style></defs><path class="cls-1" d="m43.88,48H8.28c-2.78,0-5.05-2.27-5.05-5.05s2.27-5.05,5.05-5.05h35.6c.39,0,.71.32.71.71s-.32.71-.71.71H8.28c-2,0-3.63,1.63-3.63,3.63s1.63,3.63,3.63,3.63h35.6c.39,0,.71.32.71.71s-.32.71-.71.71Z"/><path class="cls-1" d="m3.94,43.66c-.39,0-.71-.32-.71-.71V5.05C3.23,2.27,5.5,0,8.28,0h35.6c.39,0,.71.32.71.71v37.9c0,.39-.32.71-.71.71s-.71-.32-.71-.71V1.42H8.28c-2,0-3.63,1.63-3.63,3.63v37.9c0,.39-.32.71-.71.71Z"/><path class="cls-1" d="m9.01,34.6c-.39,0-.71-.32-.71-.71V5.43c0-.39.32-.71.71-.71s.71.32.71.71v28.46c0,.39-.32.71-.71.71Z"/><path class="cls-2" d="m24.77,32.14c-.57,0-1.09-.42-1.2-.99l-.62-2.89s-.06-.09-.09-.11l-1.9-1.1c-.07-.04-.14-.05-.18-.05l-2.82.92c-.53.18-1.16-.05-1.44-.55l-1.68-2.91c-.29-.5-.18-1.16.26-1.53l2.2-1.98s.05-.09.05-.13v-2.19c0-.08-.03-.15-.05-.18l-2.2-1.98c-.42-.37-.53-1.03-.25-1.52l1.68-2.91c.29-.5.91-.73,1.45-.55l2.81.91s.1,0,.13-.02l1.9-1.1c.07-.04.12-.1.13-.13l.62-2.9c.11-.55.62-.98,1.2-.98h3.35c.57,0,1.09.42,1.2.98l.62,2.89s.06.09.09.11l1.9,1.1c.07.04.15.05.18.05l2.82-.92c.53-.18,1.16.05,1.44.55l1.68,2.91c.28.49.18,1.15-.25,1.53l-2.2,1.98s-.05.09-.05.13v2.19c0,.08.03.15.05.18l2.2,1.98c.42.37.53,1.03.25,1.53l-1.68,2.9c-.29.5-.91.73-1.45.55l-2.81-.91s-.1,0-.13.02l-1.9,1.1c-.07.04-.12.1-.13.13l-.62,2.9c-.11.55-.62.98-1.2.98h-3.35Zm3.16-1.27s0,0,0,0h0Zm-2.97,0h0s0,0,0,0Zm-4.15-5.27c.33,0,.66.1.92.27l1.81,1.04c.36.17.72.62.81,1.07l.59,2.74h3.03s.59-2.75.59-2.75c.09-.44.44-.9.86-1.09l1.8-1.04c.32-.23.89-.31,1.33-.17l2.67.87,1.52-2.63-2.09-1.88c-.34-.3-.55-.83-.52-1.29v-2.09c-.04-.4.17-.94.52-1.24l2.08-1.87-1.52-2.63-2.67.87c-.43.15-1,.07-1.38-.2l-1.81-1.04c-.37-.17-.72-.62-.81-1.08l-.59-2.74h-3.03s-.59,2.75-.59,2.75c-.09.44-.44.9-.86,1.09l-1.8,1.04c-.33.23-.9.31-1.33.17l-2.67-.87-1.52,2.63,2.09,1.88c.34.3.56.83.51,1.29v2.08c.04.4-.17.93-.52,1.24l-2.09,1.88,1.52,2.63,2.67-.87c.14-.05.3-.07.46-.07Zm-3.28.99s0,0,0,0h0Zm17.82,0h0s0,0,0,0Zm1.5-2.57s0,0,0,0h0Zm-20.8-.01h0s0,0,0,0Zm20.76-.23h0s0,0,0,0Zm-20.78-8.35h0s0,0,0,0Zm1.49-2.57s0,0,0,0h0Zm17.84,0h0s0,0,0,0Zm-.23-.09s0,0,0,0h0Zm-7.21-4.2s0,0,0,0h0Zm-2.96,0h0s0,0,0,0Z"/><path class="cls-2" d="m26.45,24.45c-2.64,0-4.79-2.15-4.79-4.79s2.15-4.79,4.79-4.79c.39,0,.71.32.71.71s-.32.71-.71.71c-1.86,0-3.37,1.51-3.37,3.37s1.51,3.37,3.37,3.37,3.37-1.51,3.37-3.37c0-.39.32-.71.71-.71s.71.32.71.71c0,2.64-2.15,4.79-4.79,4.79Z"/><path class="cls-2" d="m44.06,43.66H8.28c-.39,0-.71-.32-.71-.71s.32-.71.71-.71h35.78c.39,0,.71.32.71.71s-.32.71-.71.71Z"/></svg>