<?xml version="1.0" encoding="UTF-8"?><svg id="Calque_1" xmlns="http://www.w3.org/2000/svg" viewBox="0 0 48 48"><defs><style>.cls-1{fill:#bc955b;}.cls-1,.cls-2{stroke-width:0px;}</style></defs><path class="cls-2" d="m14.06,15.92c-.18,0-.36-.07-.5-.21-.28-.28-.28-.73,0-1l4.64-4.64c1.15-1.15,2.74-1.81,4.37-1.81h18.73c.39,0,.71.32.71.71s-.32.71-.71.71h-18.73c-1.25,0-2.48.51-3.36,1.39l-4.64,4.64c-.14.14-.32.21-.5.21Z"/><path class="cls-1" d="m22.02,37.97c-.28,0-.54-.16-.66-.44-.15-.36.02-.78.38-.93,1.77-.73,3.15-2.11,3.88-3.88.73-1.77.73-3.72,0-5.49-.73-1.77-2.11-3.15-3.88-3.88-.36-.15-.53-.57-.38-.93s.56-.54.93-.38c2.12.88,3.77,2.53,4.65,4.65.88,2.12.88,4.46,0,6.57-.88,2.12-2.53,3.77-4.65,4.65-.09.04-.18.05-.27.05Z"/><path class="cls-1" d="m15.99,37.97c-.09,0-.18-.02-.27-.05-2.12-.88-3.77-2.53-4.65-4.65-.88-2.12-.88-4.45,0-6.57.88-2.12,2.53-3.77,4.65-4.65.36-.15.78.02.93.38.15.36-.02.78-.38.93-1.77.73-3.15,2.11-3.88,3.88-.73,1.77-.73,3.72,0,5.49.73,1.77,2.11,3.15,3.88,3.88.36.15.53.57.38.93-.11.27-.38.44-.66.44Z"/><path class="cls-2" d="m19.31,34.82c-.06,0-.13,0-.2,0-2.59-.13-3.49-1.89-3.61-2.56-.07-.39.18-.76.56-.83.38-.08.76.18.83.56,0,.01.37,1.31,2.29,1.41,1.1.06,1.83-.61,1.9-1.29.08-.79-.7-1.41-2.04-1.62-1.92-.3-3.06-1.26-3.04-2.55.02-1.39,1-2.46,2.49-2.72,1.49-.26,3.33.37,3.97,2.09.14.37-.05.78-.42.91-.37.14-.78-.05-.91-.42-.37-.99-1.49-1.35-2.4-1.19-.31.05-1.3.31-1.32,1.34,0,.62.99,1,1.84,1.13,2.59.41,3.36,1.96,3.23,3.17-.13,1.29-1.35,2.57-3.18,2.57Z"/><path class="cls-2" d="m19.2,26.57c-.39,0-.71-.32-.71-.71v-2.05c0-.39.32-.71.71-.71s.71.32.71.71v2.05c0,.39-.32.71-.71.71Z"/><path class="cls-2" d="m19.2,36.87c-.39,0-.71-.32-.71-.71v-2.05c0-.39.32-.71.71-.71s.71.32.71.71v2.05c0,.39-.32.71-.71.71Z"/><path class="cls-2" d="m43.94,25.54c-.19,0-.37-.07-.5-.21-.13-.13-.21-.31-.21-.5V7.1c0-.39.32-.71.71-.71h3.35c.39,0,.71.32.71.71s-.32.71-.71.71h-2.64v16.3h2.64s0-.01,0-.01c.39,0,.71.32.71.71,0,.39-.31.71-.71.71l-3.35.02h0Z"/><path class="cls-2" d="m37.12,23.75c-2.86,0-4.67-1.31-6.04-2.66h-7.43c-2,0-3.62-1.62-3.62-3.62s1.62-3.62,3.62-3.62h8.45c.39,0,.71.32.71.71s-.32.71-.71.71h-8.45c-1.21,0-2.2.99-2.2,2.2s.99,2.2,2.2,2.2h7.72c.19,0,.37.08.5.21,1.72,1.74,3.23,2.45,5.24,2.45,1.35,0,2.65-.33,3.84-.97.35-.19.78-.05.96.29.18.35.05.78-.29.96-1.39.74-2.95,1.13-4.51,1.13Z"/><path class="cls-1" d="m36.51,41.61H1.5c-.82,0-1.5-.67-1.5-1.5v-21.43c0-.82.67-1.5,1.5-1.5h16.62c.39,0,.71.32.71.71s-.32.71-.71.71H1.5s-.08.03-.08.08v21.43s.03.08.08.08h35.01s.08-.03.08-.08v-14.44c0-.39.32-.71.71-.71s.71.32.71.71v14.44c0,.82-.67,1.5-1.5,1.5Z"/><path class="cls-1" d="m3.35,25.37c-.3,0-.57-.19-.67-.48-.12-.37.08-.77.45-.9,1.72-.58,3.09-1.95,3.67-3.67.12-.37.52-.57.9-.45.37.12.57.53.45.9-.72,2.14-2.42,3.85-4.56,4.56-.08.02-.15.04-.23.04Z"/><path class="cls-1" d="m7.47,38.96c-.3,0-.57-.19-.67-.48-.58-1.72-1.95-3.09-3.67-3.67-.37-.12-.57-.53-.45-.9.12-.37.52-.57.9-.45,2.14.72,3.84,2.42,4.56,4.56.12.37-.08.77-.45.9-.08.02-.15.04-.23.04Z"/><path class="cls-1" d="m30.43,38.96c-.06,0-.12,0-.19-.03-.38-.1-.6-.49-.5-.87.64-2.33,2.39-4.18,4.67-4.94.37-.13.77.08.9.45.12.37-.08.77-.45.9-1.84.62-3.24,2.1-3.76,3.97-.09.31-.37.52-.68.52Z"/></svg>