<?xml version="1.0" encoding="UTF-8"?><svg id="Calque_1" xmlns="http://www.w3.org/2000/svg" viewBox="0 0 48 48"><defs><style>.cls-1{fill:#bc955b;}.cls-1,.cls-2{stroke-width:0px;}</style></defs><path id="Tracé_15" class="cls-1" d="m48,32.26c0,3.58-2.9,6.48-6.48,6.48h-2.52c-.39,0-.72-.3-.73-.69,0-.39.3-.72.69-.73.01,0,.02,0,.03,0h2.52c2.8,0,5.06-2.27,5.06-5.06s-2.27-5.06-5.06-5.06c-.55,0-1.09.11-1.61.29-.37.12-.78-.08-.9-.45-.02-.06-.03-.12-.03-.17-.31-4.73-4.4-8.3-9.13-7.99-.34.02-.67.06-1,.13-.19.03-.39-.01-.54-.13-.16-.11-.26-.29-.28-.48-.62-4.84-5.05-8.26-9.89-7.63-4.41.57-7.71,4.32-7.71,8.77v.23c.02.39-.29.72-.68.73,0,0,0,0,0,0-4.65.06-8.37,3.87-8.31,8.52.05,4.31,3.35,7.88,7.64,8.28.39.04.68.39.64.78-.04.39-.38.67-.77.64C3.53,38.2-.46,33.41.04,28c.44-4.75,4.22-8.5,8.97-8.9.23-5.66,5.01-10.06,10.67-9.83,4.72.19,8.7,3.59,9.63,8.23.35-.04.71-.06,1.07-.06,4.93.02,9.13,3.6,9.91,8.48.4-.09.81-.13,1.23-.13,3.58,0,6.48,2.9,6.48,6.48"/><path id="Tracé_16" class="cls-2" d="m40,31.54H8c-.39,0-.71.32-.71.71s.32.71.71.71h3.29v14.33c0,.39.32.71.71.71.19,0,.37-.07.5-.21l3.5-3.5,3.5,3.5c.28.28.73.28,1,0l3.5-3.5,3.5,3.5c.28.28.73.28,1,0l3.5-3.5,3.5,3.5c.28.28.73.28,1,0,.13-.13.21-.31.21-.5v-14.33h3.29c.39,0,.71-.32.71-.71s-.32-.71-.71-.71m-4.71,14.04l-2.79-2.79c-.28-.28-.73-.28-1,0l-3.5,3.5-3.5-3.5c-.28-.28-.73-.28-1,0l-3.5,3.5-3.5-3.5c-.28-.28-.73-.28-1,0l-2.79,2.79v-12.62h22.58v12.62Zm3.38-33.09c0-2.13-1.73-3.87-3.86-3.87s-3.87,1.73-3.87,3.86h0c0,.4-.3.72-.69.73-.39,0-.72-.3-.73-.69,0-.01,0-.02,0-.03,0-2.92,2.37-5.28,5.29-5.28,2.92,0,5.28,2.37,5.28,5.29,0,2.12-1.27,4.04-3.23,4.87-.03.01-.15.05-.18.06-.08.03-.17.05-.25.05-.39,0-.71-.32-.71-.71,0-.29.18-.56.46-.66.02-.01.12-.04.14-.04,1.43-.6,2.35-2.01,2.35-3.56m9.33-1.79v3.58c0,.6-.43,1.11-1.01,1.23l-3.08.66c-.06.03-.11.06-.14.11l-1.17,2.03c-.04.07-.06.15-.05.23l.97,3.01c.18.57-.05,1.18-.57,1.48l-.79.46c-.11.06-.23.1-.35.09-.39,0-.71-.32-.71-.71,0-.25.13-.49.35-.62l.68-.39-.94-2.89c-.15-.48-.07-1.01.21-1.43l1.11-1.93c.23-.43.64-.74,1.11-.84l2.96-.63v-3.31l-2.97-.63c-.49-.11-.91-.44-1.13-.89l-1.12-1.92c-.26-.41-.32-.92-.17-1.38l.94-2.88-2.87-1.66-2.03,2.26c-.34.37-.84.56-1.34.53h-2.22c-.49.01-.95-.18-1.28-.54l-2.03-2.25-2.86,1.65.94,2.89c.15.48.07,1-.21,1.42l-1.11,1.93c-.06.11-.13.22-.22.31-.26.29-.71.32-1,.06-.29-.26-.32-.71-.06-1,0,0,.01-.01.02-.02l1.18-2.04c.04-.07.06-.15.05-.22l-.97-3.01c-.18-.56.05-1.18.56-1.48l3.09-1.79c.52-.29,1.17-.18,1.57.26l2.11,2.34s.11.06.17.07h2.34c.08,0,.16-.02.22-.06l2.11-2.35c.4-.44,1.05-.55,1.57-.25l3.1,1.79c.51.3.75.93.56,1.49l-.98,3c0,.06,0,.12.02.18l1.17,2.02c.04.07.1.13.17.16l3.09.66c.58.13.99.64,1,1.23M15.29,35.98c0-.39.32-.71.71-.71h16c.39,0,.71.32.71.71s-.32.71-.71.71h-16c-.39,0-.71-.32-.71-.71h0m17.42,3.72c0,.39-.32.71-.71.71h-8c-.39,0-.71-.32-.71-.71s.32-.71.71-.71h8c.39,0,.71.32.71.71h0"/></svg>