<?xml version="1.0" encoding="UTF-8"?><svg id="Calque_1" xmlns="http://www.w3.org/2000/svg" viewBox="0 0 48 48"><defs><style>.cls-1{fill:#bc955b;}.cls-1,.cls-2{stroke-width:0px;}</style></defs><path class="cls-1" d="m27.84,29.58c-.28,0-.54-.17-.66-.44-.15-.36.02-.78.38-.93,2.3-.95,4.09-2.74,5.04-5.04.95-2.3.95-4.83,0-7.13-.95-2.3-2.74-4.09-5.04-5.04-.36-.15-.53-.57-.38-.93.15-.36.57-.54.93-.38,2.65,1.1,4.71,3.16,5.81,5.81,1.1,2.65,1.1,5.56,0,8.21-1.1,2.65-3.16,4.71-5.81,5.81-.09.04-.18.05-.27.05Z"/><path class="cls-1" d="m20.16,29.58c-.09,0-.18-.02-.27-.05-2.65-1.1-4.71-3.16-5.81-5.81-1.1-2.65-1.1-5.56,0-8.21,1.1-2.65,3.16-4.71,5.81-5.81.36-.15.78.02.93.38.15.36-.02.78-.38.93-2.3.95-4.09,2.74-5.04,5.04-.95,2.3-.95,4.83,0,7.13s2.74,4.09,5.04,5.04c.36.15.53.56.38.93-.11.27-.38.44-.66.44Z"/><path class="cls-2" d="m24.4,25.57c-.08,0-.16,0-.24,0-3.17-.16-4.26-2.29-4.42-3.1-.07-.39.18-.76.56-.83.38-.08.76.18.83.56,0,.02.46,1.82,3.09,1.95,1.5.06,2.52-.87,2.61-1.82.12-1.12-.94-1.99-2.76-2.28-2.34-.37-3.72-1.51-3.7-3.05.02-1.67,1.2-2.96,3.01-3.27,1.81-.31,4.06.45,4.84,2.53.14.37-.05.78-.42.91-.37.14-.78-.05-.91-.42-.51-1.36-2.03-1.85-3.26-1.63-.43.07-1.82.43-1.83,1.89-.01,1.17,2.08,1.56,2.5,1.63,3.16.5,4.1,2.37,3.95,3.82-.16,1.55-1.64,3.09-3.86,3.1Z"/><path class="cls-2" d="m24.25,15.08c-.39,0-.71-.32-.71-.71v-2.61c0-.39.32-.71.71-.71s.71.32.71.71v2.61c0,.39-.32.71-.71.71Z"/><path class="cls-2" d="m24.25,28.18c-.39,0-.71-.32-.71-.71v-2.61c0-.39.32-.71.71-.71s.71.32.71.71v2.61c0,.39-.32.71-.71.71Z"/><path class="cls-1" d="m3.4,14.64c-.32,0-.61-.21-.69-.54-.1-.38.13-.77.51-.86,2.61-.66,4.64-2.69,5.3-5.3.1-.38.48-.61.86-.51.38.1.61.48.51.86-.79,3.12-3.21,5.54-6.33,6.33-.06.01-.12.02-.17.02Z"/><path class="cls-1" d="m44.6,14.64c-.06,0-.12,0-.17-.02-3.12-.79-5.54-3.21-6.33-6.33-.1-.38.13-.77.51-.86.38-.1.77.13.86.51.66,2.61,2.69,4.64,5.3,5.3.38.1.61.48.51.86-.08.32-.37.54-.69.54Z"/><path class="cls-1" d="m38.69,31.83s-.09,0-.14-.01c-.38-.08-.64-.45-.56-.83.65-3.3,3.17-5.97,6.44-6.79.38-.1.77.13.86.51s-.13.77-.51.86c-2.74.69-4.85,2.93-5.4,5.69-.07.34-.36.57-.7.57Z"/><path class="cls-1" d="m9.21,31.83c-.32,0-.61-.21-.69-.54-.66-2.61-2.69-4.64-5.3-5.3-.38-.1-.61-.48-.51-.86.1-.38.48-.61.86-.51,3.12.79,5.54,3.21,6.33,6.33.1.38-.13.77-.51.86-.06.01-.12.02-.17.02Z"/><path class="cls-2" d="m45.81,34.51H2.19c-1.21,0-2.19-.98-2.19-2.19V6.91c0-1.21.98-2.19,2.19-2.19h43.61c1.21,0,2.19.98,2.19,2.19v25.41c0,1.21-.98,2.19-2.19,2.19ZM2.19,6.14c-.43,0-.77.35-.77.77v25.41c0,.43.35.77.77.77h43.61c.43,0,.77-.35.77-.77V6.91c0-.43-.35-.77-.77-.77H2.19Z"/><path class="cls-1" d="m47.29,38.9H.71c-.39,0-.71-.32-.71-.71s.32-.71.71-.71h46.58c.39,0,.71.32.71.71s-.32.71-.71.71Z"/><path class="cls-1" d="m47.29,43.28H.71c-.39,0-.71-.32-.71-.71s.32-.71.71-.71h46.58c.39,0,.71.32.71.71s-.32.71-.71.71Z"/></svg>