<?xml version="1.0" encoding="UTF-8"?><svg id="Calque_1" xmlns="http://www.w3.org/2000/svg" viewBox="0 0 48 48"><defs><style>.cls-1{fill:#bc955b;}.cls-1,.cls-2{stroke-width:0px;}</style></defs><path class="cls-1" d="m40.53,29.22c-.39,0-.71-.32-.71-.71,0-.02-.02-.04-.04-.04h-1.07c-.59,0-1.12-.35-1.35-.9l-1.65-3.99c-.23-.55-.1-1.17.32-1.59l.76-.76-3.19-3.25-.81.76c-.42.42-1.05.54-1.59.32l-3.99-1.65c-.55-.23-.9-.76-.9-1.35v-1.07l-4.55-.04-.04,1.11c0,.59-.35,1.12-.9,1.35l-3.99,1.65c-.55.23-1.17.1-1.59-.32l-.76-.76-3.25,3.19.76.81c.42.42.54,1.04.32,1.59l-1.65,3.99c-.23.55-.76.9-1.35.9h-1.07c0,.39-.34.73-.73.73s-.73-.3-.73-.69c0-.81.66-1.46,1.46-1.46h1.07l1.69-4.01-.76-.8c-.57-.57-.57-1.5,0-2.07l3.19-3.19c.57-.57,1.5-.57,2.07,0l.76.76,4.03-1.64.03-1.11c0-.81.66-1.46,1.46-1.46h4.51c.81,0,1.46.66,1.46,1.46v1.07l4.01,1.69.8-.76c.57-.57,1.49-.57,2.07,0l3.19,3.19c.57.57.57,1.5,0,2.07l-.76.76,1.64,4.03,1.11.03c.81,0,1.46.66,1.46,1.46,0,.39-.32.71-.71.71Z"/><path class="cls-2" d="m26.25,48h-4.51c-.81,0-1.46-.66-1.46-1.46v-1.07l-4.01-1.69-.8.76c-.57.57-1.5.57-2.07,0l-3.19-3.19c-.57-.57-.57-1.5,0-2.07l.76-.76-1.64-4.03-1.86-.03c-.39,0-.71-.32-.71-.71s.32-.71.71-.71h1.82c.59,0,1.12.35,1.35.9l1.65,3.99c.23.55.1,1.17-.32,1.59l-.76.76,3.19,3.25.81-.76c.42-.42,1.04-.54,1.59-.32l3.99,1.65c.55.23.9.76.9,1.35v1.07l4.55.04.04-1.11c0-.59.35-1.12.9-1.35l3.99-1.65c.55-.23,1.17-.1,1.59.32l.76.76,3.25-3.19-.76-.81c-.42-.42-.54-1.05-.32-1.59l1.65-3.99c.23-.55.76-.9,1.35-.9h1.82c.39,0,.71.32.71.71s-.32.71-.71.71h-1.82l-1.69,4.01.76.8c.57.57.57,1.5,0,2.07l-3.19,3.19c-.57.57-1.5.57-2.07,0l-.76-.76-4.03,1.64-.03,1.11c0,.81-.66,1.46-1.46,1.46Z"/><path class="cls-1" d="m24,38.98c-4.53,0-8.22-3.69-8.22-8.22s3.69-8.22,8.22-8.22,8.22,3.69,8.22,8.22-3.69,8.22-8.22,8.22Zm0-15.03c-3.75,0-6.8,3.05-6.8,6.8s3.05,6.8,6.8,6.8,6.8-3.05,6.8-6.8-3.05-6.8-6.8-6.8Z"/><path class="cls-2" d="m45.79,34.48h-5.26c-.39,0-.71-.32-.71-.71s.32-.71.71-.71h5.26c.44,0,.79-.36.79-.79V2.21c0-.44-.36-.79-.79-.79H2.21c-.44,0-.79.36-.79.79v30.05c0,.44.36.79.79.79h5.26c.39,0,.71.32.71.71s-.32.71-.71.71H2.21c-1.22,0-2.21-.99-2.21-2.21V2.21C0,.99.99,0,2.21,0h43.57c1.22,0,2.21.99,2.21,2.21v30.05c0,1.22-.99,2.21-2.21,2.21Z"/><path class="cls-2" d="m47.29,10.44H.71c-.39,0-.71-.32-.71-.71s.32-.71.71-.71h46.58c.39,0,.71.32.71.71s-.32.71-.71.71Z"/><circle class="cls-1" cx="5.22" cy="5.22" r=".75"/><circle class="cls-1" cx="10.48" cy="5.22" r=".75"/><circle class="cls-1" cx="15.74" cy="5.22" r=".75"/></svg>