<?xml version="1.0" encoding="UTF-8"?><svg id="Calque_1" xmlns="http://www.w3.org/2000/svg" viewBox="0 0 48 48"><defs><style>.cls-1{fill:#bc955b;}.cls-1,.cls-2{stroke-width:0px;}</style></defs><path class="cls-1" d="m12.07,46.83c-1.66,0-3.11-.67-3.72-1-1.21-.64-1.95-1.36-1.98-1.39-.15-.15-.23-.35-.21-.56s.12-.4.29-.52c.03-.02.67-.49,1.69-.93.36-.16.78,0,.93.37.16.36,0,.78-.37.93-.22.1-.42.19-.6.28.25.18.56.37.91.56,1.24.67,2.64.96,3.75.77,1.05-.17,2.01-.71,2.86-1.61.16-.17.3-.34.42-.49-.17-.04-.35-.08-.55-.12-.38-.08-.63-.45-.56-.84.08-.39.45-.63.84-.56.96.19,1.6.41,1.63.42.2.07.36.22.43.41.08.19.07.41-.03.6-.02.03-.4.74-1.15,1.55-1.07,1.14-2.3,1.83-3.67,2.05-.31.05-.62.07-.92.07Z"/><path class="cls-1" d="m7.79,40.78c-.52,0-1.03-.07-1.53-.2-1.99-.53-3.36-2.1-3.86-2.75-.84-1.08-1.22-2.04-1.24-2.08-.08-.19-.06-.41.04-.6.1-.18.28-.31.48-.36.03,0,.82-.16,1.92-.15.39,0,.71.33.7.72,0,.39-.33.67-.72.7-.24,0-.46,0-.66.01.16.26.36.57.6.89.85,1.12,2.01,1.95,3.1,2.25,1.03.28,2.13.18,3.27-.3.22-.09.41-.19.59-.28-.13-.1-.29-.22-.45-.33-.32-.23-.39-.67-.16-.99.23-.32.67-.39.99-.16.8.57,1.3,1.03,1.32,1.05.15.14.24.34.23.55,0,.21-.11.4-.27.53-.03.02-.67.51-1.68.94-.9.38-1.79.57-2.66.57Z"/><path class="cls-1" d="m6.84,33.55c-.07,0-.15,0-.22,0-1.56-.04-2.9-.52-3.97-1.4-1.59-1.3-2.19-3.29-2.38-4.09C-.05,26.74,0,25.71,0,25.66c.01-.21.11-.4.28-.53.17-.13.38-.18.58-.13.03,0,.81.18,1.81.65.35.17.51.59.34.94-.17.36-.59.51-.94.34-.22-.1-.42-.19-.61-.26.03.3.09.66.18,1.05.32,1.37,1.03,2.61,1.9,3.32.82.68,1.86,1.04,3.1,1.08.24,0,.46,0,.65-.01-.08-.15-.17-.31-.27-.49-.2-.34-.08-.77.26-.97.34-.19.78-.08.97.26.49.85.76,1.47.77,1.5.08.19.07.41-.02.6-.09.19-.27.32-.47.37-.03,0-.72.17-1.7.17Z"/><path class="cls-1" d="m7.83,26.55s-.09,0-.13-.01c-.03,0-.83-.16-1.82-.64-1.41-.68-2.43-1.66-3.04-2.9-.92-1.85-.64-3.91-.48-4.71.26-1.34.73-2.26.75-2.3.1-.19.27-.32.47-.37.21-.05.42,0,.58.12.03.02.66.5,1.38,1.34.25.3.22.75-.08,1-.3.25-.75.22-1-.08-.16-.18-.31-.35-.45-.49-.09.29-.19.64-.27,1.04-.27,1.38-.14,2.8.36,3.81.47.95,1.27,1.71,2.39,2.25.21.1.41.19.59.26-.01-.17-.03-.36-.05-.56-.04-.39.24-.74.63-.78.38-.04.74.24.78.63.1.97.09,1.65.09,1.68,0,.21-.1.41-.26.54-.13.1-.29.16-.45.16Z"/><path class="cls-1" d="m10.14,20.1c-.15,0-.29-.04-.41-.13-.03-.02-.68-.49-1.39-1.33-1-1.2-1.53-2.52-1.57-3.9-.07-2.06,1.02-3.83,1.5-4.49.78-1.12,1.59-1.76,1.62-1.79.16-.13.38-.18.58-.14.21.04.38.17.48.35.02.03.4.73.71,1.79.11.38-.11.77-.48.88-.38.11-.77-.11-.88-.48-.07-.23-.14-.44-.21-.63-.21.23-.44.51-.67.83-.81,1.14-1.27,2.49-1.23,3.62.03,1.06.45,2.08,1.24,3.04.15.18.3.34.44.48.06-.16.12-.34.19-.53.12-.37.53-.57.9-.45.37.13.57.53.45.9-.31.93-.61,1.54-.62,1.57-.09.19-.26.33-.46.38-.06.02-.12.02-.18.02Z"/><path class="cls-1" d="m37.86,20.1c-.06,0-.12,0-.18-.02-.2-.05-.37-.19-.46-.38-.01-.03-.31-.64-.62-1.57-.12-.37.08-.77.45-.9.37-.12.78.07.9.45.06.19.13.37.19.53.14-.14.29-.3.44-.48.79-.95,1.21-1.97,1.24-3.03.04-1.13-.42-2.48-1.23-3.62-.23-.33-.46-.61-.67-.84-.07.19-.14.4-.21.63-.11.38-.5.59-.88.48-.38-.11-.59-.5-.48-.88.31-1.06.7-1.76.71-1.79.1-.18.28-.31.48-.35.21-.04.42.01.58.14.03.03.84.67,1.62,1.79.47.66,1.56,2.43,1.49,4.49-.04,1.38-.57,2.69-1.57,3.9-.71.85-1.37,1.32-1.39,1.34-.12.09-.26.13-.41.13Z"/><path class="cls-1" d="m40.17,26.55c-.16,0-.32-.05-.45-.16-.16-.13-.26-.33-.26-.54,0-.03-.01-.71.09-1.68.04-.39.4-.68.78-.63.39.04.67.39.63.78-.02.2-.04.39-.05.56.18-.07.38-.15.6-.26,1.11-.54,1.92-1.29,2.38-2.25.5-1.01.64-2.44.37-3.81-.08-.4-.17-.75-.27-1.04-.14.14-.29.3-.45.49-.25.3-.7.33-1,.08-.3-.26-.33-.7-.08-1,.72-.84,1.36-1.32,1.38-1.34.17-.13.38-.17.58-.12.2.05.38.18.47.37.02.04.49.96.75,2.31.16.8.43,2.86-.49,4.71-.61,1.24-1.63,2.22-3.04,2.9-1,.48-1.79.63-1.82.64-.04,0-.09.01-.13.01Z"/><path class="cls-1" d="m41.17,33.55c-.99,0-1.67-.16-1.7-.17-.2-.05-.38-.18-.47-.37-.09-.19-.1-.41-.02-.6.01-.03.28-.65.77-1.5.2-.34.63-.46.97-.26.34.2.46.63.26.97-.1.17-.19.34-.27.49.19.01.42.02.65.01,1.24-.03,2.28-.4,3.1-1.07.87-.72,1.58-1.96,1.9-3.32.09-.39.15-.75.19-1.06-.18.07-.39.16-.61.26-.35.17-.78.01-.94-.34-.17-.36-.01-.78.34-.94,1.01-.47,1.78-.64,1.81-.65.21-.05.42,0,.58.13.17.13.27.32.28.53,0,.04.05,1.08-.27,2.4-.19.79-.79,2.78-2.38,4.09-1.07.88-2.4,1.35-3.96,1.4-.08,0-.15,0-.22,0Z"/><path class="cls-1" d="m40.21,40.77c-.87,0-1.75-.19-2.66-.57-1.02-.43-1.66-.92-1.68-.94-.17-.13-.27-.32-.28-.53,0-.21.07-.41.23-.55.02-.02.52-.48,1.32-1.05.32-.23.76-.15.99.16.23.32.16.76-.16.99-.16.12-.32.23-.45.33.17.09.37.19.59.28,1.14.48,2.24.58,3.26.3,1.09-.29,2.25-1.13,3.1-2.24.25-.32.45-.63.61-.89-.2-.01-.42-.02-.66-.01h0c-.39,0-.7-.31-.71-.7,0-.39.31-.71.7-.72,1.08-.01,1.89.14,1.92.15.2.04.38.17.48.36.1.18.11.4.04.6-.02.04-.4,1-1.24,2.09-.49.65-1.86,2.21-3.86,2.75-.5.14-1.01.2-1.53.2Z"/><path class="cls-1" d="m35.93,46.83c-.3,0-.61-.02-.93-.07-1.37-.22-2.6-.9-3.67-2.05-.75-.81-1.13-1.52-1.15-1.55-.1-.18-.11-.4-.03-.6.08-.19.24-.34.43-.41.03,0,.67-.22,1.63-.42.39-.08.76.17.84.56.08.38-.17.76-.56.84-.2.04-.38.08-.55.12.12.15.26.32.42.5.84.9,1.8,1.45,2.85,1.61,1.11.18,2.51-.11,3.75-.77.36-.19.66-.38.91-.56-.17-.09-.38-.19-.59-.28-.36-.16-.52-.57-.37-.93.16-.36.58-.53.93-.37,1.02.44,1.66.91,1.69.93.17.12.27.31.29.52.01.21-.06.41-.21.56-.03.03-.77.75-1.98,1.39-.61.33-2.05.99-3.71.99Z"/><path class="cls-1" d="m30.02,12.76h-12.03c-.33,0-.62-.23-.69-.56l-1.71-7.93c-.06-.29.06-.59.32-.75.25-.16.58-.14.82.05l4.02,3.19,2.64-5.2c.24-.48,1.03-.48,1.27,0l2.64,5.2,4.02-3.19c.24-.19.56-.2.82-.05.25.16.38.46.32.75l-1.71,7.93c-.07.33-.36.56-.69.56Zm-11.46-1.42h10.89l1.17-5.43-3.15,2.5c-.17.13-.39.18-.59.14-.21-.05-.39-.18-.48-.37l-2.4-4.73-2.4,4.73c-.1.19-.27.33-.48.37-.21.05-.42,0-.59-.14l-3.14-2.5,1.17,5.43Z"/><path class="cls-1" d="m28.52,35.64c-.31,0-.63-.1-.9-.3l-3.57-2.61-3.57,2.61c-.54.4-1.25.4-1.79,0-.54-.4-.76-1.07-.55-1.71l1.38-4.2-3.58-2.59c-.55-.39-.76-1.06-.56-1.7.21-.64.78-1.05,1.45-1.05h4.43s1.36-4.2,1.36-4.2c.21-.64.78-1.06,1.45-1.06h0c.67,0,1.24.42,1.45,1.06l1.36,4.21h4.42s0-.01,0-.01c.67,0,1.24.41,1.45,1.05.21.64,0,1.31-.56,1.71l-3.58,2.59,1.38,4.2c.21.64,0,1.31-.55,1.71-.27.2-.58.3-.9.3Zm-11.7-10.13s-.07,0-.1.07c-.02.07.02.1.04.12l4,2.9c.25.18.35.5.26.8l-1.54,4.69s-.02.07.04.12c.06.04.1.01.12,0l3.99-2.91c.25-.18.59-.18.84,0l3.99,2.91s.06.04.12,0c.06-.04.05-.09.04-.12l-1.54-4.69c-.1-.29,0-.62.26-.8l4-2.89s.06-.04.04-.12c-.02-.07-.07-.07-.1-.07h-4.94s0,.01,0,.01c-.31,0-.58-.2-.68-.49l-1.52-4.7s-.02-.07-.1-.07h0c-.08,0-.09.05-.1.07l-1.51,4.7c-.09.29-.37.49-.68.49h-4.94s0-.01,0-.01Z"/><path class="cls-2" d="m24,40.96c-7.19,0-13.03-5.85-13.03-13.03s5.85-13.03,13.03-13.03,13.03,5.85,13.03,13.03-5.85,13.03-13.03,13.03Zm0-24.65c-6.4,0-11.61,5.21-11.61,11.61s5.21,11.61,11.61,11.61,11.61-5.21,11.61-11.61-5.21-11.61-11.61-11.61Z"/></svg>