<?xml version="1.0" encoding="UTF-8"?><svg id="Calque_1" xmlns="http://www.w3.org/2000/svg" viewBox="0 0 48 48"><defs><style>.cls-1{fill:#bc955b;}.cls-1,.cls-2{stroke-width:0px;}</style></defs><path class="cls-1" d="m39.52,45.96h-15.55c-.25,0-.49-.14-.62-.35l-7.77-13.46c-.13-.22-.13-.49,0-.71l7.77-13.46c.13-.22.36-.35.62-.35h15.55c.25,0,.49.14.62.35l7.77,13.46c.13.22.13.49,0,.71l-7.77,13.46c-.13.22-.36.35-.62.35Zm-15.14-1.42h14.73l7.36-12.75-7.36-12.75h-14.73l-7.36,12.75,7.36,12.75Z"/><path class="cls-1" d="m10.48,35.67h-3.7c-.25,0-.49-.14-.62-.35l-1.85-3.2c-.13-.22-.13-.49,0-.71l1.85-3.2c.13-.22.36-.35.62-.35h3.7c.25,0,.49.14.62.35l1.85,3.2c.13.22.13.49,0,.71l-1.85,3.2c-.13.22-.36.35-.62.35Zm-3.29-1.42h2.88l1.44-2.49-1.44-2.49h-2.88l-1.44,2.49,1.44,2.49Z"/><path class="cls-2" d="m13.78,25.4H5.07c-.25,0-.49-.14-.62-.35L.09,17.5c-.13-.22-.13-.49,0-.71l4.36-7.54c.13-.22.36-.35.62-.35h8.71c.25,0,.49.14.62.35l4.36,7.54c.13.22.13.49,0,.71l-4.36,7.54c-.13.22-.36.35-.62.35Zm-8.3-1.42h7.89l3.95-6.83-3.95-6.83h-7.89l-3.95,6.83,3.95,6.83Z"/><path class="cls-1" d="m27.61,14.79h-6.54c-.25,0-.49-.14-.62-.35l-3.27-5.66c-.13-.22-.13-.49,0-.71l3.27-5.66c.13-.22.36-.35.62-.35h6.54c.25,0,.49.14.62.35l3.27,5.66c.13.22.13.49,0,.71l-3.27,5.66c-.13.22-.36.35-.62.35Zm-6.13-1.42h5.72l2.86-4.95-2.86-4.95h-5.72l-2.86,4.95,2.86,4.95Z"/></svg>