<?xml version="1.0" encoding="UTF-8"?><svg id="Calque_1" xmlns="http://www.w3.org/2000/svg" viewBox="0 0 48 48"><defs><style>.cls-1{fill:#bc955b;}.cls-1,.cls-2{stroke-width:0px;}</style></defs><path class="cls-2" d="m10.16,12.75c-.23,0-.45-.12-.59-.31l-2.2-3.21c-.22-.32-.14-.77.18-.99.32-.22.76-.14.99.18l1.61,2.36,3.08-4.49c.22-.32.66-.41.99-.18.32.22.41.66.18.99l-3.66,5.34c-.13.19-.35.31-.59.31Z"/><path class="cls-1" d="m26.54,10.08h-8.1c-.39,0-.71-.32-.71-.71s.32-.71.71-.71h8.1c.39,0,.71.32.71.71s-.32.71-.71.71Z"/><path class="cls-2" d="m10.16,32.09c-.23,0-.45-.12-.59-.31l-2.2-3.21c-.22-.32-.14-.77.18-.99.32-.22.76-.14.99.18l1.61,2.36,3.08-4.49c.22-.32.66-.41.99-.18.32.22.41.66.18.99l-3.66,5.34c-.13.19-.35.31-.59.31Z"/><path class="cls-2" d="m10.16,22.42c-.23,0-.45-.12-.59-.31l-2.2-3.21c-.22-.32-.14-.77.18-.99.32-.22.76-.14.99.18l1.61,2.36,3.08-4.49c.22-.32.66-.41.99-.18.32.22.41.66.18.99l-3.66,5.34c-.13.19-.35.31-.59.31Z"/><path class="cls-1" d="m26.54,19.75h-8.1c-.39,0-.71-.32-.71-.71s.32-.71.71-.71h8.1c.39,0,.71.32.71.71s-.32.71-.71.71Z"/><path class="cls-1" d="m17.28,38.91H3.04c-.99,0-1.79-.77-1.79-1.72V1.72c0-.95.8-1.72,1.79-1.72h28.96c.99,0,1.79.77,1.79,1.72v15.23c0,.39-.32.71-.71.71s-.71-.32-.71-.71V1.72c0-.16-.17-.3-.37-.3H3.04c-.2,0-.37.14-.37.3v35.47c0,.16.17.3.37.3h14.23c.39,0,.71.32.71.71s-.32.71-.71.71Z"/><path class="cls-2" d="m31.12,48c-.61,0-1.17-.45-1.29-1.06l-.72-3.39c-.02-.06-.1-.18-.16-.2l-2.23-1.28c-.1-.06-.24-.08-.3-.07l-3.31,1.08c-.57.19-1.24-.06-1.55-.59l-1.96-3.4c-.31-.53-.19-1.24.27-1.64l2.58-2.32s.1-.18.1-.24v-2.57c0-.12-.05-.25-.09-.29l-2.59-2.33c-.45-.4-.57-1.1-.26-1.63l1.96-3.4c.31-.53.98-.78,1.56-.58l3.3,1.07c.07.02.21,0,.26-.03l2.23-1.29c.1-.06.19-.17.21-.22l.72-3.41c.12-.59.67-1.05,1.28-1.05h3.94c.61,0,1.16.45,1.28,1.05l.72,3.4c.02.06.1.18.16.2l2.23,1.28c.1.06.24.08.3.07l3.32-1.08c.57-.19,1.24.06,1.55.59l1.96,3.41c.31.53.19,1.24-.27,1.64l-2.58,2.32s-.1.18-.1.24v2.58c0,.12.05.25.09.29l2.59,2.33c.45.4.57,1.11.26,1.64l-1.96,3.4c-.31.53-.97.78-1.56.59l-3.3-1.07c-.06-.02-.21,0-.26.03l-2.23,1.29c-.1.06-.19.17-.21.22l-.72,3.41c-.12.59-.67,1.05-1.28,1.05h-3.94Zm3.83-1.34h0s0,0,0,0Zm-3.73,0h0s0,0,0,0Zm-4.74-6.08c.36,0,.74.1,1.01.3l2.13,1.22c.4.18.79.69.89,1.18l.7,3.31h3.76s.7-3.32.7-3.32c.1-.48.49-.99.95-1.2l2.12-1.23c.36-.25.99-.34,1.46-.18l3.22,1.04,1.87-3.25-2.52-2.27c-.37-.32-.61-.92-.56-1.42v-2.45c-.04-.43.2-1.03.57-1.36l2.52-2.27-1.88-3.25-3.23,1.05c-.46.16-1.1.07-1.51-.22l-2.13-1.22c-.4-.18-.79-.69-.89-1.18l-.7-3.31h-3.76l-.7,3.32c-.09.48-.49.99-.94,1.2l-2.12,1.23c-.36.25-.99.34-1.46.18l-3.22-1.04-1.87,3.25,2.52,2.28c.37.32.61.92.56,1.42v2.45c.04.43-.19,1.03-.57,1.36l-2.52,2.27,1.88,3.25,3.23-1.05c.15-.05.32-.08.5-.08Zm-3.81,1.15s0,0,0,0h0Zm20.82,0h0s0,0,0,0Zm1.86-3.22h0s0,0,0,0Zm-24.54,0h0s0,0,0,0Zm24.54-9.87s0,0,0,0h0Zm-24.55-.01h0s0,0,0,0Zm1.86-3.21s0,0,0,0h0Zm20.84,0h0s0,0,0,0Zm-12.28-4.94h0s0,0,0,0Zm3.72,0s0,0,0,0c0,0,0,0,0,0Z"/><path class="cls-2" d="m33.09,39.05c-3.02,0-5.48-2.46-5.48-5.48s2.46-5.48,5.48-5.48c.39,0,.71.32.71.71s-.32.71-.71.71c-2.24,0-4.06,1.82-4.06,4.06s1.82,4.06,4.06,4.06,4.06-1.82,4.06-4.06c0-.39.32-.71.71-.71s.71.32.71.71c0,3.02-2.46,5.48-5.48,5.48Z"/></svg>