<?xml version="1.0" encoding="UTF-8"?><svg id="Calque_1" xmlns="http://www.w3.org/2000/svg" viewBox="0 0 48 48"><defs><style>.cls-1{fill:#bc955b;}.cls-1,.cls-2{stroke-width:0px;}</style></defs><path class="cls-1" d="m24,48C10.77,48,0,37.23,0,24S10.77,0,24,0s24,10.77,24,24-10.77,24-24,24Zm0-46.58C11.55,1.42,1.42,11.55,1.42,24s10.13,22.58,22.58,22.58,22.58-10.13,22.58-22.58S36.45,1.42,24,1.42Z"/><path class="cls-1" d="m24,48C10.77,48,0,37.23,0,24S10.77,0,24,0s24,10.77,24,24-10.77,24-24,24Zm0-46.58C11.55,1.42,1.42,11.55,1.42,24s10.13,22.58,22.58,22.58,22.58-10.13,22.58-22.58S36.45,1.42,24,1.42Z"/><path class="cls-2" d="m24,41.01c-9.38,0-17.01-7.63-17.01-17.01S14.62,6.99,24,6.99s17.01,7.63,17.01,17.01-7.63,17.01-17.01,17.01Zm0-32.61c-8.6,0-15.59,7-15.59,15.59s7,15.59,15.59,15.59,15.59-7,15.59-15.59-7-15.59-15.59-15.59Z"/><path class="cls-2" d="m24,34.49c-5.79,0-10.49-4.71-10.49-10.49,0-1.91.53-3.79,1.53-5.44.15-.24.43-.38.7-.33.28.04.51.24.59.51.24.85,1.01,1.45,1.89,1.45,1.09,0,1.97-.88,1.97-1.97,0-.87-.59-1.65-1.45-1.89-.27-.08-.47-.31-.51-.59-.04-.28.09-.56.33-.7,1.65-1,3.53-1.53,5.44-1.53,5.79,0,10.49,4.71,10.49,10.49s-4.71,10.49-10.49,10.49Zm-8.33-14.06c-.49,1.13-.74,2.34-.74,3.56,0,5,4.07,9.07,9.07,9.07s9.07-4.07,9.07-9.07-4.07-9.07-9.07-9.07c-1.23,0-2.44.25-3.57.74.73.63,1.17,1.55,1.17,2.55,0,1.87-1.52,3.39-3.39,3.39-1,0-1.92-.45-2.55-1.17Z"/></svg>