<?xml version="1.0" encoding="UTF-8"?><svg id="Calque_1" xmlns="http://www.w3.org/2000/svg" viewBox="0 0 48 48"><defs><style>.cls-1{fill:#bc955b;}.cls-1,.cls-2{stroke-width:0px;}</style></defs><path class="cls-1" d="m21.56,48c-.72,0-1.38-.53-1.53-1.23l-1.22-4.39c-.04-.18-.24-.39-.37-.44l-3.17-1.31c-.17-.08-.46-.07-.58,0l-4.03,2.28c-.57.37-1.41.28-1.92-.23l-3.44-3.44c-.5-.5-.59-1.36-.21-1.95l2.24-3.97c.1-.15.11-.44.05-.57l-1.31-3.17c-.06-.18-.28-.37-.42-.4l-4.46-1.24C.53,27.79,0,27.14,0,26.42v-4.86c0-.72.53-1.38,1.23-1.53l4.39-1.22c.18-.04.39-.23.44-.37l1.32-3.17c.08-.17.07-.46,0-.58l-2.28-4.03c-.37-.57-.28-1.41.23-1.92l3.44-3.44c.5-.5,1.36-.59,1.95-.21l3.97,2.24c.15.1.44.11.57.05l3.17-1.31c.18-.06.37-.28.4-.42l1.24-4.46C20.2.54,20.88,0,21.58,0h4.86c.72,0,1.37.53,1.53,1.23l1.22,4.39c.04.18.24.39.37.44l3.17,1.32c.17.08.46.07.58,0l4.03-2.28c.56-.36,1.42-.27,1.92.23l3.44,3.44c.5.5.59,1.36.21,1.95l-2.24,3.97c-.1.15-.11.44-.05.57l1.31,3.17c.06.18.28.37.42.4l4.46,1.24c.66.15,1.19.8,1.19,1.52v4.86c0,.72-.53,1.38-1.23,1.53l-4.39,1.22c-.18.04-.39.24-.44.37l-1.31,3.17c-.08.17-.07.46,0,.58l2.28,4.03c.37.57.28,1.41-.23,1.92l-3.44,3.44c-.5.5-1.35.59-1.95.21l-3.97-2.24c-.15-.1-.44-.11-.57-.05l-3.17,1.31s-.03.01-.04.02c-.13.04-.33.26-.36.4l-1.24,4.46c-.14.65-.81,1.19-1.52,1.19h-4.86Zm-6.57-8.86c.3,0,.61.06.87.19l3.08,1.28c.56.19,1.11.8,1.25,1.42l1.22,4.39c.02.08.11.15.15.15h4.86s.13-.07.14-.12l1.24-4.46c.13-.58.66-1.18,1.26-1.39l3.11-1.29c.53-.26,1.35-.22,1.89.13l3.97,2.24c.07.04.18.03.21,0l3.44-3.44s.04-.14.02-.18l-2.28-4.03c-.33-.51-.37-1.32-.08-1.9l1.28-3.08c.19-.56.8-1.11,1.42-1.25l4.39-1.22c.08-.02.15-.11.15-.15v-4.86s-.07-.13-.12-.14l-4.46-1.24c-.59-.13-1.2-.67-1.4-1.28l-1.28-3.08c-.26-.53-.22-1.35.13-1.89l2.24-3.97c.04-.07.03-.18,0-.21l-3.44-3.44s-.15-.04-.18-.02l-4.03,2.28c-.51.33-1.32.37-1.9.08l-3.08-1.28c-.56-.19-1.11-.8-1.25-1.42l-1.22-4.39c-.02-.08-.11-.15-.15-.15h-4.86s-.13.07-.14.12l-1.24,4.46c-.13.59-.67,1.2-1.28,1.4l-3.08,1.28c-.53.27-1.35.22-1.89-.13l-3.97-2.24c-.07-.04-.18-.03-.21,0l-3.44,3.44s-.04.14-.02.18l2.28,4.03c.33.51.37,1.32.08,1.9l-1.28,3.08c-.19.56-.8,1.11-1.42,1.25l-4.39,1.22c-.08.02-.15.11-.15.15v4.86s.07.13.12.14l4.46,1.24c.59.13,1.2.67,1.4,1.28l1.27,3.08c.27.53.22,1.35-.13,1.89l-2.24,3.97c-.04.07-.03.18,0,.21l3.44,3.44s.14.04.18.02l4.03-2.28c.28-.18.65-.27,1.03-.27Zm14.32,2.13h0,0Z"/><path class="cls-2" d="m24,37.33c-7.35,0-13.33-5.98-13.33-13.33s5.98-13.33,13.33-13.33,13.33,5.98,13.33,13.33-5.98,13.33-13.33,13.33Zm0-25.23c-6.57,0-11.91,5.34-11.91,11.91s5.34,11.91,11.91,11.91,11.91-5.34,11.91-11.91-5.34-11.91-11.91-11.91Z"/><path class="cls-2" d="m24,26.91c-.75,0-1.49-.28-2.06-.85-.55-.55-.85-1.28-.85-2.06s.3-1.51.85-2.06c.28-.28.73-.28,1,0s.28.73,0,1-.44.66-.44,1.06.16.77.44,1.05c.58.58,1.53.58,2.11,0,.58-.58.58-1.53,0-2.11-.28-.28-.28-.73,0-1,.28-.28.73-.28,1,0,1.13,1.14,1.13,2.98,0,4.12-.57.57-1.31.85-2.06.85Z"/><path class="cls-2" d="m22.44,23.15c-.18,0-.36-.07-.5-.21l-5.08-5.08c-.28-.28-.28-.73,0-1s.73-.28,1,0l5.08,5.08c.28.28.28.73,0,1-.14.14-.32.21-.5.21Z"/><path class="cls-2" d="m25.56,23.15c-.18,0-.36-.07-.5-.21-.28-.28-.28-.73,0-1l3.7-3.7c.28-.28.73-.28,1,0s.28.73,0,1l-3.7,3.7c-.14.14-.32.21-.5.21Z"/></svg>