<?xml version="1.0" encoding="UTF-8"?><svg id="Calque_1" xmlns="http://www.w3.org/2000/svg" viewBox="0 0 48 48"><defs><style>.cls-1{fill:#bc955b;}.cls-1,.cls-2{stroke-width:0px;}</style></defs><path class="cls-2" d="m33.3,39.97H15.85c-.39,0-.71-.32-.71-.71s.32-.71.71-.71h17.17l13.23-12.46c-1.82-1.53-3.56-1.52-5.59,0-2.77,2.08-5.33,3.9-5.36,3.92-.32.23-.76.15-.99-.17-.23-.32-.15-.76.17-.99.03-.02,2.58-1.83,5.33-3.9,2.78-2.09,5.47-1.88,7.98.63.14.14.21.32.21.51s-.08.37-.22.51l-13.99,13.18c-.13.12-.31.19-.49.19Z"/><path class="cls-2" d="m33.52,34.4h-10.94c-.39,0-.71-.32-.71-.71s.32-.71.71-.71h10.2c-.26-2.7-2.05-3.01-2.85-3.01h-5.2c-.14,0-.28-.04-.4-.12-2.33-1.56-3.7-1.84-6.38-1.84-3.01,0-5.45,1.44-8.41,4.97-.25.3-.7.34-1,.09-.3-.25-.34-.7-.09-1,3.26-3.89,6.02-5.47,9.5-5.47,2.75,0,4.44.29,6.99,1.96h4.99c1.98,0,4.3,1.35,4.3,5.14,0,.39-.32.71-.71.71Z"/><path class="cls-1" d="m11.78,47.59c-.18,0-.36-.07-.5-.21-.28-.28-.28-.73,0-1l3.4-3.4-10.06-10.06-3.4,3.4c-.28.28-.73.28-1,0s-.28-.73,0-1l3.9-3.9c.27-.27.74-.27,1,0l11.07,11.07c.28.28.28.73,0,1l-3.9,3.9c-.14.14-.32.21-.5.21Z"/><path class="cls-2" d="m4.44,37.05c-.4.4-.4,1.04,0,1.44.4.4,1.04.4,1.44,0s.4-1.04,0-1.44c-.4-.4-1.04-.4-1.44,0Z"/><g id="Interface_Heart_01"><path class="cls-1" d="m29.66,26.29c-.12,0-.24-.03-.34-.09-.58-.32-14.16-7.98-14.16-17.48,0-5.12,3.06-7.57,5.92-8.16,3.37-.69,6.73.87,8.58,3.85,1.85-2.98,5.21-4.54,8.58-3.85,2.86.58,5.92,3.03,5.92,8.16,0,9.5-13.58,17.16-14.16,17.48-.11.06-.23.09-.34.09ZM22.6,1.83c-.43,0-.85.04-1.25.12-3,.61-4.79,3.14-4.79,6.77,0,7.88,10.98,14.79,13.08,16.04,2.1-1.25,13.08-8.16,13.08-16.04,0-3.62-1.79-6.15-4.79-6.77-2.58-.53-6.07.59-7.64,4.28-.22.52-1.08.52-1.31,0-1.33-3.12-4.04-4.4-6.4-4.4Z"/></g></svg>