<?xml version="1.0" encoding="UTF-8"?><svg id="Calque_1" xmlns="http://www.w3.org/2000/svg" viewBox="0 0 48 48"><defs><style>.cls-1{fill:#bc955b;}.cls-1,.cls-2{stroke-width:0px;}</style></defs><path class="cls-2" d="m43.58,42.43H4.42c-2.44,0-4.42-1.98-4.42-4.42,0-.39.32-.71.71-.71s.71.32.71.71c0,1.66,1.35,3,3,3h39.15c1.66,0,3-1.35,3-3,0-.39.32-.71.71-.71s.71.32.71.71c0,2.44-1.98,4.42-4.42,4.42Z"/><path class="cls-2" d="m25.86,36.71h-3.71c-.39,0-.71-.32-.71-.71s.32-.71.71-.71h3.71c.39,0,.71.32.71.71s-.32.71-.71.71Z"/><path class="cls-1" d="m24,32.7c-.09,0-.18,0-.27,0-.77-.04-1.54-.23-2.24-.56-.7-.33-1.34-.8-1.86-1.37-.52-.57-.92-1.24-1.19-1.98-.27-.74-.38-1.51-.35-2.28.04-.77.23-1.54.56-2.24.33-.7.8-1.34,1.37-1.86.56-.51,1.37-.91,1.46-.95.28-.13.75-.3,1.06-.38.1-.02.99-.25,1.74-.2.76.03,1.54.23,2.24.56h0c.7.33,1.34.8,1.86,1.37.52.57.92,1.24,1.19,1.97.27.74.38,1.51.35,2.28-.04.77-.23,1.54-.56,2.24-.33.7-.8,1.34-1.37,1.86-.57.52-1.24.92-1.97,1.19-.66.23-1.33.35-2.01.35Zm.1-10.41c-.45,0-1.02.12-1.21.17-.22.06-.59.19-.79.29-.19.09-.77.4-1.12.72-.43.39-.79.88-1.04,1.41s-.4,1.12-.42,1.7c-.03.58.06,1.17.26,1.73.2.56.51,1.07.9,1.5.39.43.88.79,1.41,1.04.53.25,1.12.4,1.71.42.58.03,1.17-.06,1.73-.26.56-.2,1.06-.51,1.5-.9.43-.39.79-.88,1.04-1.41.25-.53.4-1.12.42-1.7.03-.59-.06-1.17-.26-1.73-.2-.56-.51-1.07-.9-1.5-.39-.43-.88-.79-1.41-1.04h0c-.53-.25-1.12-.4-1.7-.42-.04,0-.07,0-.11,0Zm13.07,9.76c-.17,0-.34-.06-.48-.18l-2.67-2.41c-.38-.33-.62-.94-.57-1.44v-2.53c-.05-.44.2-1.05.58-1.39l2.61-2.35-1.96-3.39-3.36,1.09c-.47.16-1.12.07-1.54-.22l-2.2-1.27c-.41-.18-.81-.7-.91-1.2l-.73-3.44h-3.92l-.73,3.45c-.1.49-.5,1-.96,1.22l-2.2,1.27c-.36.26-1.01.35-1.49.19l-3.35-1.08-1.96,3.39,2.62,2.36c.37.33.62.94.57,1.44v2.53c.05.44-.2,1.05-.58,1.39l-2.66,2.4c-.29.26-.74.24-1-.05-.26-.29-.24-.74.05-1l2.67-2.4c.05-.05.11-.2.11-.26v-2.66c0-.13-.06-.27-.1-.32l-2.67-2.41c-.46-.4-.58-1.12-.27-1.66l2.03-3.51c.31-.54.99-.8,1.58-.59l3.41,1.1c.07.02.23,0,.28-.04l2.3-1.33c.11-.06.21-.18.22-.25l.75-3.52c.12-.6.68-1.06,1.3-1.06h4.07c.62,0,1.19.46,1.31,1.07l.74,3.5c.02.07.12.2.17.23l2.3,1.33c.11.07.26.09.33.07l3.42-1.11c.58-.2,1.26.06,1.57.6l2.03,3.52c.31.54.19,1.26-.28,1.67l-2.66,2.4c-.05.05-.11.2-.11.26v2.66c0,.13.06.27.1.32l2.67,2.41c.29.26.31.71.05,1-.14.16-.33.23-.53.23Zm-.48-10.24h0s0,0,0,0Zm-25.36,0h0s0,0,0,0Zm25.37-.1h0s0,0,0,0Zm-25.39-.01h0s0,0,0,0Zm1.95-3.36s0,0,0,0h0Zm21.51,0h0s0,0,0,0Zm-8.81-5.08s0,0,0,0h0Zm-3.9,0h0s0,0,0,0Z"/><path class="cls-2" d="m43.58,36.71h-14.77c-.39,0-.71-.32-.71-.71s.32-.71.71-.71h14.06V8.43c0-.79-.64-1.44-1.44-1.44H6.57c-.79,0-1.44.64-1.44,1.44v26.86h14.06c.39,0,.71.32.71.71s-.32.71-.71.71H4.42c-.39,0-.71-.32-.71-.71V8.43c0-1.58,1.28-2.86,2.86-2.86h34.86c1.58,0,2.86,1.28,2.86,2.86v27.57c0,.39-.32.71-.71.71Z"/></svg>