<?xml version="1.0" encoding="UTF-8"?><svg id="Calque_1" xmlns="http://www.w3.org/2000/svg" viewBox="0 0 48 48"><defs><style>.cls-1{fill:#bc955b;}.cls-1,.cls-2{stroke-width:0px;}</style></defs><path class="cls-2" d="m30.45,33.89c-2.56,0-4.65-2.08-4.65-4.65s2.08-4.65,4.65-4.65c.39,0,.71.32.71.71s-.32.71-.71.71c-1.78,0-3.23,1.45-3.23,3.23s1.45,3.23,3.23,3.23,3.23-1.45,3.23-3.23c0-.39.32-.71.71-.71s.71.32.71.71c0,2.56-2.08,4.65-4.65,4.65Z"/><path class="cls-2" d="m30.45,48c-.39,0-.71-.32-.71-.71v-10.5c0-.39.32-.71.71-.71s.71.32.71.71v10.5c0,.39-.32.71-.71.71Z"/><path class="cls-2" d="m30.45,26.02c-.39,0-.71-.32-.71-.71V.71c0-.39.32-.71.71-.71s.71.32.71.71v24.6c0,.39-.32.71-.71.71Z"/><path class="cls-1" d="m17.55,15.12c-2.56,0-4.65-2.08-4.65-4.65s2.08-4.65,4.65-4.65c.39,0,.71.32.71.71s-.32.71-.71.71c-1.78,0-3.23,1.45-3.23,3.23s1.45,3.23,3.23,3.23,3.23-1.45,3.23-3.23c0-.39.32-.71.71-.71s.71.32.71.71c0,2.56-2.08,4.65-4.65,4.65Z"/><path class="cls-1" d="m17.55,7.24c-.39,0-.71-.32-.71-.71V.71c0-.39.32-.71.71-.71s.71.32.71.71v5.82c0,.39-.32.71-.71.71Z"/><path class="cls-1" d="m17.55,48c-.39,0-.71-.32-.71-.71v-29.28c0-.39.32-.71.71-.71s.71.32.71.71v29.28c0,.39-.32.71-.71.71Z"/><path class="cls-2" d="m4.65,39.65c-2.56,0-4.65-2.08-4.65-4.65s2.08-4.65,4.65-4.65c.39,0,.71.32.71.71s-.32.71-.71.71c-1.78,0-3.23,1.45-3.23,3.23s1.45,3.23,3.23,3.23,3.23-1.45,3.23-3.23c0-.39.32-.71.71-.71s.71.32.71.71c0,2.56-2.08,4.65-4.65,4.65Z"/><path class="cls-2" d="m4.65,31.78c-.39,0-.71-.32-.71-.71V.71c0-.39.32-.71.71-.71s.71.32.71.71v30.36c0,.39-.32.71-.71.71Z"/><path class="cls-2" d="m4.65,48c-.39,0-.71-.32-.71-.71v-4.74c0-.39.32-.71.71-.71s.71.32.71.71v4.74c0,.39-.32.71-.71.71Z"/><path class="cls-1" d="m43.35,22.59c-2.56,0-4.65-2.08-4.65-4.65s2.08-4.65,4.65-4.65c.39,0,.71.32.71.71s-.32.71-.71.71c-1.78,0-3.23,1.45-3.23,3.23s1.45,3.23,3.23,3.23,3.23-1.45,3.23-3.23c0-.39.32-.71.71-.71s.71.32.71.71c0,2.56-2.08,4.65-4.65,4.65Z"/><path class="cls-1" d="m43.35,14.71c-.39,0-.71-.32-.71-.71V.71c0-.39.32-.71.71-.71s.71.32.71.71v13.29c0,.39-.32.71-.71.71Z"/><path class="cls-1" d="m43.35,48c-.39,0-.71-.32-.71-.71v-21.81c0-.39.32-.71.71-.71s.71.32.71.71v21.81c0,.39-.32.71-.71.71Z"/></svg>