<?xml version="1.0" encoding="UTF-8"?><svg id="Calque_1" xmlns="http://www.w3.org/2000/svg" viewBox="0 0 48 48"><defs><style>.cls-1{fill:#bc955b;}.cls-1,.cls-2{stroke-width:0px;}</style></defs><path class="cls-1" d="m14.98,12.69c-2.88,0-5.22-2.34-5.22-5.22s2.34-5.22,5.22-5.22,5.22,2.34,5.22,5.22-2.34,5.22-5.22,5.22Zm0-9.02c-2.09,0-3.8,1.7-3.8,3.8s1.7,3.8,3.8,3.8,3.8-1.7,3.8-3.8-1.7-3.8-3.8-3.8Z"/><path class="cls-1" d="m33.02,12.69c-2.88,0-5.22-2.34-5.22-5.22s2.34-5.22,5.22-5.22,5.22,2.34,5.22,5.22-2.34,5.22-5.22,5.22Zm0-9.02c-2.09,0-3.8,1.7-3.8,3.8s1.7,3.8,3.8,3.8,3.8-1.7,3.8-3.8-1.7-3.8-3.8-3.8Z"/><path class="cls-1" d="m42.78,29.22c-2.88,0-5.22-2.34-5.22-5.22s2.34-5.22,5.22-5.22,5.22,2.34,5.22,5.22-2.34,5.22-5.22,5.22Zm0-9.02c-2.09,0-3.8,1.7-3.8,3.8s1.7,3.8,3.8,3.8,3.8-1.7,3.8-3.8-1.7-3.8-3.8-3.8Z"/><path class="cls-1" d="m5.22,29.22c-2.88,0-5.22-2.34-5.22-5.22s2.34-5.22,5.22-5.22,5.22,2.34,5.22,5.22-2.34,5.22-5.22,5.22Zm0-9.02c-2.09,0-3.8,1.7-3.8,3.8s1.7,3.8,3.8,3.8,3.8-1.7,3.8-3.8-1.7-3.8-3.8-3.8Z"/><path class="cls-1" d="m33.39,45.75c-2.67,0-4.84-2.17-4.84-4.84s2.17-4.84,4.84-4.84,4.84,2.17,4.84,4.84-2.17,4.84-4.84,4.84Zm0-8.26c-1.89,0-3.42,1.54-3.42,3.42s1.54,3.42,3.42,3.42,3.42-1.54,3.42-3.42-1.54-3.42-3.42-3.42Z"/><path class="cls-1" d="m14.98,45.75c-2.88,0-5.22-2.34-5.22-5.22s2.34-5.22,5.22-5.22,5.22,2.34,5.22,5.22-2.34,5.22-5.22,5.22Zm0-9.02c-2.09,0-3.8,1.7-3.8,3.8s1.7,3.8,3.8,3.8,3.8-1.7,3.8-3.8-1.7-3.8-3.8-3.8Z"/><path class="cls-2" d="m25.54,34.48h-3.08c-.67,0-1.22-.55-1.22-1.22v-.17l-1.7-.7-.12.12c-.46.46-1.27.46-1.73,0l-2.18-2.18c-.23-.23-.36-.54-.36-.86,0-.33.13-.63.36-.87l.12-.12-.7-1.7h-.17c-.67,0-1.22-.55-1.22-1.22v-3.08c0-.67.55-1.22,1.22-1.22h.17l.7-1.7-.12-.12c-.23-.23-.36-.54-.36-.87,0-.33.13-.63.36-.87l2.18-2.18c.48-.48,1.25-.48,1.73,0l.12.12,1.7-.7v-.17c0-.67.55-1.22,1.22-1.22h3.08c.67,0,1.22.55,1.22,1.22v.17l1.7.7.12-.12c.48-.48,1.25-.48,1.73,0l2.18,2.18c.23.23.36.54.36.86,0,.33-.13.63-.36.87l-.12.12.7,1.7h.17c.67,0,1.22.55,1.22,1.22v3.08c0,.67-.55,1.22-1.22,1.22h-.17l-.7,1.7.12.12c.23.23.36.54.36.87,0,.33-.13.63-.36.87l-2.18,2.18c-.46.46-1.27.46-1.73,0l-.12-.12-1.7.7v.17c0,.67-.55,1.22-1.22,1.22Zm-2.89-1.42h2.69v-.11c0-.5.3-.94.75-1.13l1.94-.8c.46-.19.98-.09,1.34.27l.07.07,1.9-1.9-.07-.07c-.35-.35-.46-.88-.26-1.33l.8-1.94c.19-.46.63-.75,1.13-.75h.11v-2.69h-.11c-.5,0-.94-.3-1.13-.75l-.8-1.94c-.19-.46-.09-.98.27-1.33l.07-.08-1.9-1.9-.08.08c-.35.35-.87.46-1.33.26l-1.94-.8c-.46-.19-.75-.63-.75-1.13v-.11h-2.69v.11c0,.5-.3.94-.75,1.13l-1.94.8c-.46.19-.98.09-1.34-.27l-.07-.07-1.9,1.9.07.08c.35.35.46.88.26,1.33l-.8,1.94c-.19.46-.63.75-1.13.75h-.11v2.69h.11c.5,0,.94.3,1.13.75l.8,1.94c.19.46.09.98-.27,1.33l-.07.07,1.9,1.9.08-.08c.35-.35.88-.46,1.33-.26l1.94.8c.46.19.75.63.75,1.13v.11Zm5.72-.77s0,0,0,0h0Zm-8.75,0h0s0,0,0,0Zm-1.22-.79s0,0,0,0h0Zm11.18,0h0,0Zm3.66-8.84h0,0Zm-4.88-6.94h0s0,0,0,0Zm-8.75,0h0s0,0,0,0Z"/><path class="cls-2" d="m24.01,28.46c-2.46,0-4.47-2-4.47-4.47s2-4.47,4.47-4.47,4.47,2,4.47,4.47-2,4.47-4.47,4.47Zm0-7.51c-1.68,0-3.05,1.37-3.05,3.05s1.37,3.05,3.05,3.05,3.05-1.37,3.05-3.05-1.37-3.05-3.05-3.05Z"/><path class="cls-1" d="m42.24,20.24c-.32,0-.61-.22-.69-.54-.44-1.8-1.15-3.51-2.12-5.09-.2-.33-.1-.77.24-.98s.77-.1.98.24c1.04,1.71,1.81,3.55,2.28,5.49.09.38-.14.77-.52.86-.06.01-.11.02-.17.02Z"/><path class="cls-1" d="m28.82,6.55c-.06,0-.12,0-.18-.02-1.51-.4-3.07-.6-4.63-.6-.39,0-.71-.32-.71-.71s.32-.71.71-.71c1.69,0,3.37.22,5,.65.38.1.61.49.5.87-.08.32-.37.53-.69.53Z"/><path class="cls-1" d="m7.96,14.94c-.13,0-.25-.03-.37-.1-.33-.2-.44-.64-.24-.98.96-1.58,2.15-3.02,3.52-4.27.29-.26.74-.24,1,.05.26.29.24.74-.05,1-1.27,1.16-2.37,2.49-3.26,3.96-.13.22-.37.34-.61.34Z"/><path class="cls-1" d="m7.96,34.48c-.24,0-.47-.12-.61-.34-1.04-1.71-1.81-3.55-2.28-5.49-.09-.38.14-.77.52-.86.38-.09.77.14.86.52.44,1.8,1.15,3.51,2.12,5.09.2.33.1.77-.24.98-.12.07-.24.1-.37.1Z"/><path class="cls-1" d="m24,43.49c-1.69,0-3.37-.22-5-.65-.38-.1-.61-.49-.5-.87s.49-.61.87-.5c1.51.4,3.07.6,4.63.6.39,0,.71.32.71.71s-.32.71-.71.71Z"/><path class="cls-1" d="m36.41,38.8c-.2,0-.39-.08-.53-.24-.26-.29-.23-.74.06-1,1.37-1.21,2.55-2.61,3.49-4.16.2-.33.64-.44.98-.24.33.2.44.64.24.98-1.02,1.67-2.29,3.18-3.77,4.49-.13.12-.3.18-.47.18Z"/></svg>