<?xml version="1.0" encoding="UTF-8"?><svg id="Calque_1" xmlns="http://www.w3.org/2000/svg" viewBox="0 0 48 48"><defs><style>.cls-1{fill:#bc955b;}.cls-1,.cls-2{stroke-width:0px;}</style></defs><path class="cls-2" d="m31.37,45.73H1.77c-.98,0-1.77-.8-1.77-1.77V4.04c0-.98.8-1.77,1.77-1.77h29.59c.98,0,1.77.8,1.77,1.77v8.86c0,.39-.32.71-.71.71s-.71-.32-.71-.71V4.04c0-.2-.16-.35-.35-.35H1.77c-.2,0-.35.16-.35.35v39.92c0,.2.16.35.35.35h29.59c.2,0,.35-.16.35-.35v-16.37c0-.39.32-.71.71-.71s.71.32.71.71v16.37c0,.98-.8,1.77-1.77,1.77Z"/><path class="cls-2" d="m24.41,12.42H8.41c-.39,0-.71-.32-.71-.71s.32-.71.71-.71h16c.39,0,.71.32.71.71s-.32.71-.71.71Z"/><path class="cls-2" d="m24.41,20.61H8.41c-.39,0-.71-.32-.71-.71s.32-.71.71-.71h16c.39,0,.71.32.71.71s-.32.71-.71.71Z"/><path class="cls-2" d="m16.77,28.81h-8.36c-.39,0-.71-.32-.71-.71s.32-.71.71-.71h8.36c.39,0,.71.32.71.71s-.32.71-.71.71Z"/><path class="cls-1" d="m40.22,21.62c-.18,0-.36-.07-.5-.21-.28-.28-.28-.73,0-1l6.82-6.82c.05-.05.05-.14,0-.19l-1.79-1.79c-.28-.28-.28-.73,0-1s.73-.28,1,0l1.79,1.79c.29.29.46.68.46,1.1s-.16.81-.46,1.1l-6.82,6.82c-.14.14-.32.21-.5.21Z"/><path class="cls-1" d="m20.93,35.06c-.88,0-1.71-.34-2.33-.97-.62-.62-.97-1.45-.97-2.33s.34-1.71.97-2.33L41.09,6.94c.28-.28.73-.28,1,0l3.66,3.66c.28.28.28.73,0,1s-.73.28-1,0l-3.15-3.15-21.99,21.99c-.35.35-.55.83-.55,1.33s.19.97.55,1.33c.71.71,1.94.71,2.65,0l20.65-20.65c.28-.28.73-.28,1,0s.28.73,0,1l-20.65,20.65c-.62.62-1.45.97-2.33.97Z"/><path class="cls-1" d="m16.89,36.51c-.18,0-.36-.07-.5-.21-.28-.28-.28-.73,0-1l.83-.83c.28-.28.73-.28,1,0s.28.73,0,1l-.83.83c-.14.14-.32.21-.5.21Z"/><path class="cls-1" d="m15.67,37.73c-.18,0-.36-.07-.5-.21-.28-.28-.28-.73,0-1l1.22-1.22c.28-.28.73-.28,1,0s.28.73,0,1l-1.22,1.22c-.14.14-.32.21-.5.21Z"/></svg>