<?xml version="1.0" encoding="UTF-8"?><svg id="Calque_1" xmlns="http://www.w3.org/2000/svg" viewBox="0 0 48 48"><defs><style>.cls-1{fill:#bc955b;}.cls-1,.cls-2{stroke-width:0px;}</style></defs><path class="cls-1" d="m7.76,26.35c-.1,0-.2-.02-.29-.06L.42,23.09c-.21-.1-.36-.29-.41-.52-.04-.23.03-.46.2-.63,5.16-5.16,9.93-8.41,13.82-9.4.38-.1.77.13.86.51.1.38-.13.77-.51.86-3.46.89-7.74,3.75-12.43,8.31l6.11,2.77c.36.16.52.58.35.94-.12.26-.38.42-.65.42Z"/><path class="cls-1" d="m25.51,47.96s-.08,0-.13-.01c-.23-.04-.42-.19-.52-.41l-3.17-6.99c-.16-.36,0-.78.35-.94.36-.16.78,0,.94.35l2.75,6.05c4.51-4.64,7.37-8.9,8.28-12.34.1-.38.49-.6.87-.5.38.1.6.49.5.87-1.03,3.86-4.27,8.6-9.37,13.71-.13.13-.32.21-.5.21Z"/><path class="cls-2" d="m17.75,40.17c-.18,0-.36-.07-.5-.21l-9.19-9.19c-.28-.28-.28-.73,0-1s.73-.28,1,0l9.19,9.19c.28.28.28.73,0,1-.14.14-.32.21-.5.21Z"/><path class="cls-1" d="m30.16,22.47c-2.55,0-4.63-2.08-4.63-4.63s2.08-4.63,4.63-4.63c.39,0,.71.32.71.71s-.32.71-.71.71c-1.77,0-3.21,1.44-3.21,3.21s1.44,3.21,3.21,3.21,3.21-1.44,3.21-3.21c0-.39.32-.71.71-.71s.71.32.71.71c0,2.55-2.08,4.63-4.63,4.63Z"/><path class="cls-1" d="m.74,41.53c-.18,0-.36-.07-.5-.21-.28-.28-.28-.73,0-1l6.46-6.46c.28-.28.73-.28,1,0s.28.73,0,1l-6.46,6.46c-.14.14-.32.21-.5.21Z"/><path class="cls-1" d="m7.2,48c-.18,0-.36-.07-.5-.21-.28-.28-.28-.73,0-1l6.46-6.46c.28-.28.73-.28,1,0s.28.73,0,1l-6.46,6.46c-.14.14-.32.21-.5.21Z"/><path class="cls-1" d="m6.5,42.21c-.18,0-.36-.07-.5-.21-.28-.28-.28-.73,0-1l3.92-3.92c.28-.28.73-.28,1,0s.28.73,0,1l-3.92,3.92c-.14.14-.32.21-.5.21Z"/><path class="cls-2" d="m44.67,13.5c-.18,0-.36-.07-.5-.21l-7.1-7.1c-.28-.28-.28-.73,0-1s.73-.28,1,0l7.1,7.1c.28.28.28.73,0,1-.14.14-.32.21-.5.21Z"/><path class="cls-2" d="m20.6,37.57c-.19,0-.37-.07-.5-.21l-9.46-9.46c-.19-.19-.26-.47-.17-.73,2.11-6.29,5.2-11.5,9.18-15.48C30.38.96,46.57.04,47.25,0c.2-.02.4.06.54.21.14.14.22.34.21.54-.03.68-.96,16.87-11.69,27.61h0c-3.98,3.98-9.19,7.07-15.48,9.18-.07.03-.15.04-.23.04Zm-8.65-10.36l8.83,8.83c5.89-2.03,10.77-4.96,14.51-8.69,9.01-9.01,10.88-22.45,11.21-25.86-3.42.34-16.85,2.2-25.86,11.21-3.74,3.74-6.66,8.62-8.69,14.51Zm23.85.64h0,0Z"/></svg>