<?xml version="1.0" encoding="UTF-8"?><svg id="Calque_1" xmlns="http://www.w3.org/2000/svg" viewBox="0 0 48 48"><defs><style>.cls-1{fill:#bc955b;}.cls-1,.cls-2{stroke-width:0px;}</style></defs><path class="cls-2" d="m39.53,32.47c-.39,0-.71-.32-.71-.71v-15.53c0-.39.32-.71.71-.71s.71.32.71.71v14.78c3.56-.36,6.34-3.37,6.34-7.02,0-2.74-1.61-5.26-4.1-6.41-.36-.16-.51-.59-.35-.94.17-.36.59-.51.94-.35,2.99,1.38,4.92,4.4,4.92,7.7,0,4.67-3.8,8.47-8.47,8.47Z"/><path class="cls-2" d="m8.47,32.47c-4.67,0-8.47-3.8-8.47-8.47,0-3.28,1.92-6.3,4.9-7.68.35-.17.78-.01.94.34.17.36.01.78-.34.94-2.48,1.15-4.08,3.67-4.08,6.4,0,3.65,2.79,6.66,6.34,7.02v-14.78c0-.39.32-.71.71-.71s.71.32.71.71v15.53c0,.39-.32.71-.71.71Z"/><path class="cls-2" d="m39.53,16.95c-.39,0-.71-.32-.71-.71,0-8.17-6.65-14.82-14.82-14.82s-14.82,6.65-14.82,14.82c0,.39-.32.71-.71.71s-.71-.32-.71-.71C7.76,7.28,15.05,0,24,0s16.24,7.28,16.24,16.24c0,.39-.32.71-.71.71Z"/><path class="cls-2" d="m30.15,43.97c-.33,0-.63-.23-.69-.57-.08-.38.17-.76.55-.84,5.1-1.04,8.81-5.59,8.81-10.8,0-.39.32-.71.71-.71s.71.32.71.71c0,5.89-4.18,11.02-9.94,12.19-.05,0-.1.01-.14.01Z"/><path class="cls-2" d="m24,48c-2.48,0-4.5-2.02-4.5-4.5s2.02-4.5,4.5-4.5,4.5,2.02,4.5,4.5-2.02,4.5-4.5,4.5Zm0-7.58c-1.7,0-3.08,1.38-3.08,3.08s1.38,3.08,3.08,3.08,3.08-1.38,3.08-3.08-1.38-3.08-3.08-3.08Z"/><path class="cls-1" d="m24,34.75c-1.11,0-2.2-.22-3.21-.65-.98-.42-1.87-1.01-2.62-1.77-.76-.76-1.35-1.64-1.77-2.62-.15-.36.02-.78.38-.93.36-.15.78.02.93.38.34.81.84,1.54,1.46,2.17.63.63,1.36,1.12,2.17,1.46,1.68.71,3.64.71,5.32,0,.81-.34,1.54-.84,2.17-1.46.63-.63,1.12-1.36,1.46-2.17.15-.36.57-.53.93-.38.36.15.53.57.38.93-.42.98-1.01,1.87-1.77,2.62-.76.76-1.64,1.35-2.62,1.77-1.02.43-2.1.65-3.21.65Z"/><path class="cls-1" d="m31.67,22.23h-2.99c-.39,0-.71-.32-.71-.71s.32-.71.71-.71h2.99c.39,0,.71.32.71.71s-.32.71-.71.71Z"/><path class="cls-1" d="m19.31,22.23h-2.99c-.39,0-.71-.32-.71-.71s.32-.71.71-.71h2.99c.39,0,.71.32.71.71s-.32.71-.71.71Z"/><path class="cls-1" d="m35.62,16.94c-.39,0-.71-.32-.71-.71,0-6.3-4.89-11.42-10.89-11.42s-10.85,5.08-10.89,11.34c0,.03,0,.05,0,.08,0,.39-.31.71-.71.71h0c-.39,0-.71-.32-.71-.71,0-7.08,5.52-12.84,12.31-12.84s12.31,5.76,12.31,12.84c0,.39-.32.71-.71.71Z"/><path class="cls-1" d="m31.71,17.41c-5.79,0-11.4-2.86-13.33-6.8-.17-.35-.03-.78.33-.95.35-.17.78-.03.95.33,1.71,3.48,6.77,6,12.05,6,1.27,0,2.52-.15,3.72-.45.38-.09.77.14.86.52s-.14.77-.52.86c-1.31.32-2.68.49-4.06.49Z"/></svg>