<?xml version="1.0" encoding="UTF-8"?><svg id="Calque_1" xmlns="http://www.w3.org/2000/svg" viewBox="0 0 48 48"><defs><style>.cls-1{fill:#bc955b;}.cls-1,.cls-2{stroke-width:0px;}</style></defs><path class="cls-2" d="m11.13,43.35c-.6,0-1.14-.44-1.25-1.03l-.69-3.22c-.02-.05-.09-.15-.13-.17l-2.12-1.22c-.09-.06-.21-.07-.26-.06l-3.14,1.02c-.56.19-1.21-.05-1.51-.57l-1.87-3.24c-.3-.52-.19-1.21.27-1.6l2.45-2.2s.08-.15.08-.2v-2.44c0-.11-.05-.22-.08-.25l-2.45-2.21c-.44-.39-.56-1.08-.26-1.6l1.86-3.23c.3-.52.95-.76,1.52-.57l3.13,1.02c.05.01.17,0,.21-.03l2.11-1.22c.09-.05.17-.14.18-.19l.69-3.23c.12-.58.65-1.02,1.25-1.02h3.72c.6,0,1.14.44,1.26,1.03l.69,3.22c.02.05.09.15.13.17l2.12,1.22c.09.06.21.07.25.06l3.14-1.02c.56-.19,1.21.05,1.51.57l1.87,3.24c.3.52.19,1.2-.26,1.6l-2.45,2.2s-.08.15-.08.2v2.44c0,.11.05.22.08.25l2.46,2.21c.44.39.56,1.08.26,1.6l-1.87,3.23c-.3.52-.95.77-1.52.57l-3.13-1.02c-.05-.01-.17,0-.21.03l-2.11,1.22c-.09.05-.17.14-.18.19l-.69,3.23c-.11.58-.65,1.02-1.25,1.02h-3.72s0,0,0,0Zm3.59-1.32s0,0,0,0h0Zm-3.46,0h0s0,0,0,0Zm-.13-.1h0,0,0Zm-4.4-5.7c.35,0,.7.1.97.29l2.01,1.16c.38.18.77.67.86,1.14l.67,3.11h3.5s.67-3.12.67-3.12c.09-.46.48-.96.92-1.16l2.01-1.16c.34-.24.96-.33,1.42-.18l3.03.98,1.75-3.03-2.37-2.14c-.36-.31-.59-.89-.55-1.37v-2.32c-.04-.42.19-1,.55-1.32l2.37-2.13-1.76-3.04-3.03.99c-.45.15-1.07.07-1.46-.21l-2.01-1.16c-.38-.18-.77-.67-.86-1.14l-.67-3.11h-3.5s-.67,3.12-.67,3.12c-.09.46-.48.96-.92,1.16l-2.01,1.16c-.34.24-.96.33-1.42.18l-3.03-.98-1.75,3.03,2.37,2.14c.36.31.59.89.55,1.37v2.32c.04.42-.19,1-.55,1.32l-2.37,2.13,1.76,3.04,3.03-.99c.15-.05.32-.08.49-.08Zm-3.63,1.1s0,0,0,0h0Zm19.77,0h0s0,0,0,0Zm1.74-2.99s0,0,0,0h0Zm-23.23-.01h0s0,0,0,0Zm-.01-9.42h0s0,0,0,0Zm1.74-2.99s0,0,0,0h0Zm19.78,0h0s0,0,0,0Zm-8.17-4.7s0,0,0,0h0Zm-3.45,0h0s0,0,0,0Z"/><path class="cls-2" d="m12.99,35.04c-3.03,0-5.49-2.46-5.49-5.49s2.46-5.49,5.49-5.49c.39,0,.71.32.71.71s-.32.71-.71.71c-2.24,0-4.07,1.83-4.07,4.07s1.83,4.07,4.07,4.07,4.07-1.83,4.07-4.07c0-.39.32-.71.71-.71s.71.32.71.71c0,3.03-2.46,5.49-5.49,5.49Z"/><path class="cls-2" d="m31.63,27.87c-.21,0-.41-.05-.6-.16l-2.86-1.65c-.49-.29-.73-.91-.54-1.45l1.1-2.98s-.02-.05-.03-.08l-1.05-1.82c-.04-.06-.08-.1-.11-.11l-3.07-.51c-.58-.11-1-.63-1-1.2v-3.32c0-.57.42-1.08.98-1.19l3.13-.53s.04-.04.05-.06l1.04-1.82c.04-.06.04-.13.04-.15l-1.09-2.92c-.19-.56.04-1.18.54-1.46l2.87-1.66c.49-.28,1.15-.18,1.52.25l2.02,2.44s.05.01.08.02h2.1s0,0,0,0c.07,0,.13-.02.15-.04l1.99-2.4c.39-.44,1.04-.55,1.54-.27l2.86,1.65c.49.28.73.9.54,1.44l-1.1,2.98s.02.06.03.08l1.05,1.82c.04.06.08.1.11.11l3.07.51c.58.11,1,.63,1,1.2v3.32c0,.57-.42,1.08-.98,1.19,0,0-.01,0-.02,0l-3.11.53s-.04.04-.06.06l-1.04,1.82c-.04.06-.05.12-.04.15l1.09,2.92c.19.56-.04,1.18-.54,1.46l-2.87,1.66c-.49.29-1.15.18-1.52-.25l-2.02-2.44s-.05-.01-.08-.02h-2.1c-.07,0-.13.03-.15.04l-1.99,2.4c-.24.28-.59.42-.94.42Zm8.1-1.39s0,0,0,0h0Zm-10.7-1.56l2.56,1.48,1.89-2.29c.31-.35.83-.56,1.28-.52h1.99c.39-.04.91.17,1.21.51l1.91,2.3,2.57-1.48-1.04-2.78c-.15-.44-.07-1,.19-1.37l.99-1.73c.16-.36.61-.7,1.05-.79l2.94-.5v-2.97s-2.93-.49-2.93-.49c-.46-.09-.91-.44-1.1-.85l-1-1.72c-.23-.32-.31-.88-.16-1.3l1.04-2.8-2.56-1.48-1.89,2.29c-.31.36-.84.56-1.28.52h-1.99c-.39.04-.91-.17-1.21-.51l-1.91-2.3-2.57,1.48,1.03,2.78c.15.45.07,1-.19,1.37l-.99,1.73c-.16.35-.6.7-1.05.79l-2.95.5v2.97s2.93.49,2.93.49c.46.09.91.44,1.1.85l1,1.72c.23.32.3.87.16,1.3l-1.04,2.8Zm17.85-6.51h0,0Zm-4.3-10.72s0,0,0,0h0Z"/><path class="cls-2" d="m35.73,21.09c-2.66,0-4.83-2.17-4.83-4.83s2.17-4.83,4.83-4.83c.39,0,.71.32.71.71s-.32.71-.71.71c-1.88,0-3.41,1.53-3.41,3.41s1.53,3.41,3.41,3.41,3.41-1.53,3.41-3.41c0-.39.32-.71.71-.71s.71.32.71.71c0,2.66-2.17,4.83-4.83,4.83Z"/><path class="cls-1" d="m6.1,19.81c-.06,0-.12,0-.19-.02-.38-.1-.6-.49-.5-.87C7.69,10.56,15.33,4.73,24,4.73c.68,0,1.39.04,2.1.12.39.04.67.39.63.78-.04.39-.39.67-.78.63-.66-.07-1.31-.11-1.95-.11-8.03,0-15.11,5.4-17.22,13.14-.09.32-.37.52-.68.52Z"/><path class="cls-1" d="m24,43.27c-1.96,0-3.9-.29-5.75-.87-.37-.12-.58-.52-.47-.89.12-.37.51-.58.89-.47,1.72.54,3.51.81,5.33.81,7.89,0,14.75-5.06,17.06-12.6.11-.37.51-.59.89-.47.37.12.58.51.47.89-2.5,8.13-9.9,13.6-18.42,13.6Z"/></svg>