<?xml version="1.0" encoding="UTF-8"?><svg id="Calque_1" xmlns="http://www.w3.org/2000/svg" viewBox="0 0 48 48"><defs><style>.cls-1{fill:#bc955b;}.cls-1,.cls-2{stroke-width:0px;}</style></defs><path class="cls-2" d="m43.15,41.81h-14.06c-.39,0-.71-.32-.71-.71s.32-.71.71-.71h13.35v-22.81c0-.93-.75-1.68-1.68-1.68h-1.21c-.39,0-.71-.32-.71-.71s.32-.71.71-.71h1.21c1.71,0,3.1,1.39,3.1,3.1v23.52c0,.39-.32.71-.71.71Z"/><path class="cls-2" d="m18.91,41.81H4.85c-.39,0-.71-.32-.71-.71v-23.52c0-1.71,1.39-3.1,3.1-3.1h20.91c.39,0,.71.32.71.71s-.32.71-.71.71H7.24c-.93,0-1.68.75-1.68,1.68v22.81h13.35c.39,0,.71.32.71.71s-.32.71-.71.71Z"/><path class="cls-2" d="m43.15,45.94H4.85c-2.67,0-4.85-2.17-4.85-4.85,0-.39.32-.71.71-.71s.71.32.71.71c0,1.89,1.54,3.43,3.43,3.43h38.31c1.89,0,3.43-1.54,3.43-3.43,0-.39.32-.71.71-.71s.71.32.71.71c0,2.67-2.17,4.85-4.85,4.85Z"/><path class="cls-2" d="m26.07,41.81h-4.14c-.39,0-.71-.32-.71-.71s.32-.71.71-.71h4.14c.39,0,.71.32.71.71s-.32.71-.71.71Z"/><path class="cls-1" d="m36.43,36.77c-.39,0-.71-.32-.71-.71V9.98c0-.39.32-.71.71-.71h1.7l-4.28-5.37-4.28,5.37h1.7c.39,0,.71.32.71.71v26.08c0,.39-.32.71-.71.71h-4.58c-.39,0-.71-.32-.71-.71v-15.59h-3.74v15.59c0,.39-.32.71-.71.71h-4.58c-.39,0-.71-.32-.71-.71v-6.22h-3.74v6.22c0,.39-.32.71-.71.71s-.71-.32-.71-.71v-6.93c0-.39.32-.71.71-.71h5.16c.39,0,.71.32.71.71v6.22h3.16v-15.59c0-.39.32-.71.71-.71h5.16c.39,0,.71.32.71.71v15.59h3.16V10.69h-2.46c-.27,0-.52-.16-.64-.4-.12-.25-.09-.54.08-.75l5.75-7.22c.27-.34.84-.34,1.11,0l5.75,7.22c.17.21.2.5.08.75-.12.25-.37.4-.64.4h-2.46v25.37c0,.39-.32.71-.71.71Z"/></svg>