<?xml version="1.0" encoding="UTF-8"?><svg id="Calque_1" xmlns="http://www.w3.org/2000/svg" viewBox="0 0 48 48"><defs><style>.cls-1{fill:#bc955b;}.cls-1,.cls-2{stroke-width:0px;}</style></defs><path class="cls-1" d="m40.64,13.13c-.39,0-.71-.32-.71-.71V1.42H8.07v11c0,.39-.32.71-.71.71s-.71-.32-.71-.71V.71c0-.39.32-.71.71-.71h33.27c.39,0,.71.32.71.71v11.71c0,.39-.32.71-.71.71Z"/><path class="cls-1" d="m38.69,48H9.31c-.39,0-.71-.32-.71-.71v-8.87c0-.39.32-.71.71-.71h29.38c.39,0,.71.32.71.71v8.87c0,.39-.32.71-.71.71Zm-28.67-1.42h27.96v-7.45H10.02v7.45Z"/><path class="cls-2" d="m36.47,32.47c-1.61,0-2.93-1.31-2.93-2.93s1.31-2.93,2.93-2.93,2.93,1.31,2.93,2.93-1.31,2.93-2.93,2.93Zm0-4.44c-.83,0-1.51.68-1.51,1.51s.68,1.51,1.51,1.51,1.51-.68,1.51-1.51-.68-1.51-1.51-1.51Z"/><path class="cls-2" d="m27.6,32.47H11.53c-1.61,0-2.93-1.31-2.93-2.93s1.31-2.93,2.93-2.93h16.07c1.61,0,2.93,1.31,2.93,2.93s-1.31,2.93-2.93,2.93Zm-16.07-4.44c-.83,0-1.51.68-1.51,1.51s.68,1.51,1.51,1.51h16.07c.83,0,1.51-.68,1.51-1.51s-.68-1.51-1.51-1.51H11.53Z"/><path class="cls-1" d="m34.25,8.4H13.75c-.39,0-.71-.32-.71-.71s.32-.71.71-.71h20.51c.39,0,.71.32.71.71s-.32.71-.71.71Z"/><path class="cls-1" d="m34.25,14.4H13.75c-.39,0-.71-.32-.71-.71s.32-.71.71-.71h20.51c.39,0,.71.32.71.71s-.32.71-.71.71Z"/><path class="cls-2" d="m47.29,43.56h-4.57c-.39,0-.71-.32-.71-.71s.32-.71.71-.71h3.86v-19.25c0-3.04-2.29-5.55-5.23-5.9v3.68c0,.39-.32.71-.71.71H7.36c-.39,0-.71-.32-.71-.71v-3.68c-2.94.35-5.23,2.87-5.23,5.9v19.25h3.86c.39,0,.71.32.71.71s-.32.71-.71.71H.71c-.39,0-.71-.32-.71-.71v-19.96c0-4.06,3.3-7.36,7.36-7.36.39,0,.71.32.71.71v3.73h31.85v-3.73c0-.39.32-.71.71-.71,4.06,0,7.36,3.3,7.36,7.36v19.96c0,.39-.32.71-.71.71Z"/></svg>