<?xml version="1.0" encoding="UTF-8"?><svg id="Calque_1" xmlns="http://www.w3.org/2000/svg" viewBox="0 0 48 48"><defs><style>.cls-1{fill:#bc955b;}.cls-1,.cls-2{stroke-width:0px;}</style></defs><path class="cls-2" d="m30.48,41.57H9.73c-3.41,0-5.88-1.84-5.88-4.37s2.47-4.37,5.88-4.37h8.08c1.75,0,3.13-.85,3.13-1.94s-1.38-1.94-3.13-1.94h-5.27c-.39,0-.71-.32-.71-.71s.32-.71.71-.71h5.27c2.59,0,4.55,1.44,4.55,3.36s-1.96,3.36-4.55,3.36h-8.08c-2.54,0-4.46,1.27-4.46,2.95s1.92,2.95,4.46,2.95h20.75c.39,0,.71.32.71.71s-.32.71-.71.71Z"/><path class="cls-1" d="m35.31,41.57c-1.08,0-2.04-.56-2.58-1.49l-8.41-14.57s-.04-.07-.05-.1c-1.43-2.52-1.95-5.38-1.49-8.26.87-5.54,5.55-10,11.13-10.59,3.66-.39,7.17.73,9.88,3.17,2.68,2.4,4.21,5.85,4.21,9.44,0,2.18-.57,4.33-1.65,6.24-.01.03-.03.07-.05.1l-8.41,14.57c-.54.93-1.5,1.49-2.58,1.49Zm-9.7-16.67l8.36,14.48c.28.49.78.78,1.35.78s1.06-.29,1.35-.78l8.36-14.48s.03-.07.05-.1c.99-1.72,1.52-3.66,1.52-5.63,0-3.19-1.36-6.25-3.74-8.39-2.41-2.17-5.53-3.17-8.78-2.82-4.95.53-9.11,4.49-9.88,9.4-.41,2.6.07,5.17,1.38,7.43.02.03.04.07.05.1Z"/><path class="cls-1" d="m35.31,25.72c-3.61,0-6.55-2.94-6.55-6.55s2.94-6.56,6.55-6.56c.39,0,.71.32.71.71s-.32.71-.71.71c-2.83,0-5.13,2.3-5.13,5.14s2.3,5.13,5.13,5.13,5.14-2.3,5.14-5.13c0-.39.32-.71.71-.71s.71.32.71.71c0,3.61-2.94,6.55-6.56,6.55Z"/><path class="cls-1" d="m8.22,28.96c-.77,0-1.46-.4-1.84-1.06L1.1,18.76s-.03-.06-.04-.08C.14,17.05-.19,15.2.1,13.34c.56-3.59,3.6-6.48,7.21-6.86,2.33-.25,4.67.5,6.4,2.06,1.73,1.56,2.73,3.79,2.73,6.12,0,1.41-.37,2.79-1.06,4.02-.01.03-.03.06-.04.09l-5.28,9.14c-.38.67-1.07,1.06-1.84,1.06Zm-5.84-10.83l5.23,9.06c.19.32.49.35.61.35s.43-.03.61-.35l5.23-9.06s.03-.06.04-.08c.6-1.04.92-2.21.92-3.4,0-1.93-.82-3.77-2.26-5.06-1.45-1.31-3.34-1.91-5.3-1.7-2.99.32-5.49,2.71-5.96,5.67-.25,1.57.04,3.12.83,4.48.02.03.03.05.04.08Z"/><path class="cls-1" d="m8.22,19.02c-2.41,0-4.37-1.96-4.37-4.37s1.96-4.37,4.37-4.37c.39,0,.71.32.71.71s-.32.71-.71.71c-1.63,0-2.95,1.33-2.95,2.95s1.33,2.95,2.95,2.95,2.95-1.33,2.95-2.95c0-.39.32-.71.71-.71s.71.32.71.71c0,2.41-1.96,4.37-4.37,4.37Z"/></svg>