<?xml version="1.0" encoding="UTF-8"?><svg id="Calque_1" xmlns="http://www.w3.org/2000/svg" viewBox="0 0 48 48"><defs><style>.cls-1{fill:#bc955b;}.cls-1,.cls-2{stroke-width:0px;}</style></defs><path class="cls-1" d="m42.81,5.07h-15.25c-.39,0-.71-.32-.71-.71s.32-.71.71-.71h15.25c.39,0,.71.32.71.71s-.32.71-.71.71Z"/><path class="cls-2" d="m38.05,33.83c-4.13,0-7.85-2.29-9.71-5.97-.28-.56-.31-1.23-.08-1.84,0-.02.01-.04.02-.06l8.31-17.7c.25-.58.81-.95,1.46-.95s1.21.37,1.47.97l8.3,17.68c.25.68.22,1.35-.06,1.9-1.86,3.68-5.58,5.97-9.71,5.97Zm-8.47-7.3c-.08.24-.07.49.03.68,1.62,3.2,4.86,5.19,8.45,5.19s6.82-1.99,8.44-5.19c.1-.2.11-.46.02-.71l-8.29-17.64c-.08-.19-.28-.17-.34-.02l-8.31,17.69Z"/><path class="cls-1" d="m39.44,47.91H8.56c-.39,0-.71-.32-.71-.71s.32-.71.71-.71h30.87c.39,0,.71.32.71.71s-.32.71-.71.71Z"/><path class="cls-1" d="m34.69,43.72H13.31c-.39,0-.71-.32-.71-.71s.32-.71.71-.71h21.37c.39,0,.71.32.71.71s-.32.71-.71.71Z"/><path class="cls-2" d="m9.95,33.83c-4.13,0-7.85-2.29-9.71-5.97-.28-.56-.31-1.23-.08-1.84,0-.02.01-.04.02-.06L8.49,8.26c.25-.58.81-.95,1.46-.95s1.21.37,1.47.97l8.3,17.68c.25.67.22,1.34-.06,1.9-1.86,3.68-5.58,5.97-9.71,5.97ZM1.47,26.53c-.08.24-.07.49.03.68,1.62,3.2,4.86,5.19,8.45,5.19s6.82-1.99,8.44-5.19c.1-.2.11-.46.02-.71L10.12,8.86c-.08-.19-.28-.17-.34-.02L1.47,26.53Z"/><path class="cls-1" d="m20.45,5.07H5.19c-.39,0-.71-.32-.71-.71s.32-.71.71-.71h15.25c.39,0,.71.32.71.71s-.32.71-.71.71Z"/><path class="cls-1" d="m24,43.72c-.39,0-.71-.32-.71-.71V7.91c0-.39.32-.71.71-.71s.71.32.71.71v35.09c0,.39-.32.71-.71.71Z"/><path class="cls-2" d="m43.45,27.62h-10.85c-.39,0-.71-.32-.71-.71s.32-.71.71-.71h10.85c.39,0,.71.32.71.71s-.32.71-.71.71Z"/><path class="cls-2" d="m15.34,27.62H4.49c-.39,0-.71-.32-.71-.71s.32-.71.71-.71h10.85c.39,0,.71.32.71.71s-.32.71-.71.71Z"/><path class="cls-1" d="m24,8.62c-2.35,0-4.26-1.91-4.26-4.26S21.65.09,24,.09c.39,0,.71.32.71.71s-.32.71-.71.71c-1.57,0-2.84,1.28-2.84,2.85s1.28,2.84,2.84,2.84,2.85-1.28,2.85-2.84c0-.39.32-.71.71-.71s.71.32.71.71c0,2.35-1.91,4.26-4.27,4.26Z"/></svg>