<?xml version="1.0" encoding="UTF-8"?><svg id="Calque_1" xmlns="http://www.w3.org/2000/svg" viewBox="0 0 48 48"><defs><style>.cls-1{fill:#bc955b;}.cls-1,.cls-2{stroke-width:0px;}</style></defs><path class="cls-1" d="m17.47,41.86c-.12,0-.25-.03-.36-.1-.34-.2-.45-.64-.25-.97,1.14-1.93,3.24-3.04,5.48-2.93l6.39.34c.97.06,1.91-.23,2.68-.8l10.69-7.82c.28-.19.5-.41.68-.66.56-.8.27-1.62-.14-2.07-.41-.45-1.13-.77-1.93-.32l-.09.06-6.07,3.76c-.33.21-.77.1-.98-.23-.21-.33-.1-.77.23-.98l6.22-3.85c1.23-.69,2.71-.45,3.67.61.99,1.09,1.09,2.63.26,3.84-.28.4-.62.74-1.03,1.02l-10.67,7.8c-1.04.76-2.32,1.13-3.6,1.07l-6.39-.34c-1.71-.09-3.31.76-4.18,2.23-.13.22-.37.35-.61.35Z"/><path class="cls-1" d="m8.79,34.85c-.16,0-.32-.05-.46-.17-.3-.25-.34-.7-.09-1l4.55-5.42c1.27-1.47,3.18-2.23,5.11-2.02,1.53.16,2.91.9,3.9,2.08l.29.34c.19.22.46.35.75.35h7.27c1.46,0,2.65,1.19,2.65,2.65s-1.19,2.65-2.65,2.65h-8.05c-.39,0-.71-.32-.71-.71s.32-.71.71-.71h8.05c.68,0,1.23-.55,1.23-1.23s-.55-1.23-1.23-1.23h-7.27c-.71,0-1.38-.31-1.83-.85l-.29-.34c-.75-.89-1.81-1.46-2.97-1.58-1.47-.16-2.91.42-3.87,1.53l-4.54,5.41c-.14.17-.34.25-.54.25Z"/><path class="cls-2" d="m14.52,47.77c-.15,0-.3-.05-.43-.14-.31-.24-.37-.68-.14-.99l1.66-2.2c.26-.34.19-.82-.14-1.08l-8.97-7.03c-.17-.13-.37-.19-.58-.16-.21.03-.39.13-.52.3l-1.64,2.16c-.24.31-.68.38-.99.14-.31-.24-.37-.68-.14-.99l1.63-2.16c.36-.47.88-.78,1.47-.85.59-.08,1.17.08,1.64.45l8.97,7.03c.94.74,1.12,2.11.4,3.06l-1.66,2.2c-.14.18-.35.28-.57.28Z"/><path class="cls-2" d="m41.91,23.93c-.19,0-.38-.05-.55-.15l-14.21-8.08c-.26-.15-.44-.38-.52-.67-.08-.29-.04-.58.1-.84l4.98-8.76c.3-.53.98-.71,1.51-.41l14.21,8.08c.26.15.44.38.52.67.08.28.04.58-.1.84l-4.98,8.76c-.15.26-.38.44-.67.52-.1.03-.2.04-.29.04Zm-.27-1.26s0,0,0,0h0Zm.43-.12h0s0,0,0,0Zm-13.94-7.92l13.67,7.77,4.67-8.21-13.67-7.77-4.67,8.21Zm18.61-.29s0,0,0,0c0,0,0,0,0,0h0Z"/><path class="cls-2" d="m43.88,20.87c-.12,0-.24-.03-.35-.09l-14.9-8.47c-.34-.19-.46-.63-.27-.97.19-.34.63-.46.97-.27l14.9,8.47c.34.19.46.63.27.97-.13.23-.37.36-.62.36Z"/><path class="cls-2" d="m9.14,27.14c-.18,0-.36-.07-.5-.21L.21,18.5c-.13-.13-.21-.31-.21-.5s.07-.37.21-.5L17.27.43c.28-.28.73-.28,1,0l8.43,8.43c.13.13.21.31.21.5s-.07.37-.21.5L9.64,26.93c-.14.14-.32.21-.5.21ZM1.71,18l7.43,7.43L25.2,9.37l-7.43-7.43L1.71,18Z"/><path class="cls-2" d="m6.62,19.54c-.18,0-.35-.06-.48-.19-.28-.27-.31-.7-.04-.98.46-.48.46-1.16.04-1.58-.13-.13-.21-.31-.21-.5s.07-.37.21-.5L15.56,6.36c.28-.28.73-.28,1,0,.42.42,1.1.42,1.53,0,.28-.27.76-.29,1.03-.01s.29.7.02.98l-.05.05c-.8.78-2.01.92-2.95.41l-8.57,8.57c.51.94.37,2.15-.41,2.95-.15.15-.35.23-.55.23Z"/><path class="cls-2" d="m8.52,21.49c-.19,0-.37-.07-.51-.22-.27-.28-.26-.73.02-1l.31-.3c.66-.63,1.64-.76,2.42-.38l8.59-8.59c-.38-.79-.25-1.76.38-2.42l.3-.31c.27-.28.72-.29,1-.02.28.27.29.72.02,1l-.3.31c-.27.29-.27.75.01,1.03.13.13.21.31.21.5s-.07.37-.21.5l-9.42,9.42c-.28.28-.73.28-1,0-.28-.28-.74-.29-1.03-.01l-.31.3c-.14.13-.31.2-.49.2Z"/><path class="cls-2" d="m25.36,26.72c-2.75,0-4.99-2.24-4.99-5s2.24-5,4.99-5,5,2.24,5,5-2.24,5-5,5Zm0-8.57c-1.97,0-3.57,1.6-3.57,3.58s1.6,3.58,3.57,3.58,3.58-1.6,3.58-3.58-1.6-3.58-3.58-3.58Z"/></svg>