<?xml version="1.0" encoding="UTF-8"?><svg id="Calque_1" xmlns="http://www.w3.org/2000/svg" viewBox="0 0 48 48"><defs><style>.cls-1{fill:#bc955b;}.cls-1,.cls-2{stroke-width:0px;}</style></defs><path class="cls-1" d="m24.17,48c-.25,0-.48-.13-.62-.35-.2-.34-.08-.77.26-.97,11.86-6.87,19.23-19.62,19.23-33.28v-3.53c0-.39.32-.71.71-.71s.71.32.71.71v3.53c0,14.16-7.64,27.39-19.94,34.51-.11.06-.23.1-.35.1Z"/><path class="cls-2" d="m22.17,45.13c-.12,0-.25-.03-.36-.1C10.54,38.5,3.53,26.38,3.53,13.39v-5.02c0-.39.32-.71.71-.71,7.25,0,13.9-2.83,17.37-7.38.27-.35.86-.35,1.13,0,3.46,4.55,10.12,7.38,17.37,7.38.39,0,.71.32.71.71v5.02c0,12.98-7.01,25.11-18.29,31.64-.11.06-.23.1-.36.1ZM4.95,9.07v4.32c0,12.34,6.59,23.88,17.22,30.2,10.63-6.33,17.22-17.86,17.22-30.2v-4.32c-7.04-.17-13.5-2.89-17.22-7.23-3.72,4.34-10.18,7.06-17.22,7.23Z"/><path class="cls-1" d="m13.37,20.59c-2.17,0-3.93-1.76-3.93-3.93,0-.39.32-.71.71-.71s.71.32.71.71c0,1.38,1.12,2.51,2.51,2.51s2.51-1.12,2.51-2.51-1.12-2.51-2.51-2.51c-.39,0-.71-.32-.71-.71s.32-.71.71-.71c2.17,0,3.93,1.76,3.93,3.93s-1.76,3.93-3.93,3.93Z"/><path class="cls-1" d="m22.17,36.73c-2.17,0-3.93-1.76-3.93-3.93,0-.39.32-.71.71-.71s.71.32.71.71c0,1.38,1.12,2.51,2.51,2.51s2.51-1.12,2.51-2.51-1.12-2.51-2.51-2.51c-.39,0-.71-.32-.71-.71s.32-.71.71-.71c2.17,0,3.93,1.76,3.93,3.93s-1.76,3.93-3.93,3.93Z"/><path class="cls-1" d="m30.98,20.59c-2.17,0-3.93-1.76-3.93-3.93,0-.39.32-.71.71-.71s.71.32.71.71c0,1.38,1.12,2.51,2.51,2.51s2.51-1.12,2.51-2.51-1.12-2.51-2.51-2.51c-.39,0-.71-.32-.71-.71s.32-.71.71-.71c2.17,0,3.93,1.76,3.93,3.93s-1.76,3.93-3.93,3.93Z"/><path class="cls-1" d="m22.17,30.3c-.19,0-.39-.08-.53-.23l-8.81-9.71c-.26-.29-.24-.74.05-1,.29-.26.74-.24,1,.05l8.81,9.71c.26.29.24.74-.05,1-.14.12-.31.18-.48.18Z"/><path class="cls-1" d="m27.77,17.37h-11.18c-.39,0-.71-.32-.71-.71s.32-.71.71-.71h11.18c.39,0,.71.32.71.71s-.32.71-.71.71Z"/></svg>