<?xml version="1.0" encoding="UTF-8"?><svg id="Calque_1" xmlns="http://www.w3.org/2000/svg" viewBox="0 0 48 48"><defs><style>.cls-1{fill:#bc955b;}.cls-1,.cls-2{stroke-width:0px;}.cls-2{fill:#fff;}</style></defs><path class="cls-1" d="m13.94,45.78c-2.82,0-5.12-2.3-5.12-5.12,0-.39.32-.71.71-.71s.71.32.71.71c0,2.04,1.66,3.7,3.7,3.7s3.7-1.66,3.7-3.7v-2.74c0-.39.32-.71.71-.71s.71.32.71.71v2.74c0,2.82-2.3,5.12-5.12,5.12Z"/><path class="cls-1" d="m35.25,45.78H13.94c-.39,0-.71-.32-.71-.71s.32-.71.71-.71h21.31c2.04,0,3.7-1.66,3.7-3.7v-2.03h-20.6c-.39,0-.71-.32-.71-.71s.32-.71.71-.71h21.31c.39,0,.71.32.71.71v2.74c0,2.82-2.3,5.12-5.12,5.12Z"/><path class="cls-1" d="m32.21,14.86c-.39,0-.71-.32-.71-.71v-6.81c0-2.04-1.66-3.7-3.7-3.7H5.12c-.39,0-.71-.32-.71-.71s.32-.71.71-.71h22.68c2.82,0,5.12,2.3,5.12,5.12v6.81c0,.39-.32.71-.71.71Z"/><path class="cls-1" d="m9.53,41.37c-.39,0-.71-.32-.71-.71V7.34c0-2.04-1.66-3.7-3.7-3.7s-3.7,1.66-3.7,3.7v2.74c0,.39-.32.71-.71.71s-.71-.32-.71-.71v-2.74C0,4.52,2.3,2.22,5.12,2.22s5.12,2.3,5.12,5.12v33.33c0,.39-.32.71-.71.71Z"/><path class="cls-1" d="m4.29,10.79H.71c-.39,0-.71-.32-.71-.71s.32-.71.71-.71h3.58c.39,0,.71.32.71.71s-.32.71-.71.71Z"/><path class="cls-1" d="m6.08,10.79H.71c-.39,0-.71-.32-.71-.71s.32-.71.71-.71h5.37c.39,0,.71.32.71.71s-.32.71-.71.71Z"/><path class="cls-2" d="m25.81,10.79h-9.88c-.39,0-.71-.32-.71-.71s.32-.71.71-.71h9.88c.39,0,.71.32.71.71s-.32.71-.71.71Z"/><path class="cls-2" d="m25.81,20.74h-9.88c-.39,0-.71-.32-.71-.71s.32-.71.71-.71h9.88c.39,0,.71.32.71.71s-.32.71-.71.71Z"/><path class="cls-2" d="m25.81,30.68h-9.88c-.39,0-.71-.32-.71-.71s.32-.71.71-.71h9.88c.39,0,.71.32.71.71s-.32.71-.71.71Z"/><path class="cls-2" d="m45.83,33.47h-14.05c-.61,0-1.14-.22-1.55-.62s-.62-.94-.62-1.55v-10.15c0-.61.22-1.14.62-1.55.41-.41.94-.62,1.55-.62h14.05c.61,0,1.14.22,1.55.62.41.41.62.94.62,1.55v10.15c0,.61-.21,1.14-.62,1.55-.41.41-.94.62-1.55.62Zm-14.05-13.08c-.24,0-.4.06-.55.21-.14.14-.21.31-.21.55v10.15c0,.23.06.4.21.55.14.14.31.21.55.21h14.05c.24,0,.4-.06.55-.21.14-.14.21-.31.21-.55v-10.15c0-.23-.06-.4-.21-.55s-.31-.21-.55-.21h-14.05Z"/><path class="cls-2" d="m38.8,27.64c-.14,0-.27-.04-.39-.12l-5.44-3.58c-.33-.22-.42-.66-.2-.98.21-.33.65-.42.98-.2l5.05,3.32,5.05-3.32c.33-.22.77-.12.98.2.22.33.12.77-.2.98l-5.44,3.58c-.12.08-.25.12-.39.12Z"/></svg>