<?xml version="1.0" encoding="UTF-8"?><svg id="Calque_1" xmlns="http://www.w3.org/2000/svg" viewBox="0 0 48 48"><defs><style>.cls-1{fill:#bc955b;}.cls-1,.cls-2{stroke-width:0px;}.cls-2{fill:#fff;}</style></defs><path class="cls-2" d="m24.12,24.71c-.11,0-.22-.03-.32-.08L.52,12.99c-.24-.12-.39-.37-.39-.63s.15-.51.39-.63L23.81.08c.2-.1.44-.1.63,0l23.29,11.65c.24.12.39.37.39.63s-.15.51-.39.63l-23.29,11.64c-.1.05-.21.08-.32.08ZM2.42,12.36l21.7,10.85,21.7-10.85L24.12,1.5,2.42,12.36Z"/><path class="cls-1" d="m24.12,36.35c-.11,0-.22-.03-.32-.08L.52,24.63c-.24-.12-.39-.37-.39-.63s.15-.51.39-.63l7.17-3.59c.35-.18.78-.03.95.32.18.35.03.78-.32.95l-5.9,2.95,21.7,10.85,21.7-10.85-5.9-2.95c-.35-.17-.49-.6-.32-.95.17-.35.6-.49.95-.32l7.17,3.59c.24.12.39.37.39.63s-.15.51-.39.63l-23.29,11.64c-.1.05-.21.08-.32.08Z"/><path class="cls-2" d="m24.12,48c-.11,0-.22-.03-.32-.08L.52,36.28c-.24-.12-.39-.37-.39-.63s.15-.51.39-.63l7.17-3.59c.35-.18.78-.03.95.32.18.35.03.78-.32.95l-5.9,2.95,21.7,10.85,21.7-10.85-5.9-2.95c-.35-.17-.49-.6-.32-.95.17-.35.6-.49.95-.32l7.17,3.59c.24.12.39.37.39.63s-.15.51-.39.63l-23.29,11.65c-.1.05-.21.08-.32.08Z"/></svg>