<?xml version="1.0" encoding="UTF-8"?><svg id="Calque_1" xmlns="http://www.w3.org/2000/svg" viewBox="0 0 48 48"><defs><style>.cls-1{fill:#bc955b;}.cls-1,.cls-2{stroke-width:0px;}.cls-2{fill:#fff;}</style></defs><path class="cls-1" d="m15.39,22.41c-.22,0-.43-.1-.57-.29-.89-1.2-1.36-2.62-1.36-4.11,0-3.83,3.12-6.94,6.94-6.94,3.46,0,6.42,2.59,6.87,6.03.05.39-.22.75-.61.8-.39.05-.75-.22-.8-.61-.36-2.73-2.71-4.79-5.46-4.79-3.05,0-5.52,2.48-5.52,5.52,0,1.18.37,2.31,1.08,3.26.23.31.17.76-.14.99-.13.1-.28.14-.42.14Z"/><path class="cls-2" d="m34.17,29.52c-1.08,0-2.16-.41-2.98-1.23-.8-.8-1.25-1.86-1.25-2.99,0-1.13.43-2.19,1.23-2.99.8-.8,1.86-1.24,2.99-1.25h.01c1.13,0,2.19.44,2.99,1.24,1.65,1.65,1.65,4.33,0,5.99h0c-.83.83-1.91,1.24-3,1.24Zm0-7.04h0c-.75,0-1.46.3-1.99.83-.53.53-.82,1.24-.82,1.99,0,.75.3,1.46.83,1.99,1.1,1.09,2.88,1.09,3.97,0,1.09-1.1,1.09-2.88,0-3.98-.53-.53-1.24-.82-1.99-.82Zm2.49,5.3h0,0Z"/><path class="cls-2" d="m33.25,45.03c-.13,0-.25-.01-.38-.03-.7-.12-1.29-.58-1.58-1.22l-1.61-3.5-2.44,1.77c-1.11.8-2.62.68-3.59-.28l-5.92-5.9c-.97-.97-1.1-2.48-.29-3.59l1.76-2.44-3.49-1.59c-.64-.29-1.1-.88-1.23-1.58-.13-.7.09-1.41.59-1.91l2.6-2.61c1.68-1.68,4.02-2.35,6.58-1.89.81.14,1.69-.1,2.35-.65,7.29-6.08,14.48-6,17.23-5.67.87.1,1.55.78,1.66,1.65,0,0,0,0,0,0,.34,2.74.47,9.91-5.59,17.25-.56.67-.8,1.56-.65,2.37.46,2.58-.2,4.92-1.87,6.58l-2.6,2.61c-.41.41-.96.64-1.53.64Zm-3.29-6.54c.06,0,.12,0,.18.02.21.05.38.2.46.39l1.97,4.28c.1.22.3.38.54.42.24.04.48-.03.65-.21l2.6-2.61c1.7-1.7,1.74-3.83,1.47-5.33-.22-1.24.13-2.52.96-3.53,5.87-7.11,5.53-14.17,5.28-16.17h0c-.03-.22-.2-.39-.42-.42-2.57-.3-9.28-.38-16.15,5.35-1,.83-2.27,1.18-3.51.96-1.48-.26-3.61-.22-5.33,1.5l-2.6,2.61c-.17.17-.25.41-.2.65.04.24.2.44.42.54l4.28,1.95c.19.09.34.26.39.46s.01.42-.11.6l-2.27,3.15c-.39.54-.33,1.28.14,1.75l5.92,5.9c.47.47,1.21.53,1.75.14l3.14-2.28c.12-.09.27-.14.42-.14Z"/><path class="cls-1" d="m13.5,41.36c-.54,0-1.04-.21-1.42-.59-.78-.78-.78-2.05,0-2.83l1.87-1.87c.76-.76,2.08-.76,2.83,0,.38.38.59.88.59,1.42s-.21,1.04-.59,1.42l-1.87,1.87c-.38.38-.88.59-1.42.59Zm1.87-4.45c-.16,0-.3.06-.41.17l-1.87,1.87c-.23.23-.23.6,0,.82.22.22.6.22.83,0l1.87-1.87h0c.11-.11.17-.26.17-.41s-.06-.3-.17-.41c-.11-.11-.26-.17-.41-.17Z"/><path class="cls-1" d="m15.74,45.75c-.53,0-1.03-.21-1.41-.58-.38-.37-.58-.87-.58-1.4s.21-1.03.58-1.41l2.88-2.88c.75-.75,2.06-.75,2.81,0h0c.38.38.58.88.58,1.41s-.21,1.03-.58,1.41l-2.88,2.88c-.38.38-.88.58-1.41.58Zm2.88-5.44c-.15,0-.29.06-.4.17l-2.88,2.88c-.11.11-.17.25-.17.4s.06.29.17.4c.21.22.59.22.81,0l2.88-2.88c.11-.11.17-.25.17-.4s-.06-.29-.17-.4h0c-.11-.11-.25-.17-.4-.17Z"/><path class="cls-1" d="m20.14,48c-.53,0-1.04-.21-1.42-.59-.38-.38-.59-.88-.59-1.42s.21-1.04.59-1.42l1.87-1.86s0,0,0,0c.78-.77,2.05-.77,2.83,0,.78.78.78,2.05,0,2.83l-1.87,1.86c-.38.38-.88.59-1.42.59Zm1.45-4.28l-1.87,1.86c-.11.11-.17.26-.17.41s.06.3.17.41c.22.22.61.22.83,0l1.86-1.86c.23-.23.23-.6,0-.83-.22-.22-.6-.23-.83,0Z"/><path class="cls-1" d="m10.67,32.75c-.62,0-1.25-.24-1.72-.72l-2.58-2.58c-.84-.84-.94-2.2-.22-3.16l1.66-2.23c-.23-.56-.36-.86-.58-1.42l-2.76-.4c-1.18-.17-2.08-1.2-2.08-2.4v-3.67c0-1.19.89-2.22,2.07-2.4l2.76-.4c.23-.57.35-.88.58-1.42l-1.66-2.24c-.71-.96-.62-2.29.22-3.15l2.59-2.59c.87-.85,2.2-.94,3.16-.22l2.23,1.66c.56-.24.88-.36,1.44-.59l.39-2.75c.18-1.2,1.19-2.08,2.4-2.08h3.67c1.21,0,2.23.9,2.38,2.09l.41,2.74c.56.23.86.35,1.42.59l2.22-1.66c.96-.72,2.32-.62,3.16.22l2.58,2.58c.86.86.96,2.19.24,3.16l-1.68,2.24.17.41c.14.32.25.59.41.99.14.36-.03.78-.4.92-.36.15-.78-.03-.92-.4-.15-.39-.26-.65-.4-.96l-.33-.8c-.1-.23-.06-.5.09-.7l1.92-2.57c.3-.4.25-.95-.11-1.31l-2.58-2.58c-.35-.35-.91-.38-1.31-.09l-2.55,1.9c-.2.15-.47.18-.7.09l-.32-.14c-.7-.29-1-.42-1.83-.75-.23-.09-.4-.3-.44-.55l-.47-3.16c-.06-.49-.49-.86-.97-.86h-3.67c-.5,0-.92.36-.99.86l-.45,3.16c-.04.25-.2.46-.44.56-.96.38-1.22.49-2.17.89-.23.1-.5.06-.7-.09l-2.55-1.9c-.4-.29-.95-.26-1.32.1l-2.58,2.58c-.35.36-.39.91-.09,1.31l1.9,2.57c.15.2.18.47.08.7-.39.93-.5,1.19-.87,2.12-.09.24-.32.44-.57.48l-3.16.45c-.49.07-.86.5-.86.99v3.67c0,.48.38.92.86.99l3.16.45c.25.04.46.2.56.44.34.85.46,1.14.76,1.86l.12.3c.1.23.06.5-.09.7l-1.9,2.55c-.3.4-.26.96.09,1.31l2.58,2.58c.36.36.91.4,1.31.11l2.51-1.88c.31-.23.76-.17.99.14.24.31.17.76-.14.99l-2.51,1.89c-.43.32-.94.48-1.44.48Z"/></svg>