<?xml version="1.0" encoding="UTF-8"?><svg id="Calque_1" xmlns="http://www.w3.org/2000/svg" viewBox="0 0 48 48"><defs><style>.cls-1{fill:#bc955b;}.cls-1,.cls-2{stroke-width:0px;}.cls-2{fill:#fff;}</style></defs><path class="cls-2" d="m27,37.57c-.39,0-.71-.32-.71-.71v-3.89h-4.58v3.89c0,.39-.32.71-.71.71s-.71-.32-.71-.71v-4.6c0-.39.32-.71.71-.71h6c.39,0,.71.32.71.71v4.6c0,.39-.32.71-.71.71Z"/><path class="cls-2" d="m31.87,32.97h-15.74c-.39,0-.71-.32-.71-.71s.32-.71.71-.71h15.74c.39,0,.71.32.71.71s-.32.71-.71.71Z"/><path class="cls-2" d="m31.87,37.57h-15.74c-.39,0-.71-.32-.71-.71s.32-.71.71-.71h15.74c.39,0,.71.32.71.71s-.32.71-.71.71Z"/><path class="cls-2" d="m44.23,32.97H3.77c-2.08,0-3.77-1.69-3.77-3.77V3.77C0,1.69,1.69,0,3.77,0h40.47c2.08,0,3.77,1.69,3.77,3.77v25.44c0,2.08-1.69,3.77-3.77,3.77ZM3.77,1.42c-1.29,0-2.35,1.05-2.35,2.35v25.44c0,1.29,1.05,2.35,2.35,2.35h40.47c1.29,0,2.35-1.05,2.35-2.35V3.77c0-1.29-1.05-2.35-2.35-2.35H3.77Z"/><path class="cls-1" d="m44.59,28.56H3.41c-.39,0-.71-.32-.71-.71s.32-.71.71-.71h41.19c.39,0,.71.32.71.71s-.32.71-.71.71Z"/><path class="cls-1" d="m44.23,48H3.77c-2.08,0-3.77-1.69-3.77-3.77v-1.44c0-2.08,1.69-3.77,3.77-3.77h40.47c2.08,0,3.77,1.69,3.77,3.77v1.44c0,2.08-1.69,3.77-3.77,3.77ZM3.77,40.45c-1.29,0-2.35,1.05-2.35,2.35v1.44c0,1.29,1.05,2.35,2.35,2.35h40.47c1.29,0,2.35-1.05,2.35-2.35v-1.44c0-1.29-1.05-2.35-2.35-2.35H3.77Z"/><path class="cls-1" d="m34.14,23.11H15.8c-3.31,0-6-2.69-6-6,0-3.03,2.29-5.57,5.23-5.94.26-3.2,2.95-5.72,6.22-5.72,2.89,0,5.38,2,6.05,4.74,3.11-.2,5.76,1.94,6.37,4.85,2.42-.31,4.52,1.63,4.52,4.02,0,2.23-1.82,4.05-4.05,4.05ZM21.26,6.87c-2.66,0-4.82,2.16-4.82,4.82,0,.19-.06.44-.2.57-.13.14-.31.28-.5.28-2.49.03-4.52,2.08-4.52,4.57s2.05,4.58,4.58,4.58h18.34c1.45,0,2.63-1.18,2.63-2.63s-1.18-2.63-2.63-2.63c-.26,0-.53.05-.84.15-.21.07-.44.04-.62-.08-.18-.12-.3-.32-.31-.54-.17-2.45-2.23-4.36-4.68-4.36-.26,0-.54.03-.84.08-.19.03-.39-.01-.54-.13-.16-.12-.26-.29-.28-.48-.31-2.39-2.36-4.2-4.77-4.2Z"/></svg>