<?xml version="1.0" encoding="UTF-8"?><svg id="Calque_1" xmlns="http://www.w3.org/2000/svg" viewBox="0 0 48 48"><defs><style>.cls-1{fill:#bc955b;}.cls-1,.cls-2{stroke-width:0px;}.cls-2{fill:#fff;}</style></defs><path class="cls-2" d="m44.29,35.23c-2.05,0-3.72-1.67-3.72-3.71s1.67-3.71,3.72-3.71,3.71,1.67,3.71,3.71-1.67,3.71-3.71,3.71Zm0-6.01c-1.27,0-2.3,1.03-2.3,2.29s1.03,2.29,2.3,2.29,2.29-1.03,2.29-2.29-1.03-2.29-2.29-2.29Z"/><path class="cls-2" d="m3.71,35.23c-2.05,0-3.71-1.67-3.71-3.71s1.67-3.71,3.71-3.71,3.72,1.67,3.72,3.71-1.67,3.71-3.72,3.71Zm0-6.01c-1.27,0-2.29,1.03-2.29,2.29s1.03,2.29,2.29,2.29,2.3-1.03,2.3-2.29-1.03-2.29-2.3-2.29Z"/><path class="cls-2" d="m24,48c-2.05,0-3.71-1.67-3.71-3.71s1.67-3.72,3.71-3.72,3.71,1.67,3.71,3.72-1.67,3.71-3.71,3.71Zm0-6.01c-1.27,0-2.29,1.03-2.29,2.3s1.03,2.29,2.29,2.29,2.29-1.03,2.29-2.29-1.03-2.3-2.29-2.3Z"/><path class="cls-2" d="m24,41.99c-.39,0-.71-.32-.71-.71v-15.78c0-.39.32-.71.71-.71s.71.32.71.71v15.78c0,.39-.32.71-.71.71Z"/><path class="cls-2" d="m10.48,46.5c-2.05,0-3.71-1.67-3.71-3.71s1.67-3.71,3.71-3.71,3.72,1.67,3.72,3.71-1.67,3.71-3.72,3.71Zm0-6.01c-1.27,0-2.29,1.03-2.29,2.29s1.03,2.29,2.29,2.29,2.3-1.03,2.3-2.29-1.03-2.29-2.3-2.29Z"/><path class="cls-2" d="m12.6,41.37c-.16,0-.31-.05-.45-.16-.31-.25-.35-.69-.11-1l2.98-3.69v-4.26c0-.16.05-.32.16-.44l3.01-3.76c.25-.31.69-.36,1-.11.31.25.36.69.11,1l-2.85,3.56v4.26c0,.16-.06.32-.16.45l-3.13,3.89c-.14.17-.35.26-.55.26Z"/><path class="cls-2" d="m37.52,46.5c-2.05,0-3.72-1.67-3.72-3.71s1.67-3.71,3.72-3.71,3.71,1.67,3.71,3.71-1.67,3.71-3.71,3.71Zm0-6.01c-1.27,0-2.3,1.03-2.3,2.29s1.03,2.29,2.3,2.29,2.29-1.03,2.29-2.29-1.03-2.29-2.29-2.29Z"/><path class="cls-2" d="m35.37,41.4c-.21,0-.42-.09-.56-.27l-3.1-3.92c-.1-.13-.15-.28-.15-.44v-4.26l-2.85-3.56c-.25-.31-.2-.75.11-1,.31-.24.75-.2,1,.11l3.01,3.76c.1.13.16.28.16.44v4.26l2.95,3.72c.24.31.19.75-.12,1-.13.1-.29.15-.44.15Z"/><path class="cls-1" d="m47.29,25.46c-.39,0-.71-.32-.71-.71v-3.76c0-.44-.36-.79-.79-.79h-1.06c-.9,0-1.7-.54-2.04-1.37l-1.82-4.4c-.34-.83-.15-1.78.48-2.41l.75-.75c.31-.31.31-.81,0-1.12l-4.25-4.25c-.31-.31-.81-.31-1.12,0l-.75.75c-.64.64-1.58.82-2.41.48l-4.4-1.82c-.83-.34-1.37-1.15-1.37-2.04v-1.06c0-.44-.36-.79-.79-.79h-6.01c-.44,0-.79.36-.79.79v1.06c0,.9-.54,1.7-1.37,2.04l-4.4,1.82c-.83.34-1.78.16-2.41-.48l-.75-.75c-.31-.31-.81-.31-1.12,0l-4.25,4.25c-.31.31-.31.81,0,1.12l.75.75c.63.63.82,1.58.48,2.41l-1.82,4.4c-.34.83-1.15,1.37-2.04,1.37h-1.06c-.44,0-.79.36-.79.79v3.76c0,.39-.32.71-.71.71s-.71-.32-.71-.71v-3.76c0-1.22.99-2.21,2.21-2.21h1.06c.32,0,.61-.19.73-.49l1.82-4.4c.12-.3.06-.64-.17-.86l-.75-.75c-.42-.42-.65-.97-.65-1.56s.23-1.15.65-1.56l4.25-4.25c.84-.84,2.29-.84,3.13,0l.75.75c.23.23.56.3.86.17l4.4-1.82c.3-.12.49-.41.49-.73v-1.06c0-1.22.99-2.21,2.21-2.21h6.01c1.22,0,2.21.99,2.21,2.21v1.06c0,.32.19.61.49.73l4.4,1.82c.3.12.64.06.86-.17l.75-.75c.84-.84,2.29-.84,3.13,0l4.25,4.25c.42.42.65.97.65,1.56s-.23,1.15-.65,1.56l-.75.75c-.23.23-.29.57-.17.86l1.82,4.4c.12.3.41.49.73.49h1.06c1.22,0,2.21.99,2.21,2.21v3.76c0,.39-.32.71-.71.71Z"/><path class="cls-2" d="m41.28,32.22h-4.51c-.39,0-.71-.32-.71-.71v-7.51c0-6.65-5.41-12.06-12.06-12.06s-12.06,5.41-12.06,12.06v7.51c0,.39-.32.71-.71.71h-4.51c-.39,0-.71-.32-.71-.71s.32-.71.71-.71h3.8v-6.8c0-7.43,6.05-13.48,13.48-13.48s13.48,6.05,13.48,13.48v6.8h3.8c.39,0,.71.32.71.71s-.32.71-.71.71Z"/><path class="cls-1" d="m29.26,24.71c-.39,0-.71-.32-.71-.71,0-2.51-2.04-4.55-4.55-4.55s-4.55,2.04-4.55,4.55c0,.39-.32.71-.71.71s-.71-.32-.71-.71c0-3.29,2.68-5.97,5.97-5.97s5.97,2.68,5.97,5.97c0,.39-.32.71-.71.71Z"/></svg>