<?xml version="1.0" encoding="UTF-8"?><svg id="Calque_1" xmlns="http://www.w3.org/2000/svg" viewBox="0 0 48 48"><defs><style>.cls-1{fill:#bc955b;}.cls-1,.cls-2{stroke-width:0px;}.cls-2{fill:#fff;}</style></defs><path class="cls-1" d="m8.23,48c-.17,0-.35-.06-.49-.19-.29-.27-.3-.72-.03-1l2.7-2.88c.98-1.04,2.36-1.64,3.79-1.64h16.66c.35,0,.69-.13.95-.38l14.43-13.59c-2.08-1.79-4.07-1.8-6.39-.07-1.02.76-2.09,1.54-3.11,2.29-1,.73-1.94,1.41-2.73,2.01-.31.24-.76.17-.99-.14-.24-.31-.17-.76.14-.99.8-.6,1.75-1.29,2.75-2.02,1.01-.74,2.08-1.51,3.09-2.27,3.06-2.3,6.02-2.07,8.78.7.14.14.21.32.21.51s-.08.37-.22.51l-14.98,14.11c-.52.49-1.21.76-1.92.76H14.21c-1.04,0-2.04.43-2.75,1.19l-2.7,2.88c-.14.15-.33.22-.52.22Z"/><path class="cls-1" d="m.71,40.08c-.19,0-.38-.07-.52-.22-.27-.29-.25-.73.03-1l3.21-3.03c3.89-4.87,7.13-6.86,11.17-6.86,3.05,0,4.93.32,7.76,2.19h5.58c2.3,0,4.69,1.87,4.69,4.99,0,.76-.58,1.36-1.32,1.36h-11.55c-.39,0-.71-.32-.71-.71s.32-.71.71-.71h11.46c-.03-2.29-1.7-3.52-3.27-3.52h-5.79c-.14,0-.28-.04-.4-.12-2.61-1.75-4.14-2.06-7.15-2.06-3.61,0-6.44,1.79-10.09,6.37-.02.03-.04.05-.07.07l-3.25,3.06c-.14.13-.31.19-.49.19Z"/><path class="cls-2" d="m31.8,26.93c-.37,0-.74-.15-.99-.44l-2.28-2.54s-.15-.08-.22-.09h-2.54c-.11.02-.24.05-.28.09l-2.3,2.55c-.4.45-1.1.57-1.62.26l-3.35-1.94c-.53-.31-.78-.97-.58-1.55l1.05-3.25c.02-.06,0-.19-.03-.24l-1.27-2.2c-.06-.1-.16-.19-.22-.2l-3.36-.72c-.59-.12-1.04-.67-1.04-1.28v-3.87c0-.61.45-1.16,1.05-1.28l3.34-.71c.06-.02.17-.1.2-.15l1.27-2.2c.06-.1.08-.23.07-.29l-1.06-3.26c-.19-.57.06-1.23.58-1.54l3.36-1.94c.53-.3,1.22-.19,1.63.27l2.29,2.54s.16.07.23.09h2.53c.14,0,.24-.05.28-.09l2.3-2.55c.4-.45,1.09-.57,1.62-.26l3.36,1.94c.53.3.78.97.58,1.55l-1.06,3.25c-.02.06,0,.19.03.24l1.27,2.2c.06.1.16.19.22.2l3.36.72c.59.12,1.04.67,1.04,1.27v3.87c0,.61-.45,1.16-1.05,1.28l-3.34.71c-.06.02-.17.1-.2.15l-1.27,2.2c-.06.1-.08.23-.07.28l1.06,3.26c.19.57-.06,1.23-.58,1.54l-3.36,1.94c-.2.11-.42.17-.64.17Zm-9.67-1.38s0,0,0,0h0Zm9.74,0h0s0,0,0,0Zm-3.53-3.11c.42,0,.95.23,1.25.57l2.22,2.48,3.2-1.85-1.03-3.17c-.16-.46-.07-1.09.22-1.5l1.21-2.09c.18-.39.68-.79,1.17-.88l3.26-.7v-3.68s-3.27-.7-3.27-.7c-.47-.09-.98-.49-1.18-.94l-1.21-2.09c-.25-.35-.34-.98-.18-1.45l1.03-3.16-3.19-1.84-2.23,2.48c-.32.36-.91.6-1.4.56h-2.42c-.44.04-1.02-.2-1.35-.57l-2.22-2.47-3.2,1.84,1.03,3.17c.16.46.07,1.09-.22,1.49l-1.21,2.09c-.18.39-.68.79-1.17.88l-3.26.7v3.68s3.27.7,3.27.7c.47.09.98.49,1.18.94l1.21,2.09c.25.35.34.98.18,1.45l-1.03,3.16,3.19,1.84,2.23-2.48c.32-.36.91-.6,1.4-.56h2.42s.07,0,.1,0Zm6.69,1.29s0,0,0,0h0Zm-16.06,0h0s0,0,0,0Zm20.93-8.43s0,0,0,0h0Zm-25.81,0h0s0,0,0,0Zm25.81-3.64s0,0,0,0h0Zm-25.8,0h0s0,0,0,0ZM35.04,3.21s0,0,0,0h0Zm-16.07,0h0s0,0,0,0Zm3.31-1.8h0s0,0,0,0Zm9.6-.02h0s0,0,0,0Z"/><path class="cls-2" d="m26.94,19.14c-3.13,0-5.67-2.54-5.67-5.67s2.54-5.67,5.67-5.67c.39,0,.71.32.71.71s-.32.71-.71.71c-2.35,0-4.25,1.91-4.25,4.25s1.91,4.25,4.25,4.25,4.25-1.91,4.25-4.25c0-.39.32-.71.71-.71s.71.32.71.71c0,3.13-2.54,5.67-5.67,5.67Z"/></svg>