<?xml version="1.0" encoding="UTF-8"?><svg id="Calque_1" xmlns="http://www.w3.org/2000/svg" viewBox="0 0 48 48"><defs><style>.cls-1{fill:#bc955b;}.cls-1,.cls-2{stroke-width:0px;}.cls-2{fill:#fff;}</style></defs><path class="cls-1" d="m12.7,8.16c-2.25,0-4.08-1.83-4.08-4.08S10.45,0,12.7,0s4.08,1.83,4.08,4.08-1.83,4.08-4.08,4.08Zm0-6.74c-1.47,0-2.66,1.19-2.66,2.66s1.19,2.66,2.66,2.66,2.66-1.19,2.66-2.66-1.19-2.66-2.66-2.66Z"/><path class="cls-1" d="m8.43,27.6c-.37,0-.68-.28-.71-.66l-.85-11.51c-.03-.39.26-.73.66-.76.38-.03.73.26.76.66l.85,11.51c.03.39-.26.73-.66.76-.02,0-.04,0-.05,0Z"/><path class="cls-1" d="m35.3,8.16c-2.25,0-4.08-1.83-4.08-4.08s1.83-4.08,4.08-4.08,4.08,1.83,4.08,4.08-1.83,4.08-4.08,4.08Zm0-6.74c-1.47,0-2.66,1.19-2.66,2.66s1.19,2.66,2.66,2.66,2.66-1.19,2.66-2.66-1.19-2.66-2.66-2.66Z"/><path class="cls-1" d="m39.57,27.6s-.04,0-.05,0c-.39-.03-.68-.37-.66-.76l.85-11.51c.03-.39.37-.69.76-.66.39.03.68.37.66.76l-.85,11.51c-.03.37-.34.66-.71.66Z"/><path class="cls-2" d="m26.22,48h-4.44c-.91,0-1.67-.72-1.74-1.65l-.98-13.25c-1.43-.34-3.72-1.45-3.86-3.07l-.76-10.37s0-.03,0-.05c0-2.41,1.91-4.42,4.27-4.47h10.59c2.37.06,4.27,2.07,4.27,4.48,0,.03,0,.1,0,.21l-.76,10.2c-.14,1.63-2.43,2.74-3.86,3.07l-.98,13.25c-.07.92-.83,1.64-1.74,1.64Zm-10.37-28.42l.76,10.34c.06.65,1.71,1.66,3.04,1.85l.13.02c.35.03.62.31.65.66l1.02,13.81c.01.17.17.33.32.33h4.44c.16,0,.31-.16.32-.33l1.02-13.81c.03-.35.3-.62.65-.66l.14-.02c1.33-.2,2.98-1.2,3.04-1.86l.76-10.28c0-1.67-1.29-3.04-2.87-3.08h-10.55c-1.56.04-2.85,1.39-2.87,3.03Z"/><path class="cls-2" d="m24,13.77c-2.25,0-4.08-1.83-4.08-4.08s1.83-4.08,4.08-4.08,4.08,1.83,4.08,4.08-1.83,4.08-4.08,4.08Zm0-6.74c-1.47,0-2.66,1.19-2.66,2.66s1.19,2.66,2.66,2.66,2.66-1.19,2.66-2.66-1.19-2.66-2.66-2.66Z"/><path class="cls-2" d="m28.28,33.21s-.04,0-.05,0c-.39-.03-.68-.37-.66-.76l.85-11.51c.03-.39.39-.68.76-.66.39.03.68.37.66.76l-.85,11.51c-.03.37-.34.66-.71.66Z"/><path class="cls-2" d="m19.73,33.21c-.36,0-.67-.27-.71-.64l-1.1-11.51c-.04-.39.25-.74.64-.77.38-.04.74.25.77.64l1.1,11.51c.04.39-.25.74-.64.77-.02,0-.05,0-.07,0Z"/><path class="cls-1" d="m37.52,42.39h-4.44c-.91,0-1.67-.72-1.74-1.65l-.5-6.69c-.03-.39.26-.73.66-.76.38-.04.73.26.76.66l.5,6.69c.01.17.17.33.32.33h4.44c.16,0,.31-.16.32-.33l1.02-13.81c.03-.35.3-.62.65-.66l.13-.02c1.34-.2,2.99-1.21,3.05-1.86l.76-10.18s0-.07,0-.09c0-1.68-1.29-3.05-2.87-3.09h-10.55c-.39,0-.71-.32-.71-.71s.32-.71.71-.71h10.57c2.36.06,4.27,2.07,4.27,4.48,0,.01,0,.1,0,.21l-.76,10.2c-.14,1.63-2.43,2.74-3.86,3.07l-.98,13.25c-.07.92-.83,1.64-1.74,1.64Z"/><path class="cls-1" d="m14.92,42.39h-4.44c-.91,0-1.67-.72-1.74-1.65l-.98-13.25c-1.43-.33-3.72-1.45-3.86-3.07l-.76-10.37c0-2.46,1.91-4.47,4.27-4.52h10.59c.39,0,.71.32.71.71s-.32.71-.71.71H7.42c-1.57.04-2.86,1.41-2.86,3.05l.76,10.31c.06.65,1.71,1.66,3.04,1.85l.13.02c.35.03.62.31.65.66l1.02,13.81c.01.17.17.33.32.33h4.44c.16,0,.31-.16.32-.33l.5-6.69c.03-.39.39-.69.76-.66.39.03.68.37.66.76l-.5,6.69c-.07.92-.83,1.64-1.74,1.64Z"/></svg>