<?xml version="1.0" encoding="UTF-8"?><svg id="Calque_1" xmlns="http://www.w3.org/2000/svg" viewBox="0 0 48 48"><defs><style>.cls-1{fill:#bc955b;}.cls-1,.cls-2{stroke-width:0px;}.cls-2{fill:#fff;}</style></defs><path class="cls-1" d="m46.34,48c-.39,0-.71-.32-.71-.71V11.27c0-1.55-1.26-2.82-2.82-2.82H12.23c-.39,0-.71-.32-.71-.71s.32-.71.71-.71h30.58c2.34,0,4.24,1.9,4.24,4.24v36.02c0,.39-.32.71-.71.71Z"/><path class="cls-1" d="m32.24,5.26c-.39,0-.71-.32-.71-.71V1.42H1.66c-.39,0-.71-.32-.71-.71s.32-.71.71-.71h30.58c.39,0,.71.32.71.71v3.84c0,.39-.32.71-.71.71Z"/><path class="cls-1" d="m15.76,48c-.39,0-.71-.32-.71-.71V11.27c0-1.55-1.26-2.82-2.82-2.82s-2.82,1.26-2.82,2.82v18.66c0,2.34-1.9,4.24-4.24,4.24s-4.24-1.9-4.24-4.24V.71c0-.39.32-.71.71-.71s.71.32.71.71v29.23c0,1.55,1.26,2.82,2.82,2.82s2.82-1.26,2.82-2.82V11.27c0-2.34,1.9-4.24,4.24-4.24s4.24,1.9,4.24,4.24v36.02c0,.39-.32.71-.71.71Z"/><path class="cls-2" d="m39.5,22.27h-16.89c-.39,0-.71-.32-.71-.71s.32-.71.71-.71h16.89c.39,0,.71.32.71.71s-.32.71-.71.71Z"/><path class="cls-2" d="m39.5,16.39h-16.89c-.39,0-.71-.32-.71-.71s.32-.71.71-.71h16.89c.39,0,.71.32.71.71s-.32.71-.71.71Z"/><path class="cls-2" d="m39.5,28.16h-16.89c-.39,0-.71-.32-.71-.71s.32-.71.71-.71h16.89c.39,0,.71.32.71.71s-.32.71-.71.71Z"/><path class="cls-2" d="m39.5,34.04h-16.89c-.39,0-.71-.32-.71-.71s.32-.71.71-.71h16.89c.39,0,.71.32.71.71s-.32.71-.71.71Z"/><path class="cls-2" d="m39.5,39.92h-8.45c-.39,0-.71-.32-.71-.71s.32-.71.71-.71h8.45c.39,0,.71.32.71.71s-.32.71-.71.71Z"/><path class="cls-1" d="m12.56,34.17h-7.38c-.39,0-.71-.32-.71-.71s.32-.71.71-.71h7.38c.39,0,.71.32.71.71s-.32.71-.71.71Z"/><path class="cls-1" d="m46.34,48H15.76c-.39,0-.71-.32-.71-.71s.32-.71.71-.71h30.58c.39,0,.71.32.71.71s-.32.71-.71.71Z"/></svg>