<?xml version="1.0" encoding="UTF-8"?><svg id="Calque_1" xmlns="http://www.w3.org/2000/svg" viewBox="0 0 48 48"><defs><style>.cls-1{fill:#bc955b;}.cls-1,.cls-2{stroke-width:0px;}.cls-2{fill:#fff;}</style></defs><path class="cls-2" d="m24,9.43c-1.98,0-3.6-1.61-3.6-3.6s1.61-3.6,3.6-3.6,3.6,1.61,3.6,3.6-1.61,3.6-3.6,3.6Zm0-5.78c-1.2,0-2.18.98-2.18,2.18s.98,2.18,2.18,2.18,2.18-.98,2.18-2.18-.98-2.18-2.18-2.18Z"/><path class="cls-1" d="m7.49,15.79c-1.98,0-3.6-1.61-3.6-3.6s1.61-3.6,3.6-3.6,3.6,1.61,3.6,3.6-1.61,3.6-3.6,3.6Zm0-5.78c-1.2,0-2.18.98-2.18,2.18s.98,2.18,2.18,2.18,2.18-.98,2.18-2.18-.98-2.18-2.18-2.18Z"/><path class="cls-1" d="m4.18,32.44c-.37,0-.68-.28-.71-.66l-.73-9.87c-.03-.39.26-.73.66-.76.4-.03.73.26.76.66l.73,9.87c.03.39-.26.73-.66.76-.02,0-.04,0-.05,0Z"/><path class="cls-1" d="m11.44,32.44s-.04,0-.05,0c-.39-.03-.68-.37-.66-.76l.73-9.87c.03-.39.35-.68.76-.66.39.03.68.37.66.76l-.73,9.87c-.03.37-.34.66-.71.66Z"/><path class="cls-1" d="m40.51,15.79c-1.98,0-3.6-1.61-3.6-3.6s1.61-3.6,3.6-3.6,3.6,1.61,3.6,3.6-1.61,3.6-3.6,3.6Zm0-5.78c-1.2,0-2.18.98-2.18,2.18s.98,2.18,2.18,2.18,2.18-.98,2.18-2.18-.98-2.18-2.18-2.18Z"/><path class="cls-1" d="m43.82,32.44s-.04,0-.05,0c-.39-.03-.68-.37-.66-.76l.73-9.87c.03-.39.35-.68.76-.66.39.03.68.37.66.76l-.73,9.87c-.03.37-.34.66-.71.66Z"/><path class="cls-1" d="m36.56,32.44c-.37,0-.68-.28-.71-.66l-.73-9.87c-.03-.39.26-.73.66-.76.41-.03.73.26.76.66l.73,9.87c.03.39-.26.73-.66.76-.02,0-.04,0-.05,0Z"/><path class="cls-1" d="m10.57,44.28s-.04,0-.05,0c-.39-.03-.68-.37-.66-.76l.88-11.83c.03-.34.29-.62.64-.65h.11c.97-.16,2.02-.92,2.07-1.52l.65-8.87c0-1.3-1.07-2.43-2.37-2.46H3.77c-1.29.03-2.35,1.16-2.35,2.52l.65,8.83c.05.59,1.1,1.35,2.07,1.49h.1c.35.04.63.32.65.67l.88,11.83c.03.39-.26.73-.66.76-.41.02-.73-.26-.76-.66l-.83-11.28c-1.36-.35-2.75-1.43-2.86-2.7L0,20.9c0-.12,0-.19,0-.23,0-2.1,1.68-3.86,3.75-3.92h8.1c2.09.05,3.77,1.82,3.77,3.93l-.65,8.93c-.11,1.28-1.5,2.36-2.86,2.71l-.83,11.28c-.03.37-.34.66-.71.66Z"/><path class="cls-1" d="m37.43,44.28c-.37,0-.68-.28-.71-.66l-.83-11.28c-1.36-.35-2.75-1.44-2.86-2.7l-.65-8.89c0-2.17,1.68-3.93,3.75-3.99h8.1c2.08.05,3.77,1.82,3.77,3.94,0,.02,0,.08,0,.18l-.65,8.76c-.11,1.27-1.5,2.35-2.86,2.71l-.83,11.28c-.03.39-.36.67-.76.66-.39-.03-.68-.37-.66-.76l.88-11.83c.03-.35.3-.63.65-.66h.1c.97-.16,2.01-.91,2.07-1.51l.65-8.72c0-1.46-1.06-2.58-2.36-2.62h-8.06c-1.29.03-2.35,1.16-2.35,2.51l.65,8.83c.05.59,1.09,1.35,2.07,1.5h.12c.34.05.61.32.64.67l.88,11.83c.03.39-.26.73-.66.76-.02,0-.04,0-.05,0Z"/><path class="cls-2" d="m26.75,37.92s-.05,0-.07,0c-.39-.04-.67-.39-.63-.78l2.24-22.1c.04-.6.3-1.19.72-1.64l6.28-8.17c.46-.47.68-1,.68-1.56,0-.32-.07-.62-.2-.9l-7.41,7.41c-1.15,1.16-2.76,1.76-4.36,1.78-1.6,0-3.19-.62-4.34-1.78l-7.41-7.41c-.13.28-.2.58-.2.9,0,.56.22,1.09.62,1.49l6.38,8.29c.38.4.64.99.68,1.61l2.24,22.09c.04.39-.24.74-.63.78-.38.05-.74-.24-.78-.63l-2.24-22.1c-.02-.32-.15-.6-.35-.82l-6.36-8.27c-.61-.6-.97-1.48-.97-2.42,0-.94.37-1.83,1.03-2.49.28-.28.73-.28,1,0l8,8c.88.88,2.08,1.36,3.34,1.36,1.26,0,2.48-.48,3.36-1.36l8-8c.28-.28.73-.28,1,0,.67.67,1.03,1.55,1.03,2.49,0,.94-.37,1.83-1.03,2.49l-6.26,8.15c-.25.27-.37.55-.39.85l-2.24,22.12c-.04.37-.35.64-.71.64Z"/><path class="cls-2" d="m24,9.43c-1.98,0-3.6-1.61-3.6-3.6s1.61-3.6,3.6-3.6,3.6,1.61,3.6,3.6-1.61,3.6-3.6,3.6Zm0-5.78c-1.2,0-2.18.98-2.18,2.18s.98,2.18,2.18,2.18,2.18-.98,2.18-2.18-.98-2.18-2.18-2.18Z"/><path class="cls-2" d="m47.26,47.04h-15.72c-.39,0-.71-.32-.71-.71v-5.65h-13.65v5.65c0,.39-.32.71-.71.71H.74c-.39,0-.71-.32-.71-.71s.32-.71.71-.71h15.01v-5.65c0-.39.32-.71.71-.71h15.07c.39,0,.71.32.71.71v5.65h15.01c.39,0,.71.32.71.71s-.32.71-.71.71Z"/></svg>