<?xml version="1.0" encoding="UTF-8"?><svg id="Calque_1" xmlns="http://www.w3.org/2000/svg" viewBox="0 0 48 48"><defs><style>.cls-1{fill:#bc955b;}.cls-1,.cls-2{stroke-width:0px;}.cls-2{fill:#fff;}</style></defs><path class="cls-2" d="m9.6,16.35c-.24,0-.47-.12-.6-.33l-2.32-3.62c-.21-.33-.12-.77.21-.98.33-.21.77-.12.98.21l1.72,2.69,3.27-5.09c.21-.33.65-.42.98-.21.33.21.43.65.21.98l-3.87,6.03c-.13.2-.36.33-.6.33Z"/><path class="cls-1" d="m29.54,13.34h-11.75c-.39,0-.71-.32-.71-.71s.32-.71.71-.71h11.75c.39,0,.71.32.71.71s-.32.71-.71.71Z"/><path class="cls-2" d="m9.6,39.1c-.24,0-.47-.12-.6-.33l-2.32-3.62c-.21-.33-.12-.77.21-.98.33-.21.77-.12.98.21l1.72,2.69,3.27-5.09c.21-.33.65-.43.98-.21.33.21.43.65.21.98l-3.87,6.03c-.13.2-.36.33-.6.33Z"/><path class="cls-2" d="m9.6,27.72c-.24,0-.47-.12-.6-.33l-2.32-3.62c-.21-.33-.12-.77.21-.98.33-.21.77-.12.98.21l1.72,2.69,3.27-5.09c.21-.33.65-.43.98-.21.33.21.43.65.21.98l-3.87,6.03c-.13.2-.36.33-.6.33Z"/><path class="cls-1" d="m24.45,24.71h-6.66c-.39,0-.71-.32-.71-.71s.32-.71.71-.71h6.66c.39,0,.71.32.71.71s-.32.71-.71.71Z"/><path class="cls-2" d="m43.85,18.26c-.18,0-.36-.07-.5-.21l-4.53-4.53c-.28-.28-.28-.73,0-1s.73-.28,1,0l4.53,4.53c.28.28.28.73,0,1-.14.14-.32.21-.5.21Z"/><path class="cls-2" d="m18.21,39.37c-.18,0-.37-.07-.5-.21-.21-.2-.26-.51-.15-.78l3.36-7.89c.04-.08.09-.16.15-.22l21.15-21.15c.27-.27.74-.27,1,0l4.53,4.53c.28.28.28.73,0,1l-21.15,21.15c-.06.06-.14.12-.22.15l-7.89,3.36c-.09.04-.18.06-.28.06Zm3.96-8.2l-2.61,6.14,6.14-2.61,20.55-20.55-3.53-3.53-20.55,20.55Z"/><path class="cls-2" d="m26.23,35.63c-.18,0-.36-.07-.5-.21l-2.38-2.38c-.28-.28-.28-.73,0-1s.73-.28,1,0l2.38,2.38c.28.28.28.73,0,1-.14.14-.32.21-.5.21Z"/><path class="cls-1" d="m35.16,48H1.83c-.99,0-1.79-.8-1.79-1.79V1.79C.04.8.84,0,1.83,0h33.33c.99,0,1.79.8,1.79,1.79v10.47c0,.39-.32.71-.71.71s-.71-.32-.71-.71V1.79c0-.21-.17-.37-.37-.37H1.83c-.21,0-.37.17-.37.37v44.42c0,.21.17.37.37.37h33.33c.21,0,.37-.17.37-.37v-17.2c0-.39.32-.71.71-.71s.71.32.71.71v17.2c0,.99-.8,1.79-1.79,1.79Z"/></svg>