<?xml version="1.0" encoding="UTF-8"?><svg id="Calque_1" xmlns="http://www.w3.org/2000/svg" viewBox="0 0 48 48"><defs><style>.cls-1{fill:#bc955b;}.cls-1,.cls-2{stroke-width:0px;}.cls-2{fill:#fff;}</style></defs><path class="cls-2" d="m13.19,10.24h-1.27c-.39,0-.71-.32-.71-.71s.32-.71.71-.71h1.27c.39,0,.71.32.71.71s-.32.71-.71.71Z"/><path class="cls-1" d="m20.84,6.94H4.26c-.39,0-.71-.32-.71-.71s.32-.71.71-.71h16.58c.39,0,.71.32.71.71s-.32.71-.71.71Z"/><path class="cls-1" d="m34.09,45.52c-.07,0-.15-.01-.22-.03l-17.2-5.56c-.57-.19-1.03-.64-1.22-1.21-.18-.55-.1-1.13.23-1.6,1.26-1.77,3.13-2.44,5.57-1.98l3.32.77-11.39-11.9c-.61-.64-.91-1.5-.81-2.38.09-.88.56-1.67,1.3-2.17,1.19-.82,2.88-.6,3.93.5l4.96,5.19c.18-.7.61-1.31,1.22-1.73,1.16-.8,2.8-.61,3.85.42.18-.7.61-1.31,1.22-1.73,1.16-.79,2.79-.61,3.85.42.18-.7.61-1.31,1.22-1.73,1.19-.81,2.88-.6,3.93.5l9.96,10.4c.27.28.26.73-.02,1-.28.27-.73.26-1-.02l-9.96-10.4c-.58-.6-1.48-.74-2.1-.31-.4.27-.64.68-.69,1.14-.05.46.11.92.43,1.25.27.28.26.73-.02,1-.28.27-.73.26-1-.02l-1.68-1.75c-.58-.6-1.48-.74-2.1-.31-.4.27-.64.68-.69,1.14-.05.46.11.92.43,1.25h0c.27.28.26.73-.02,1-.28.27-.73.26-1-.02l-1.68-1.76c-.58-.6-1.48-.74-2.1-.31-.4.27-.64.68-.69,1.14-.05.46.11.92.43,1.25.27.28.26.73-.02,1-.28.27-.73.26-1-.02h0s-6.72-7.03-6.72-7.03c-.58-.6-1.48-.74-2.1-.31-.4.27-.64.68-.69,1.15-.05.46.11.92.43,1.25l11.9,12.44c.36.38.44.94.18,1.41-.25.46-.77.7-1.29.6l-4.05-.94c-1.87-.35-3.19.1-4.12,1.42-.08.12-.07.24-.04.33.05.15.16.26.31.31l17.2,5.56c.37.12.58.52.46.89-.1.3-.38.49-.68.49Z"/><path class="cls-2" d="m16.42,43.45H6.75c-.43,0-.86-.09-1.26-.27-1.18-.53-1.94-1.74-1.94-3.07V15.35c0-1.84,1.43-3.34,3.19-3.34h11.62c1.76,0,3.19,1.5,3.19,3.34v4c0,.39-.32.71-.71.71s-.71-.32-.71-.71v-4c0-1.06-.79-1.92-1.77-1.92H6.75c-.98,0-1.77.86-1.77,1.92v24.76c0,.78.43,1.48,1.1,1.78.21.1.44.15.67.15h9.67c.39,0,.71.32.71.71s-.32.71-.71.71Z"/><path class="cls-1" d="m20.85,47.79H4.26c-.57,0-1.13-.11-1.65-.34-1.58-.67-2.6-2.21-2.6-3.92V4.46c0-.85.25-1.67.73-2.38C1.53.91,2.84.21,4.26.21h16.6c1.71,0,3.25,1.02,3.92,2.6.22.53.34,1.08.34,1.65v15.79c0,.39-.32.71-.71.71s-.71-.32-.71-.71V4.46c0-.38-.08-.75-.22-1.1-.45-1.05-1.47-1.74-2.61-1.74H4.26c-.94,0-1.82.47-2.35,1.25-.32.47-.49,1.02-.49,1.58v39.07c0,1.14.68,2.16,1.74,2.61.35.15.72.22,1.1.22h16.6c.38,0,.75-.08,1.1-.22.59-.25,1.09-.71,1.4-1.29.18-.35.62-.48.96-.29.35.18.48.61.29.96-.46.87-1.21,1.55-2.1,1.93-.52.22-1.08.34-1.65.34Z"/></svg>