<?xml version="1.0" encoding="UTF-8"?><svg id="Calque_1" xmlns="http://www.w3.org/2000/svg" viewBox="0 0 48 48"><defs><style>.cls-1{fill:#bc955b;}.cls-1,.cls-2{stroke-width:0px;}.cls-2{fill:#fff;}</style></defs><path class="cls-1" d="m24,40.69c-9.2,0-16.69-7.49-16.69-16.69,0-3.21.91-6.33,2.64-9.01.21-.33.65-.42.98-.21.33.21.43.65.21.98-1.58,2.46-2.42,5.31-2.42,8.24,0,8.42,6.85,15.27,15.27,15.27.39,0,.71.32.71.71s-.32.71-.71.71Z"/><path class="cls-1" d="m37.45,33.34c-.13,0-.26-.04-.38-.11-.33-.21-.43-.65-.21-.98,1.58-2.46,2.42-5.31,2.42-8.25,0-8.42-6.85-15.27-15.27-15.27-.39,0-.71-.32-.71-.71s.32-.71.71-.71c9.2,0,16.69,7.49,16.69,16.69,0,3.21-.91,6.33-2.64,9.01-.14.21-.37.33-.6.33Z"/><path class="cls-2" d="m25.2,36.25h-2.41c-.52,0-1-.38-1.11-.89l-.6-2.16-1.54-.64-1.97,1.12c-.41.26-1.01.19-1.38-.17l-1.7-1.7c-.37-.37-.43-.98-.15-1.42l1.1-1.95-.64-1.54-2.18-.6c-.47-.1-.85-.58-.85-1.1v-2.41c0-.52.38-1,.89-1.11l2.16-.6.63-1.54-1.12-1.97c-.26-.41-.19-1.01.17-1.38l1.7-1.7c.37-.37.97-.43,1.41-.16l1.95,1.1,1.54-.64.6-2.18c.1-.47.58-.85,1.1-.85h2.41c.52,0,1,.38,1.11.89l.6,2.16,1.54.63,1.97-1.12c.4-.26,1.01-.19,1.38.17h0s1.7,1.7,1.7,1.7c.37.37.43.98.15,1.41l-1.1,1.95.64,1.54,2.18.6c.47.1.85.58.85,1.1v2.41c0,.52-.38,1-.89,1.11l-2.16.6-.63,1.54,1.12,1.97c.26.41.19,1.01-.17,1.38l-1.7,1.7c-.37.37-.98.44-1.41.15l-1.95-1.1-1.54.64-.6,2.18c-.11.47-.58.85-1.1.85Zm-.27-1.23s0,.02,0,.04v-.04Zm-1.88-.03v.03s0-.02,0-.03Zm-.04-.16h1.98l.56-2.01c.09-.4.45-.8.87-.94l1.5-.62c.36-.18.89-.15,1.26.09l1.78,1,1.39-1.39-1.03-1.81c-.22-.34-.25-.88-.05-1.28l.62-1.51c.13-.38.53-.74.96-.83l1.97-.55v-1.98l-2.01-.55c-.39-.08-.8-.44-.94-.87l-.62-1.51c-.18-.35-.15-.89.09-1.27l1-1.78-1.39-1.39-1.81,1.03c-.34.22-.88.25-1.28.05l-1.51-.62c-.38-.13-.73-.53-.83-.96l-.55-1.97h-1.98l-.55,2.01c-.08.4-.45.8-.87.94l-1.5.62c-.35.18-.89.15-1.26-.09l-1.78-1-1.39,1.39,1.03,1.81c.22.34.25.88.05,1.28l-.62,1.51c-.13.38-.53.73-.96.83l-1.97.55v1.98l2.01.55c.39.08.8.45.94.87l.62,1.51c.18.35.15.89-.09,1.26l-1,1.78,1.4,1.39,1.81-1.03c.34-.22.88-.25,1.28-.05l1.51.62c.38.13.74.53.83.96l.55,1.97Zm-6.14-2.38s-.02.01-.03.02l.03-.02Zm14.23,0h.02s-.02,0-.02,0Zm1.34-1.31s.01.02.02.03l-.02-.03Zm-16.89-.03v.02s0-.02,0-.02Zm19.46-6.16s-.02,0-.03,0h.03Zm-22.07-.02h.04s-.03,0-.04,0Zm22.07-1.85s.03,0,.04.01h-.04Zm-22.01-.01h-.03s.02,0,.03,0Zm19.44-6.18s0,.02-.01.02v-.02Zm-16.92-.04l.02.03s-.01-.02-.02-.03Zm1.34-1.29s.01,0,.02.01h-.02Zm14.29-.01l-.03.02s.02-.01.03-.02Zm-6.22-2.55s0,.02,0,.03v-.03Zm-1.86-.04v.04s0-.03,0-.04Zm.92,17.02c-1.59,0-3.09-.62-4.22-1.75s-1.75-2.62-1.75-4.22c0-3.29,2.68-5.96,5.96-5.96.39,0,.71.32.71.71s-.32.71-.71.71c-2.51,0-4.54,2.04-4.54,4.54,0,1.21.47,2.35,1.33,3.21s2,1.33,3.21,1.33c2.51,0,4.54-2.04,4.54-4.54,0-.39.32-.71.71-.71s.71.32.71.71c0,3.29-2.68,5.96-5.96,5.96Z"/><path class="cls-1" d="m7.48,16.01c-.15,0-.3-.05-.42-.14L.29,10.81c-.18-.13-.29-.35-.29-.57s.11-.43.29-.57l6.77-5.06c.22-.16.5-.19.74-.07.24.12.39.37.39.63v2.13h15.81c.39,0,.71.32.71.71s-.32.71-.71.71H7.48c-.39,0-.71-.32-.71-.71v-1.42l-4.88,3.64,4.88,3.64v-1.42c0-.39.32-.71.71-.71h11.57c.39,0,.71.32.71.71s-.32.71-.71.71h-10.86v2.13c0,.27-.15.51-.39.63-.1.05-.21.08-.32.08Z"/><path class="cls-1" d="m40.52,43.53c-.11,0-.22-.02-.32-.08-.24-.12-.39-.37-.39-.63v-2.13h-15.81c-.39,0-.71-.32-.71-.71s.32-.71.71-.71h16.52c.39,0,.71.32.71.71v1.42l4.88-3.64-4.88-3.64v1.42c0,.39-.32.71-.71.71h-11.57c-.39,0-.71-.32-.71-.71s.32-.71.71-.71h10.86v-2.13c0-.27.15-.51.39-.63.24-.12.53-.09.74.07l6.77,5.06c.18.13.29.35.29.57s-.11.43-.29.57l-6.77,5.06c-.12.09-.27.14-.42.14Z"/></svg>