<?xml version="1.0" encoding="UTF-8"?><svg id="Calque_1" xmlns="http://www.w3.org/2000/svg" viewBox="0 0 48 48"><defs><style>.cls-1{fill:#bc955b;}.cls-1,.cls-2{stroke-width:0px;}.cls-2{fill:#fff;}</style></defs><path class="cls-2" d="m18.33,10.11h-1.28c-.39,0-.71-.32-.71-.71s.32-.71.71-.71h1.28c.39,0,.71.32.71.71s-.32.71-.71.71Z"/><path class="cls-1" d="m26.06,48H9.32c-2.36,0-4.29-1.92-4.29-4.29V4.29C5.03,1.92,6.95,0,9.32,0h16.75c2.36,0,4.29,1.92,4.29,4.29v8.38c0,.39-.32.71-.71.71s-.71-.32-.71-.71V4.29c0-1.58-1.29-2.87-2.87-2.87H9.32c-1.58,0-2.87,1.29-2.87,2.87v39.42c0,1.58,1.29,2.87,2.87,2.87h16.75c1.58,0,2.87-1.29,2.87-2.87v-7.2c0-.39.32-.71.71-.71s.71.32.71.71v7.2c0,2.36-1.92,4.29-4.29,4.29Z"/><path class="cls-2" d="m25.16,37.2c-.21,0-.43-.05-.62-.16l-3.13-1.81c-.51-.29-.75-.94-.56-1.5l1.2-3.25s-.01-.1-.03-.14l-1.15-1.99c-.05-.08-.12-.14-.16-.15l-3.36-.57c-.6-.12-1.04-.65-1.04-1.24v-3.61c0-.59.43-1.12,1.01-1.24l3.41-.58s.08-.06.1-.1l1.15-1.99c.05-.08.06-.17.05-.21l-1.19-3.2c-.2-.58.04-1.22.56-1.52l3.14-1.81c.51-.3,1.19-.18,1.58.26,0,0,0,0,.01.01l2.19,2.65s.1.04.14.04h2.29c.11-.01.18-.04.21-.06l2.18-2.63c.4-.46,1.08-.57,1.59-.28l3.13,1.81c.51.3.75.94.56,1.5l-1.21,3.25s.01.1.03.14l1.15,1.99c.05.08.12.14.16.15l3.37.57c.6.12,1.04.65,1.04,1.24v3.61c0,.59-.43,1.12-1.01,1.24l-3.41.58s-.08.06-.1.1l-1.15,1.99c-.05.08-.06.17-.05.21l1.19,3.2c.2.58-.04,1.22-.56,1.52l-3.13,1.81c-.51.3-1.19.18-1.58-.26l-2.21-2.67s-.09-.04-.13-.04h-2.29c-.11,0-.18.04-.21.07l-2.18,2.63c-.25.29-.61.44-.97.44Zm.09-1.39h0,0Zm-3.01-1.74l2.9,1.67,2.1-2.54c.33-.37.87-.59,1.35-.55h2.18c.41-.04.96.17,1.27.53l2.11,2.55,2.9-1.68-1.15-3.08c-.16-.47-.08-1.05.2-1.44l1.09-1.89c.17-.37.64-.74,1.1-.83l3.27-.56v-3.34s-3.25-.55-3.25-.55c-.48-.1-.95-.46-1.15-.89l-1.09-1.89c-.24-.33-.32-.92-.17-1.37l1.15-3.11-2.9-1.67-2.1,2.54c-.32.37-.86.59-1.34.55h-2.18c-.41.04-.96-.18-1.27-.53l-2.11-2.55-2.9,1.68,1.15,3.09c.16.47.08,1.05-.19,1.44l-1.09,1.89c-.17.37-.63.74-1.1.83l-3.27.56v3.34s3.25.55,3.25.55c.49.1.95.46,1.15.89l1.09,1.89c.24.34.32.92.17,1.37l-1.15,3.11Zm14.93-.08s0,0,0,0h0Z"/><path class="cls-2" d="m29.64,29.35c-2.62,0-4.75-2.13-4.75-4.75s2.13-4.75,4.75-4.75c.39,0,.71.32.71.71s-.32.71-.71.71c-1.84,0-3.33,1.5-3.33,3.33s1.5,3.33,3.33,3.33,3.33-1.5,3.33-3.33c0-.39.32-.71.71-.71s.71.32.71.71c0,2.62-2.13,4.75-4.75,4.75Z"/><path class="cls-2" d="m23.55,43.62h-11.72c-1.77,0-3.21-1.51-3.21-3.37V15.28c0-1.86,1.44-3.37,3.21-3.37h7.41c.39,0,.71.32.71.71s-.32.71-.71.71h-7.41c-.99,0-1.79.87-1.79,1.95v24.98c0,1.07.81,1.95,1.79,1.95h11.72c.99,0,1.79-.87,1.79-1.95,0-.39.32-.71.71-.71s.71.32.71.71c0,1.86-1.44,3.37-3.21,3.37Z"/><path class="cls-1" d="m26.06,6.78H9.32c-.39,0-.71-.32-.71-.71s.32-.71.71-.71h16.73c.39,0,.71.32.71.71s-.32.71-.71.71Z"/></svg>