<?xml version="1.0" encoding="UTF-8"?><svg id="Calque_1" xmlns="http://www.w3.org/2000/svg" viewBox="0 0 48 48"><defs><style>.cls-1{fill:#bc955b;}.cls-1,.cls-2{stroke-width:0px;}.cls-2{fill:#fff;}</style></defs><path class="cls-2" d="m36.18,9.2c-2.54,0-4.6-2.06-4.6-4.6s2.06-4.6,4.6-4.6,4.6,2.06,4.6,4.6-2.06,4.6-4.6,4.6Zm0-7.78c-1.75,0-3.18,1.43-3.18,3.18s1.43,3.18,3.18,3.18,3.18-1.43,3.18-3.18-1.43-3.18-3.18-3.18Z"/><path class="cls-2" d="m32.46,48c-.37,0-.68-.28-.71-.66l-1.17-15.75c-2.14-.12-4.29-1.33-4.46-3.91l-.88-11.58c0-2.77,2.16-5.04,4.81-5.1h12.2c2.67.07,4.83,2.33,4.83,5.05l-.88,11.65c-.16,2.57-2.31,3.78-4.45,3.9l-1.15,15.75c-.03.39-.37.68-.76.66-.39-.03-.69-.37-.66-.76l1.19-16.38c.01-.18.09-.35.23-.47.14-.13.36-.22.55-.22,1.29.07,3.5-.42,3.63-2.59l.88-11.6c0-1.9-1.54-3.53-3.43-3.58h-12.17c-1.88.05-3.41,1.68-3.41,3.63l.88,11.54c.14,2.18,2.34,2.65,3.64,2.59.2,0,.38.06.51.19.13.12.25.32.26.5l1.21,16.38c.03.39-.26.73-.66.76-.02,0-.04,0-.05,0Z"/><path class="cls-2" d="m41.11,31.62s-.04,0-.05,0c-.39-.03-.68-.37-.66-.76l.98-13.28c.03-.39.39-.69.76-.66.39.03.68.37.66.76l-.98,13.28c-.03.37-.34.66-.71.66Z"/><path class="cls-2" d="m31.25,31.62c-.37,0-.68-.28-.71-.66l-.98-13.28c-.03-.39.26-.73.66-.76.38-.04.73.26.76.66l.98,13.28c.03.39-.26.73-.66.76-.02,0-.04,0-.05,0Z"/><path class="cls-2" d="m32.46,48H1.68c-.39,0-.71-.32-.71-.71s.32-.71.71-.71h30.79c.39,0,.71.32.71.71s-.32.71-.71.71Z"/><path class="cls-2" d="m46.4,48h-6.48c-.39,0-.71-.32-.71-.71s.32-.71.71-.71h6.48c.39,0,.71.32.71.71s-.32.71-.71.71Z"/><path class="cls-1" d="m19.37,32.31c-4.45,0-8.07-3.62-8.07-8.07s3.62-8.07,8.07-8.07c1.49,0,2.95.42,4.23,1.2.33.21.44.64.23.98-.21.33-.64.44-.98.23-1.05-.65-2.26-.99-3.48-.99-3.67,0-6.65,2.98-6.65,6.65s2.98,6.65,6.65,6.65c1.67,0,3.27-.63,4.5-1.77.29-.27.74-.25,1,.04.27.29.25.74-.04,1-1.5,1.38-3.44,2.14-5.46,2.14Z"/><path class="cls-1" d="m19.39,42.74c-.59,0-1.17-.03-1.76-.08-.45-.04-1-.32-1.15-.83-.53-1.88-.78-2.88-.89-3.44-1.25-.33-2.44-.82-3.55-1.46-.47.31-1.35.85-3.06,1.8-.47.26-1.06.07-1.41-.22-.89-.73-1.71-1.56-2.45-2.46-.29-.35-.48-.94-.22-1.4.95-1.71,1.49-2.59,1.8-3.06-.64-1.11-1.14-2.3-1.47-3.54-.55-.11-1.55-.36-3.44-.89-.51-.14-.79-.7-.84-1.15-.11-1.15-.11-2.32,0-3.48.04-.45.32-1,.84-1.15,1.88-.53,2.89-.78,3.44-.89.34-1.29.83-2.46,1.46-3.55-.31-.47-.84-1.35-1.8-3.07-.24-.52-.05-1.08.22-1.41.74-.89,1.56-1.71,2.46-2.45.32-.27.88-.46,1.35-.25,1.74.97,2.64,1.51,3.11,1.83,1.11-.64,2.3-1.14,3.54-1.47.11-.55.36-1.56.89-3.44.2-.54.73-.8,1.15-.84,1.15-.11,2.32-.11,3.48,0,.45.04,1,.32,1.15.84.53,1.89.78,2.89.89,3.44.63.17,1.26.38,1.87.64.36.15.53.57.38.93-.15.36-.57.53-.93.38-.69-.29-1.4-.52-2.11-.68-.33-.08-.55-.37-.55-.7-.01-.11-.11-.75-.86-3.42-1.07-.11-2.12-.11-3.15-.01-.75,2.67-.85,3.32-.86,3.43,0,.33-.22.62-.55.7-1.42.33-2.76.89-4,1.66-.16.1-.35.13-.54.09-.13-.03-.25-.1-.35-.2-.09-.07-.6-.46-3.02-1.81-.83.68-1.57,1.42-2.24,2.22,1.36,2.43,1.74,2.95,1.81,3.04.23.23.28.59.1.88-.76,1.22-1.32,2.57-1.65,3.99-.02.2-.13.35-.29.47-.13.09-.28.12-.44.1-.17.02-.88.14-3.39.85-.11,1.07-.11,2.12-.01,3.15,2.68.76,3.32.85,3.43.86h0c.32,0,.61.22.69.55.33,1.42.89,2.76,1.66,4,.1.16.13.35.09.54-.03.13-.1.25-.2.35-.07.09-.45.6-1.81,3.02.68.84,1.42,1.58,2.22,2.23,2.42-1.36,2.95-1.74,3.03-1.81.23-.23.6-.29.88-.11,1.23.77,2.58,1.32,4,1.65.18.04.34.16.44.32.07.12.11.25.11.38.01.11.1.74.86,3.42,1.08.11,2.12.11,3.15.01.7-2.46.83-3.04.85-3.17,0-.03,0-.05.01-.08.06-.29.28-.51.57-.57,1.19-.21,2.37-.96,3.51-1.68l.46-.29c.29-.18.65-.13.88.1.07.06.44.33,1.96,1.2.34.2.46.63.26.97-.2.34-.63.46-.97.26-.91-.52-1.45-.86-1.78-1.08l-.05.03c-1.07.68-2.26,1.44-3.55,1.78-.13.59-.4,1.53-.84,3.09-.15.52-.7.79-1.15.84-.57.05-1.15.08-1.72.08ZM2.19,25.78s0,0,0,0c0,0,0,0,0,0Zm0-3.04s0,0,0,0c0,0,0,0,0,0ZM20.9,7.08s0,0,0,0c0,0,0,0,0,0Z"/></svg>