<?xml version="1.0" encoding="UTF-8"?><svg id="Calque_1" xmlns="http://www.w3.org/2000/svg" viewBox="0 0 48 48"><defs><style>.cls-1{fill:#bc955b;}.cls-1,.cls-2{stroke-width:0px;}.cls-2{fill:#fff;}</style></defs><path class="cls-1" d="m24.46,21c-.09,0-.18,0-.27,0-3.56-.18-4.79-2.56-4.96-3.47-.07-.39.18-.76.56-.83.38-.08.76.18.83.56,0,.02.55,2.16,3.64,2.31,1.79.08,2.99-1.04,3.1-2.17.11-1.05-.69-2.31-3.25-2.72-2.62-.41-4.17-1.68-4.15-3.39.02-1.86,1.34-3.3,3.36-3.65,2.04-.36,4.55.5,5.43,2.84.14.37-.05.78-.42.91-.37.14-.78-.05-.91-.42-.6-1.61-2.39-2.19-3.85-1.94-.51.09-2.16.52-2.19,2.27-.02,1.39,2.26,1.86,2.96,1.97,3.54.56,4.61,2.65,4.44,4.27-.18,1.73-1.83,3.45-4.32,3.45Z"/><path class="cls-1" d="m24.29,8.98c-.39,0-.71-.32-.71-.71v-2.99c0-.39.32-.71.71-.71s.71.32.71.71v2.99c0,.39-.32.71-.71.71Z"/><path class="cls-1" d="m24.29,23.99c-.39,0-.71-.32-.71-.71v-2.99c0-.39.32-.71.71-.71s.71.32.71.71v2.99c0,.39-.32.71-.71.71Z"/><path class="cls-2" d="m27,37.57c-.39,0-.71-.32-.71-.71v-3.89h-4.58v3.89c0,.39-.32.71-.71.71s-.71-.32-.71-.71v-4.6c0-.39.32-.71.71-.71h6c.39,0,.71.32.71.71v4.6c0,.39-.32.71-.71.71Z"/><path class="cls-2" d="m31.87,32.97h-15.74c-.39,0-.71-.32-.71-.71s.32-.71.71-.71h15.74c.39,0,.71.32.71.71s-.32.71-.71.71Z"/><path class="cls-2" d="m31.87,37.57h-15.74c-.39,0-.71-.32-.71-.71s.32-.71.71-.71h15.74c.39,0,.71.32.71.71s-.32.71-.71.71Z"/><path class="cls-2" d="m44.23,32.97H3.77c-2.08,0-3.77-1.69-3.77-3.77V3.77C0,1.69,1.69,0,3.77,0h40.47c2.08,0,3.77,1.69,3.77,3.77v25.44c0,2.08-1.69,3.77-3.77,3.77ZM3.77,1.42c-1.29,0-2.35,1.05-2.35,2.35v25.44c0,1.29,1.05,2.35,2.35,2.35h40.47c1.29,0,2.35-1.05,2.35-2.35V3.77c0-1.29-1.05-2.35-2.35-2.35H3.77Z"/><path class="cls-1" d="m44.59,28.56H3.41c-.39,0-.71-.32-.71-.71s.32-.71.71-.71h41.19c.39,0,.71.32.71.71s-.32.71-.71.71Z"/><path class="cls-1" d="m44.23,48H3.77c-2.08,0-3.77-1.69-3.77-3.77v-1.44c0-2.08,1.69-3.77,3.77-3.77h40.47c2.08,0,3.77,1.69,3.77,3.77v1.44c0,2.08-1.69,3.77-3.77,3.77ZM3.77,40.45c-1.29,0-2.35,1.05-2.35,2.35v1.44c0,1.29,1.05,2.35,2.35,2.35h40.47c1.29,0,2.35-1.05,2.35-2.35v-1.44c0-1.29-1.05-2.35-2.35-2.35H3.77Z"/></svg>