<?xml version="1.0" encoding="UTF-8"?><svg id="Calque_1" xmlns="http://www.w3.org/2000/svg" viewBox="0 0 48 48"><defs><style>.cls-1{fill:#bc955b;}.cls-1,.cls-2{stroke-width:0px;}.cls-2{fill:#fff;}</style></defs><path class="cls-2" d="m20.24,33.73c-5.36,0-9.72-4.36-9.72-9.73s4.36-9.73,9.72-9.73,9.73,4.36,9.73,9.73-4.36,9.73-9.73,9.73Zm0-18.03c-4.58,0-8.3,3.73-8.3,8.31s3.73,8.31,8.3,8.31,8.31-3.73,8.31-8.31-3.73-8.31-8.31-8.31Z"/><path class="cls-1" d="m41.28,30.72c-3.71,0-6.72-3.01-6.72-6.72s3.01-6.72,6.72-6.72,6.72,3.01,6.72,6.72-3.01,6.72-6.72,6.72Zm0-12.02c-2.92,0-5.3,2.38-5.3,5.3s2.38,5.3,5.3,5.3,5.3-2.38,5.3-5.3-2.38-5.3-5.3-5.3Z"/><path class="cls-1" d="m8.22,13.44c-3.71,0-6.72-3.01-6.72-6.72S4.52,0,8.22,0s6.72,3.01,6.72,6.72-3.01,6.72-6.72,6.72Zm0-12.02c-2.92,0-5.3,2.38-5.3,5.3s2.38,5.3,5.3,5.3,5.3-2.38,5.3-5.3S11.15,1.42,8.22,1.42Z"/><path class="cls-1" d="m8.22,48c-3.71,0-6.72-3.01-6.72-6.72s3.01-6.72,6.72-6.72,6.72,3.01,6.72,6.72-3.01,6.72-6.72,6.72Zm0-12.02c-2.92,0-5.3,2.38-5.3,5.3s2.38,5.3,5.3,5.3,5.3-2.38,5.3-5.3-2.38-5.3-5.3-5.3Z"/><path class="cls-1" d="m35.27,24.71h-3c-.39,0-.71-.32-.71-.71s.32-.71.71-.71h3c.39,0,.71.32.71.71s-.32.71-.71.71Z"/><path class="cls-1" d="m13.38,14.84c-.22,0-.45-.11-.58-.3l-1.72-2.48c-.22-.32-.14-.76.18-.99.32-.22.76-.14.99.18l1.72,2.48c.22.32.14.76-.18.99-.12.09-.26.13-.4.13Z"/><path class="cls-1" d="m11.65,37.06c-.14,0-.28-.04-.4-.13-.32-.22-.4-.67-.18-.99l1.77-2.55c.23-.32.67-.4.99-.18.32.22.4.67.18.99l-1.77,2.55c-.14.2-.36.3-.58.3Z"/><path class="cls-2" d="m27.7,35.66c-.23,0-.45-.11-.58-.3l-.8-1.15c-.22-.32-.14-.76.18-.99.32-.22.77-.14.99.18l.8,1.15c.22.32.14.76-.18.99-.12.09-.26.13-.4.13Z"/><path class="cls-2" d="m27.28,14.94c-.14,0-.29-.04-.42-.14-.32-.23-.39-.67-.16-.99l.96-1.33c.23-.32.67-.39.99-.16.32.23.39.67.16.99l-.96,1.33c-.14.19-.36.29-.58.29Z"/><path class="cls-2" d="m8.22,24.71h-1.5c-.39,0-.71-.32-.71-.71s.32-.71.71-.71h1.5c.39,0,.71.32.71.71s-.32.71-.71.71Z"/><path class="cls-2" d="m3.71,27.71c-2.05,0-3.71-1.67-3.71-3.71s1.67-3.71,3.71-3.71,3.72,1.67,3.72,3.71-1.67,3.71-3.72,3.71Zm0-6.01c-1.27,0-2.29,1.03-2.29,2.29s1.03,2.29,2.29,2.29,2.3-1.03,2.3-2.29-1.03-2.29-2.3-2.29Z"/><path class="cls-2" d="m29.26,41.24c-2.05,0-3.71-1.67-3.71-3.71s1.67-3.72,3.71-3.72,3.72,1.67,3.72,3.72-1.67,3.71-3.72,3.71Zm0-6.01c-1.27,0-2.29,1.03-2.29,2.3s1.03,2.29,2.29,2.29,2.3-1.03,2.3-2.29-1.03-2.3-2.3-2.3Z"/><path class="cls-2" d="m30.01,14.19c-2.05,0-3.72-1.67-3.72-3.72s1.67-3.71,3.72-3.71,3.71,1.67,3.71,3.71-1.67,3.72-3.71,3.72Zm0-6.01c-1.27,0-2.3,1.03-2.3,2.29s1.03,2.3,2.3,2.3,2.29-1.03,2.29-2.3-1.03-2.29-2.29-2.29Z"/></svg>