<?xml version="1.0" encoding="UTF-8"?><svg id="Calque_1" xmlns="http://www.w3.org/2000/svg" viewBox="0 0 48 48"><defs><style>.cls-1{fill:#bc955b;}.cls-1,.cls-2{stroke-width:0px;}.cls-2{fill:#fff;}</style></defs><path class="cls-1" d="m31.92,42.83H7.69c-4.24,0-7.69-3.45-7.69-7.69,0-3.95,3.04-7.25,6.9-7.65.25-4.2,3.74-7.54,8-7.54,3.78,0,7.02,2.66,7.82,6.28.23-.02.46-.03.69-.03,3.81,0,7.05,2.77,7.72,6.45.27-.05.54-.07.8-.07,2.83,0,5.12,2.3,5.12,5.12s-2.3,5.12-5.12,5.12ZM14.9,21.37c-3.64,0-6.59,2.96-6.59,6.59,0,.01,0,.16,0,.18,0,.19-.07.37-.2.51-.13.14-.31.21-.5.22-3.42.04-6.19,2.86-6.19,6.27s2.81,6.27,6.27,6.27h24.23c2.04,0,3.7-1.66,3.7-3.7s-1.66-3.7-3.7-3.7c-.37,0-.75.07-1.18.21-.21.07-.44.04-.62-.08-.18-.12-.3-.32-.31-.54-.24-3.35-3.05-5.97-6.41-5.97-.36,0-.74.04-1.14.11-.19.04-.39-.01-.54-.13-.16-.11-.26-.29-.28-.48-.42-3.28-3.23-5.75-6.53-5.75Z"/><path class="cls-2" d="m33.47,31.42c-.23,0-.46-.12-.6-.33-.21-.33-.12-.77.21-.98,2.1-1.35,3.35-3.63,3.35-6.11,0-4.01-3.26-7.26-7.26-7.26-2.86,0-5.46,1.69-6.63,4.31-.16.36-.58.52-.94.36-.36-.16-.52-.58-.36-.94,1.4-3.13,4.51-5.15,7.93-5.15,4.79,0,8.68,3.9,8.68,8.68,0,2.97-1.5,5.7-4,7.31-.12.08-.25.11-.38.11Z"/><path class="cls-2" d="m40.16,39.05c-.26,0-.51-.07-.73-.21l-.69-.39c-.34-.19-.46-.63-.27-.97.19-.34.63-.46.97-.27l.72.41,2.65-2.65-1.79-3.09c-.28-.43-.31-1.13-.07-1.62l.99-2.39c.16-.48.68-.94,1.22-1.06l3.41-.95v-3.74s-3.45-.93-3.45-.93c-.5-.11-1.02-.58-1.2-1.1l-.99-2.39c-.22-.45-.19-1.15.11-1.61l1.74-3.08-2.65-2.65-3.09,1.79c-.43.28-1.13.31-1.62.07l-2.39-.99c-.48-.16-.94-.68-1.06-1.22l-.95-3.41h-3.75s-.92,3.45-.92,3.45c-.11.5-.58,1.02-1.1,1.2l-2.39.99c-.45.22-1.15.19-1.61-.11l-3.08-1.74-2.65,2.65,1.79,3.09c.28.43.31,1.13.07,1.62l-.23.57c-.15.36-.57.53-.93.38-.36-.15-.53-.57-.38-.93l.25-.61c.04-.1.04-.25,0-.31l-1.78-3.14c-.32-.5-.24-1.24.21-1.68l2.68-2.68c.45-.45,1.18-.52,1.71-.19l3.08,1.74c.09.05.24.06.3.03l2.48-1.02c.1-.04.2-.15.22-.21l.97-3.48c.13-.58.7-1.04,1.33-1.04h3.78s0,0,0,0c.63,0,1.21.46,1.34,1.08l.95,3.41c.03.1.13.21.19.24l2.47,1.03c.1.04.25.04.31,0l3.14-1.78c.5-.32,1.23-.24,1.68.21l2.68,2.68c.45.45.53,1.18.19,1.71l-1.74,3.08c-.05.09-.06.24-.03.3l1.02,2.48c.04.1.15.2.21.22l3.48.97c.58.13,1.04.7,1.04,1.33v3.78c0,.63-.46,1.21-1.08,1.34l-3.41.95c-.1.03-.21.13-.24.19l-1.03,2.47c-.04.1-.04.25,0,.31l1.78,3.14c.32.5.24,1.24-.21,1.68l-2.68,2.68c-.26.26-.62.4-.98.4Z"/></svg>