<?xml version="1.0" encoding="UTF-8"?><svg id="Calque_1" xmlns="http://www.w3.org/2000/svg" viewBox="0 0 48 48"><defs><style>.cls-1{fill:#bc955b;}.cls-1,.cls-2{stroke-width:0px;}.cls-2{fill:#fff;}</style></defs><path class="cls-2" d="m9.49,48c-2.22,0-4.02-1.8-4.02-4.02V14.02c0-2.22,1.8-4.02,4.02-4.02h1.14c.38,0,.69.31.69.69s-.31.69-.69.69h-1.14c-1.45,0-2.63,1.18-2.63,2.63v3.47h6.22c.38,0,.69.31.69.69s-.31.69-.69.69h-6.22v20.25h20.24v-8.11c0-.38.31-.69.69-.69s.7.31.7.69v12.96c0,2.22-1.8,4.02-4.02,4.02h-14.98Zm-2.63-4.02c0,1.45,1.18,2.63,2.63,2.63h14.98c1.45,0,2.63-1.18,2.63-2.63v-3.47H6.86v3.47Z"/><path class="cls-2" d="m20.49,15.19c-1.21,0-2.15-.53-2.46-1.38-.06-.17-.05-.36.02-.53.08-.17.22-.29.39-.36.08-.03.16-.04.24-.04.29,0,.55.18.65.46.1.27.57.47,1.15.47.44,0,1.18-.13,1.18-.63,0-.34-.16-.46-1.29-.64-.98-.16-2.45-.4-2.45-2.01,0-1.19,1.06-2.02,2.57-2.02,1.21,0,2.15.53,2.46,1.38.13.36-.06.76-.42.89-.08.03-.15.04-.24.04-.29,0-.55-.18-.65-.46-.1-.28-.57-.47-1.15-.47-.44,0-1.18.13-1.18.63,0,.34.16.45,1.29.64.98.16,2.45.4,2.45,2.01,0,1.19-1.06,2.02-2.57,2.02Z"/><path class="cls-2" d="m35.11,15.19c-1.21,0-2.15-.53-2.46-1.38-.06-.17-.05-.36.02-.53.08-.17.22-.3.39-.36.08-.03.16-.04.24-.04.29,0,.55.18.65.46.1.27.57.47,1.15.47.44,0,1.18-.13,1.18-.63,0-.34-.16-.46-1.29-.64-.98-.16-2.45-.4-2.45-2.01,0-1.19,1.06-2.02,2.57-2.02,1.21,0,2.15.53,2.46,1.38.06.17.05.36-.02.53-.08.17-.22.3-.39.36-.08.03-.16.04-.24.04-.29,0-.55-.18-.65-.46-.1-.28-.57-.47-1.15-.47-.44,0-1.18.13-1.18.63,0,.34.16.45,1.29.64.98.16,2.45.4,2.45,2.01,0,1.19-1.06,2.02-2.57,2.02Z"/><path class="cls-2" d="m30.06,15.19c-.38,0-.7-.31-.7-.69v-3.42l-1.04,1.22c-.13.15-.32.24-.53.24s-.4-.09-.53-.24l-1.04-1.22v3.42c0,.38-.31.69-.69.69s-.69-.31-.69-.69v-5.3c0-.29.18-.55.45-.65.08-.03.16-.04.24-.04.2,0,.4.09.53.24l1.73,2.03,1.73-2.03c.13-.15.32-.24.53-.24.08,0,.16.01.24.04.27.1.45.36.45.65v5.3c0,.38-.31.69-.69.69Z"/><path class="cls-1" d="m23.44,29.54c-.28,0-.53-.17-.64-.43-.11-.26-.05-.56.15-.76,1.27-1.28,1.92-3.05,1.79-4.85v-.08s-.08-.01-.08-.01c-6.82-1.19-11.59-5.94-11.59-11.57,0-3.19,1.55-6.19,4.37-8.43,2.77-2.2,6.45-3.42,10.36-3.42s7.58,1.21,10.36,3.42c2.82,2.24,4.37,5.23,4.37,8.43,0,5.64-4.78,10.4-11.62,11.58h-.07s-.01.08-.01.08c-.73,3.5-3.84,6.05-7.39,6.05ZM27.8,1.39c-7.36,0-13.34,4.69-13.34,10.45,0,5.08,4.63,9.41,11.01,10.29.36.05.62.37.6.74.23,1.68-.1,3.4-.92,4.86l-.13.22.24-.08c2.23-.7,3.9-2.65,4.26-4.97-.02-.4.24-.72.6-.77,6.38-.88,11.02-5.21,11.02-10.29,0-5.76-5.98-10.45-13.34-10.45Z"/></svg>