<?xml version="1.0" encoding="UTF-8"?><svg id="Calque_1" xmlns="http://www.w3.org/2000/svg" viewBox="0 0 48 48"><defs><style>.cls-1{fill:#bc955b;}.cls-1,.cls-2{stroke-width:0px;}.cls-2{fill:#fff;}</style></defs><path class="cls-1" d="m47.29,32.95c-.39,0-.71-.32-.71-.71V.75c0-.39.32-.71.71-.71s.71.32.71.71v31.49c0,.39-.32.71-.71.71Z"/><path class="cls-2" d="m16.42,48H.71c-.39,0-.71-.32-.71-.71s.32-.71.71-.71h15v-4.81c0-.39.32-.71.71-.71h14.99v-4.81c0-.39.32-.71.71-.71h15.17c.39,0,.71.32.71.71s-.32.71-.71.71h-14.46v4.81c0,.39-.32.71-.71.71h-14.99v4.81c0,.39-.32.71-.71.71Z"/><path class="cls-2" d="m19.07,9.81c-2.31,0-4.18-1.88-4.18-4.18s1.88-4.18,4.18-4.18,4.18,1.88,4.18,4.18-1.88,4.18-4.18,4.18Zm0-6.94c-1.52,0-2.76,1.24-2.76,2.76s1.24,2.76,2.76,2.76,2.76-1.24,2.76-2.76-1.24-2.76-2.76-2.76Z"/><path class="cls-2" d="m19.07,9.81c-2.31,0-4.18-1.88-4.18-4.18s1.88-4.18,4.18-4.18,4.18,1.88,4.18,4.18-1.88,4.18-4.18,4.18Zm0-6.94c-1.52,0-2.76,1.24-2.76,2.76s1.24,2.76,2.76,2.76,2.76-1.24,2.76-2.76-1.24-2.76-2.76-2.76Z"/><path class="cls-2" d="m8.04,44.22c-.32,0-.64-.06-.96-.18-.67-.25-1.21-.76-1.5-1.41-.3-.66-.32-1.39-.06-2.06l7.12-24.67h-2.68l-3.23,5.71c-.48.84-1.38,1.37-2.35,1.37-.46,0-.92-.12-1.33-.35-.63-.35-1.08-.93-1.27-1.62-.19-.69-.1-1.42.25-2.05l4.01-7.08c.48-.84,1.38-1.37,2.34-1.37h8.98c1.61,0,3.16.77,4.14,2.05l3.71,4.88,4.85-1.05c.77-.17,1.58.02,2.21.5.62.48,1.01,1.21,1.05,2,.07,1.3-.89,2.5-2.24,2.79l-6.42,1.38c-.98.21-2.09-.18-2.71-1l-2.47-3.27-2.22,6.39,5.75.36c.06,0,.12.02.18.03.43.14.99.5,1.24,1.4l2.41,8.24c.23.65.18,1.38-.13,2.02-.31.65-.86,1.13-1.54,1.37-1.38.47-2.95-.29-3.43-1.66l-2.23-5.81-4.74-.1-4.22,11.41c-.26.68-.76,1.21-1.41,1.51-.35.16-.73.24-1.11.24Zm1.5-29.73h4.04c.22,0,.43.1.57.28s.18.41.12.62l-7.4,25.63c-.14.37-.13.72.01,1.03s.39.55.71.67c.32.12.67.11.97-.03.31-.14.55-.39.67-.71l4.39-11.88c.11-.28.4-.45.68-.46l5.72.12c.29,0,.54.19.65.46l2.41,6.27c.23.67.98,1.03,1.63.8.32-.11.58-.34.73-.65.15-.31.17-.65.06-.97l-2.42-8.29c-.08-.27-.18-.37-.25-.41l-6.57-.41c-.22-.01-.42-.13-.55-.31-.12-.19-.15-.42-.08-.63l2.96-8.53c.09-.25.3-.43.56-.47.26-.04.52.06.68.27l3.27,4.33c.29.38.83.57,1.28.47l6.42-1.38c.67-.14,1.15-.71,1.12-1.33-.02-.38-.2-.72-.5-.95s-.68-.32-1.05-.24l-5.29,1.14c-.27.06-.55-.04-.71-.26l-3.98-5.23c-.71-.94-1.84-1.49-3.01-1.49h-8.98c-.46,0-.88.25-1.11.65l-4.01,7.08c-.17.3-.21.64-.12.97s.3.6.6.77c.59.33,1.4.11,1.74-.48l3.44-6.07c.13-.22.36-.36.62-.36Z"/><path class="cls-1" d="m47.29,10.05c-.07,0-.14,0-.2-.03l-14.35-4.29c-.3-.09-.51-.37-.51-.68s.21-.59.51-.68L47.09.07c.21-.06.45-.02.63.11.18.13.29.35.29.57v8.59c0,.22-.11.44-.29.57-.12.09-.27.14-.42.14Zm-11.88-5l11.17,3.34V1.71l-11.17,3.34Z"/></svg>