<?xml version="1.0" encoding="UTF-8"?><svg id="Calque_1" xmlns="http://www.w3.org/2000/svg" viewBox="0 0 48 48"><defs><style>.cls-1{fill:#bc955b;}.cls-1,.cls-2{stroke-width:0px;}.cls-2{fill:#fff;}</style></defs><path class="cls-1" d="m.71,9.55c-.39,0-.71-.32-.71-.71V.71c0-.39.32-.71.71-.71h8.13c.39,0,.71.32.71.71s-.32.71-.71.71H1.42v7.42c0,.39-.32.71-.71.71Z"/><path class="cls-2" d="m7.12,9.55s-.02,0-.03,0c-.24,0-.45-.14-.57-.34l-2.76-4.47c-.21-.33-.1-.77.23-.98.34-.21.77-.1.98.23l2.21,3.58L12.57.29c.23-.31.67-.38.99-.15.31.23.38.68.15.99l-6.02,8.13c-.13.18-.35.29-.57.29Z"/><path class="cls-1" d="m.71,25.83c-.39,0-.71-.32-.71-.71v-8.13c0-.39.32-.71.71-.71h8.13c.39,0,.71.32.71.71s-.32.71-.71.71H1.42v7.42c0,.39-.32.71-.71.71Z"/><path class="cls-1" d="m.71,42.1c-.39,0-.71-.32-.71-.71v-8.13c0-.39.32-.71.71-.71h8.13c.39,0,.71.32.71.71s-.32.71-.71.71H1.42v7.42c0,.39-.32.71-.71.71Z"/><path class="cls-2" d="m35.24,48c-1.1,0-2.21-.14-3.3-.43,0,0-.01,0-.02,0l-15.41-4.64c-.63-.19-1.13-.67-1.35-1.29-.21-.59-.13-1.23.21-1.74,1.37-2.02,3.46-2.81,6.21-2.36l3.02.54-13.55-13.55c-.69-.69-1.04-1.64-.96-2.62.08-.97.58-1.86,1.38-2.43,1.3-.93,3.18-.73,4.37.46l5.93,5.93c.15-.85.63-1.61,1.34-2.12,1.05-.76,2.48-.77,3.62-.11.12-.91.61-1.73,1.37-2.27,1.02-.73,2.4-.77,3.52-.17.11-.92.6-1.76,1.37-2.31,1.3-.93,3.18-.74,4.37.46l6.65,6.65c3,3,4.45,7.15,3.86,11.08-.54,3.68-2.54,6.83-5.62,8.85-2.1,1.38-4.54,2.1-7.01,2.1Zm-2.93-1.81c3.12.84,6.46.3,9.16-1.48,2.74-1.8,4.51-4.59,5-7.87.52-3.5-.78-7.19-3.46-9.87l-6.65-6.65c-.71-.71-1.8-.84-2.54-.31-.47.34-.75.83-.8,1.4-.04.56.16,1.1.55,1.5.28.28.28.73,0,1h0s0,0,0,0c-.28.28-.73.28-1,0-.02-.02-.04-.04-.06-.07l-1.03-1.03c-.71-.71-1.79-.84-2.54-.31-.47.34-.75.83-.8,1.4-.04.56.16,1.1.55,1.5.28.28.28.73,0,1-.28.28-.73.28-1,0h0s0,0,0,0c-.02-.02-.04-.04-.06-.07l-1.13-1.13c-.71-.71-1.8-.84-2.54-.31-.47.34-.75.83-.8,1.4-.05.56.15,1.1.55,1.5.28.28.28.73,0,1-.28.28-.73.28-1,0l-7.85-7.85c-.71-.71-1.8-.84-2.54-.31-.47.34-.75.83-.8,1.4-.04.56.16,1.1.55,1.5l13.89,13.9c.39.39.48.99.23,1.48-.26.49-.79.76-1.35.66l-3.49-.62c-2.2-.36-3.73.2-4.79,1.76-.12.18-.08.37-.05.47.07.2.23.35.43.41l15.38,4.63h0Z"/></svg>