<?xml version="1.0" encoding="UTF-8"?><svg id="Calque_1" xmlns="http://www.w3.org/2000/svg" viewBox="0 0 48 48"><defs><style>.cls-1{fill:#fff;stroke-width:0px;}</style></defs><g id="b75708d097f2188dff6617b0f00f7c43"><path class="cls-1" d="m28.79,48c-1.88,0-3.4-1.54-3.4-3.44v-5.23h-2.77v5.23c0,1.9-1.53,3.44-3.4,3.44s-3.4-1.54-3.4-3.44v-5.23h-1.69c-1.55,0-2.81-1.26-2.81-2.81v-19.51c0-.39.32-.71.71-.71h23.94c.39,0,.71.32.71.71v19.51c0,1.55-1.26,2.81-2.81,2.81h-1.69v5.23c0,1.9-1.52,3.44-3.4,3.44Zm-6.88-10.09h4.19c.39,0,.71.32.71.71v5.94c0,1.12.89,2.02,1.98,2.02s1.98-.91,1.98-2.02v-5.94c0-.39.32-.71.71-.71h2.4c.76,0,1.39-.62,1.39-1.39v-18.8H12.74v18.8c0,.77.62,1.39,1.39,1.39h2.4c.39,0,.71.32.71.71v5.94c0,1.12.89,2.02,1.98,2.02s1.98-.91,1.98-2.02v-5.94c0-.39.32-.71.71-.71Zm20.16-4.05c-1.89,0-3.43-1.56-3.43-3.47v-10.79c0-1.91,1.54-3.47,3.43-3.47.92,0,1.78.36,2.43,1.02.64.65,1,1.52,1,2.45v10.79c0,1.91-1.54,3.47-3.42,3.47Zm0-16.31c-1.11,0-2.01.92-2.01,2.05v10.79c0,1.13.9,2.05,2.01,2.05s2-.92,2-2.05v-10.79c0-.55-.21-1.07-.59-1.45-.38-.38-.88-.6-1.41-.6ZM5.94,33.86c-1.89,0-3.43-1.56-3.43-3.47v-10.78c0-1.91,1.54-3.47,3.43-3.47s3.43,1.56,3.43,3.47v10.78c0,1.91-1.54,3.47-3.43,3.47Zm0-16.3c-1.11,0-2.01.92-2.01,2.05v10.78c0,1.13.9,2.05,2.01,2.05s2.01-.92,2.01-2.05v-10.78c0-1.13-.9-2.05-2.01-2.05Zm30.03-3.2H12.03c-.2,0-.39-.08-.52-.23-.13-.15-.2-.34-.18-.54.29-3.29,2.28-6.32,5.38-8.22l-1.85-2.71c-.25-.37-.35-.83-.26-1.27.08-.45.34-.83.71-1.09.77-.53,1.83-.33,2.36.45l2.18,3.21c2.71-.82,5.61-.82,8.31,0l2.18-3.21c.25-.37.64-.63,1.08-.71.45-.08.9,0,1.28.26.37.25.63.64.71,1.09.08.45,0,.9-.27,1.27l-1.84,2.71c3.1,1.9,5.1,4.92,5.38,8.22.02.2-.05.39-.18.54-.13.15-.32.23-.52.23Zm-23.13-1.42h22.32c-.51-2.75-2.41-5.21-5.21-6.71-.18-.1-.31-.26-.36-.46s-.01-.4.1-.57l2.27-3.34c.06-.08.05-.17.04-.21,0-.04-.03-.12-.12-.18-.08-.06-.17-.05-.21-.04-.04,0-.12.03-.17.12l-2.48,3.65c-.18.26-.52.38-.82.27-2.72-.94-5.69-.94-8.42,0-.3.11-.64,0-.82-.27l-2.48-3.65c-.09-.12-.26-.16-.39-.07-.08.06-.11.14-.12.18,0,.04-.01.12.04.21l2.28,3.34c.11.17.15.37.1.57-.05.2-.18.36-.36.46-2.81,1.5-4.71,3.97-5.22,6.71Zm16.38-1.89c-1.12,0-2.03-.91-2.03-2.03s.91-2.04,2.03-2.04,2.04.91,2.04,2.04-.91,2.03-2.04,2.03Zm0-2.65c-.34,0-.61.28-.61.62s.28.61.61.61.62-.28.62-.61-.28-.62-.62-.62Zm-10.27,2.65c-1.12,0-2.04-.91-2.04-2.03s.91-2.04,2.04-2.04,2.03.91,2.03,2.04-.91,2.03-2.03,2.03Zm0-2.65c-.34,0-.62.28-.62.62s.28.61.62.61.61-.28.61-.61-.28-.62-.61-.62Z"/></g></svg>