<?xml version="1.0" encoding="UTF-8"?><svg id="Calque_1" xmlns="http://www.w3.org/2000/svg" viewBox="0 0 48 48"><defs><style>.cls-1{fill:#bc955b;}.cls-1,.cls-2{stroke-width:0px;}.cls-2{fill:#fff;}</style></defs><path class="cls-1" d="m7.21,39.6c-.26,0-.68-.03-.88-.41-.15-.15-.26-.33-.31-.54-.1-.42.03-.88.34-1.18l5.9-7.26c.17-.28.48-.47.84-.53.4-.06.78.05,1.05.32l1.08.88,5.46-6.69s.03-.04.05-.05c.4-.4,1-.5,1.64-.29.12.04.23.11.31.21l9.32,10.81c.08.09.14.21.16.33.06.12.13.28.13.48,0,.77-.58,1.4-1.29,1.4l-23.74,2.53s-.05,0-.07,0Zm6.11-8.45l-5.67,6.98,23.18-2.46s0,0,0,0l-9.06-10.52s-.03,0-.04,0l-5.46,6.72c-.6.6-1.37.65-1.86.17l-1.09-.89Zm18.87,4.18h0s0,0,0,0Zm-18.99-4.28s0,0,.01,0h-.01Zm2.15-.08h.01s0,0-.01,0Zm-1.87-.04s0,0,0,0t0,0Zm-2.3-4.53c-2.3,0-4.3-1.75-4.56-4.1-.26-2.5,1.57-4.76,4.08-5.04,1.21-.13,2.4.22,3.36.98.96.77,1.55,1.87,1.68,3.1.26,2.5-1.57,4.76-4.08,5.04-.16.02-.32.03-.48.03Zm.02-7.75c-.12,0-.23,0-.35.02h0c-1.74.19-3,1.75-2.82,3.48.19,1.73,1.75,3,3.48,2.82,1.73-.19,3-1.75,2.82-3.48-.09-.85-.5-1.61-1.16-2.14-.57-.46-1.25-.7-1.96-.7Zm-.43-.69h0,0Z"/><path class="cls-1" d="m40.8,32.47l-6.4-.69c-.39-.04-.67-.39-.63-.78.04-.39.39-.67.78-.63l6.12.67-6.73-12.23-.23.23c-.28.28-.73.28-1,0-.28-.28-.28-.73,0-1l.46-.46c.05-.05.12-.1.19-.13.54-.27,1.44-.08,1.76.55l6.85,12.45c.24.3.24.61.24.75,0,.08-.01.15-.04.22-.22.67-.73,1.06-1.36,1.06Zm-6.95-13.83s0,.01,0,.02v-.02Z"/><path class="cls-2" d="m5.38,45.6c-.58,0-1.15-.21-1.59-.61-.48-.42-.75-1-.75-1.61L.06,15.16c-.08-.67.13-1.36.59-1.88.43-.48,1-.75,1.61-.75l28.22-3.1c.68-.08,1.37.13,1.89.59.48.42.75,1,.75,1.61l2.99,28.34c.08.67-.13,1.36-.59,1.88-.42.48-1,.75-1.61.75l-28.22,2.99c-.1.01-.19.02-.29.02ZM30.76,10.83s-.08,0-.11,0c0,0,0,0,0,0L2.34,13.95c-.35,0-.54.17-.62.27-.19.21-.28.5-.24.78l2.99,28.31c0,.34.17.53.27.62.21.19.51.27.78.25l28.31-2.99c.35,0,.53-.17.62-.27.19-.21.28-.5.25-.78l-2.99-28.43c0-.34-.17-.53-.27-.62-.18-.16-.42-.25-.66-.25Zm-.2-.7h0,0Z"/><path class="cls-2" d="m42.41,38.46l-7.44-.81c-.39-.04-.67-.39-.63-.78.04-.39.39-.68.78-.63l7.36.81c.52,0,1.05-.44,1.05-.79l2.99-28.37c.07-.52-.33-.99-.88-1.06l-28.29-2.99c-.26-.03-.5.04-.7.2-.2.17-.33.41-.37.68l-.8,7.24c-.04.39-.39.68-.78.63-.39-.04-.67-.39-.63-.78l.81-7.25c.08-.64.39-1.21.87-1.61.5-.41,1.13-.6,1.76-.52l28.29,2.99c1.34.17,2.29,1.35,2.12,2.63l-2.99,28.29c0,1.1-1.19,2.13-2.55,2.13Z"/></svg>