<?xml version="1.0" encoding="UTF-8"?><svg id="Calque_1" xmlns="http://www.w3.org/2000/svg" viewBox="0 0 48 48"><defs><style>.cls-1{fill:#bc955b;}.cls-1,.cls-2{stroke-width:0px;}.cls-2{fill:#fff;}</style></defs><path class="cls-1" d="m15.25,47.29h-5.13c-5.58,0-10.12-4.54-10.12-10.12v-14.54c0-.39.32-.71.71-.71h23.95c.39,0,.71.32.71.71v14.54c0,5.58-4.54,10.12-10.12,10.12ZM1.42,23.34v13.83c0,4.8,3.9,8.7,8.7,8.7h5.13c4.8,0,8.7-3.9,8.7-8.7v-13.83H1.42Z"/><path class="cls-2" d="m12.69,37.7c-3.21,0-5.82-2.61-5.82-5.82v-4.28c0-.39.32-.71.71-.71s.71.32.71.71v4.28c0,2.43,1.97,4.4,4.4,4.4s4.4-1.97,4.4-4.4v-4.28c0-.39.32-.71.71-.71s.71.32.71.71v4.28c0,3.21-2.61,5.82-5.82,5.82Z"/><path class="cls-2" d="m19.21,28.31h-2.84c-.39,0-.71-.32-.71-.71s.32-.71.71-.71h2.84c.39,0,.71.32.71.71s-.32.71-.71.71Z"/><path class="cls-2" d="m9,28.31h-2.84c-.39,0-.71-.32-.71-.71s.32-.71.71-.71h2.84c.39,0,.71.32.71.71s-.32.71-.71.71Z"/><path class="cls-1" d="m40.52,47.29h-15.79c-.39,0-.71-.32-.71-.71s.32-.71.71-.71h15.79c3.34,0,6.06-2.72,6.06-6.06V11.73h-6.14c-.39,0-.71-.32-.71-.71s.32-.71.71-.71h6.85c.39,0,.71.32.71.71v28.79c0,4.12-3.35,7.48-7.48,7.48Z"/><path class="cls-1" d="m15.19,21c-.39,0-.71-.32-.71-.71v-9.27c0-.39.32-.71.71-.71h6.88c.39,0,.71.32.71.71s-.32.71-.71.71h-6.17v8.56c0,.39-.32.71-.71.71Z"/><path class="cls-1" d="m35.77,11.73h-9.03c-.39,0-.71-.32-.71-.71s.32-.71.71-.71h9.03c.39,0,.71.32.71.71s-.32.71-.71.71Z"/><path class="cls-2" d="m38.11,17.42c-.39,0-.71-.32-.71-.71v-8.44c0-3.38-2.75-6.14-6.14-6.14s-6.14,2.75-6.14,6.14v8.44c0,.39-.32.71-.71.71s-.71-.32-.71-.71v-8.44c0-4.17,3.39-7.56,7.56-7.56s7.56,3.39,7.56,7.56v8.44c0,.39-.32.71-.71.71Z"/><path class="cls-2" d="m25.83,17.42h-2.84c-.39,0-.71-.32-.71-.71s.32-.71.71-.71h2.84c.39,0,.71.32.71.71s-.32.71-.71.71Z"/><path class="cls-2" d="m39.53,17.42h-2.84c-.39,0-.71-.32-.71-.71s.32-.71.71-.71h2.84c.39,0,.71.32.71.71s-.32.71-.71.71Z"/></svg>