<?xml version="1.0" encoding="UTF-8"?><svg id="Calque_1" xmlns="http://www.w3.org/2000/svg" viewBox="0 0 48 48"><defs><style>.cls-1{fill:#bc955b;}.cls-1,.cls-2{stroke-width:0px;}.cls-2{fill:#fff;}</style></defs><path class="cls-1" d="m10.08,30.96c-2.51,0-4.55-2.04-4.55-4.55s2.04-4.55,4.55-4.55,4.55,2.04,4.55,4.55-2.04,4.55-4.55,4.55Zm0-7.68c-1.72,0-3.13,1.4-3.13,3.13s1.4,3.13,3.13,3.13,3.13-1.4,3.13-3.13-1.4-3.13-3.13-3.13Z"/><path class="cls-1" d="m1.38,48c-.39,0-.71-.32-.71-.71v-10.67c0-2.11,1.71-3.82,3.82-3.82h12.31c.39,0,.71.32.71.71s-.32.71-.71.71H4.49c-1.32,0-2.4,1.08-2.4,2.4v10.67c0,.39-.32.71-.71.71Z"/><path class="cls-1" d="m37.92,30.96c-2.51,0-4.55-2.04-4.55-4.55s2.04-4.55,4.55-4.55,4.55,2.04,4.55,4.55-2.04,4.55-4.55,4.55Zm0-7.68c-1.73,0-3.13,1.4-3.13,3.13s1.4,3.13,3.13,3.13,3.13-1.4,3.13-3.13-1.4-3.13-3.13-3.13Z"/><path class="cls-1" d="m46.62,48c-.39,0-.71-.32-.71-.71v-10.67c0-1.33-1.08-2.4-2.4-2.4h-12.04c-.39,0-.71-.32-.71-.71s.32-.71.71-.71h12.04c2.11,0,3.82,1.71,3.82,3.82v10.67c0,.39-.32.71-.71.71Z"/><path class="cls-2" d="m24.13,38.05c-2.51,0-4.55-2.04-4.55-4.55s2.04-4.55,4.55-4.55,4.55,2.04,4.55,4.55-2.04,4.55-4.55,4.55Zm0-7.68c-1.72,0-3.13,1.4-3.13,3.13s1.4,3.13,3.13,3.13,3.13-1.4,3.13-3.13-1.4-3.13-3.13-3.13Z"/><path class="cls-2" d="m33.54,48c-.39,0-.71-.32-.71-.71v-3.58c0-1.33-1.08-2.4-2.4-2.4h-12.59c-1.32,0-2.4,1.08-2.4,2.4v3.58c0,.39-.32.71-.71.71s-.71-.32-.71-.71v-3.58c0-2.11,1.71-3.82,3.82-3.82h12.59c2.11,0,3.82,1.71,3.82,3.82v3.58c0,.39-.32.71-.71.71Z"/><path class="cls-2" d="m24.13,26.88c-.19,0-.37-.07-.51-.22-.27-.28-.26-.73.02-1l8.01-7.69c.13-.13.31-.2.49-.2h11.7c1.14,0,2.07-.93,2.07-2.07V3.49c0-1.14-.93-2.07-2.07-2.07H4.15c-1.14,0-2.07.93-2.07,2.07v12.21c0,1.14.93,2.07,2.07,2.07h19.98c.39,0,.71.32.71.71s-.32.71-.71.71H4.15c-1.92,0-3.49-1.57-3.49-3.49V3.49C.67,1.56,2.23,0,4.15,0h39.69c1.92,0,3.49,1.56,3.49,3.49v12.21c0,1.92-1.56,3.49-3.49,3.49h-11.42l-7.81,7.49c-.14.13-.31.2-.49.2Z"/><path class="cls-1" d="m37.29,8.38c-.39,0-.71-.32-.71-.71v-2.41c0-.39.32-.71.71-.71s.71.32.71.71v2.41c0,.39-.32.71-.71.71Z"/><path class="cls-1" d="m35.05,10.01c-.07,0-.15-.01-.22-.04l-2.29-.75c-.37-.12-.58-.52-.45-.89.12-.37.52-.58.9-.46l2.29.75c.37.12.58.52.45.89-.1.3-.38.49-.67.49Z"/><path class="cls-1" d="m34.49,14.58c-.15,0-.29-.04-.42-.14-.32-.23-.39-.67-.16-.99l1.42-1.95c.23-.32.68-.39.99-.16.32.23.39.67.16.99l-1.42,1.95c-.14.19-.36.29-.57.29Z"/><path class="cls-1" d="m40.09,14.58c-.22,0-.44-.1-.57-.29l-1.42-1.95c-.23-.32-.16-.76.16-.99.32-.23.76-.16.99.16l1.42,1.95c.23.32.16.76-.16.99-.13.09-.27.14-.42.14Z"/><path class="cls-1" d="m39.52,10.01c-.3,0-.58-.19-.67-.49-.12-.37.08-.77.45-.89l2.29-.75c.37-.13.77.08.9.46.12.37-.08.77-.45.89l-2.29.75c-.07.02-.15.04-.22.04Z"/><path class="cls-1" d="m10.98,8.38c-.39,0-.71-.32-.71-.71v-2.41c0-.39.32-.71.71-.71s.71.32.71.71v2.41c0,.39-.32.71-.71.71Z"/><path class="cls-1" d="m8.74,10.01c-.07,0-.15-.01-.22-.04l-2.29-.75c-.37-.12-.58-.52-.45-.89.12-.37.52-.58.9-.46l2.29.75c.37.12.58.52.45.89-.1.3-.38.49-.67.49Z"/><path class="cls-1" d="m8.18,14.58c-.15,0-.29-.04-.42-.14-.32-.23-.39-.67-.16-.99l1.42-1.95c.23-.32.67-.39.99-.16.32.23.39.67.16.99l-1.42,1.95c-.14.19-.36.29-.57.29Z"/><path class="cls-1" d="m13.78,14.58c-.22,0-.44-.1-.57-.29l-1.42-1.95c-.23-.32-.16-.76.16-.99.32-.23.76-.16.99.16l1.42,1.95c.23.32.16.76-.16.99-.13.09-.27.14-.42.14Z"/><path class="cls-1" d="m13.22,10.01c-.3,0-.58-.19-.67-.49-.12-.37.08-.77.45-.89l2.29-.75c.37-.13.77.08.9.46.12.37-.08.77-.45.89l-2.29.75c-.07.02-.15.04-.22.04Z"/><path class="cls-1" d="m24.13,8.38c-.39,0-.71-.32-.71-.71v-2.41c0-.39.32-.71.71-.71s.71.32.71.71v2.41c0,.39-.32.71-.71.71Z"/><path class="cls-1" d="m21.9,10.01c-.07,0-.15-.01-.22-.04l-2.29-.75c-.37-.12-.58-.52-.45-.89.12-.37.52-.58.9-.46l2.29.75c.37.12.58.52.45.89-.1.3-.38.49-.67.49Z"/><path class="cls-1" d="m21.33,14.58c-.15,0-.29-.04-.42-.14-.32-.23-.39-.67-.16-.99l1.42-1.95c.23-.32.68-.39.99-.16.32.23.39.67.16.99l-1.42,1.95c-.14.19-.36.29-.57.29Z"/><path class="cls-1" d="m26.93,14.58c-.22,0-.44-.1-.57-.29l-1.42-1.95c-.23-.32-.16-.76.16-.99.32-.23.76-.16.99.16l1.42,1.95c.23.32.16.76-.16.99-.13.09-.27.14-.42.14Z"/><path class="cls-1" d="m26.37,10.01c-.3,0-.58-.19-.67-.49-.12-.37.08-.77.45-.89l2.29-.75c.38-.13.77.08.9.46.12.37-.08.77-.45.89l-2.29.75c-.07.02-.15.04-.22.04Z"/></svg>