<?xml version="1.0" encoding="UTF-8"?><svg id="Calque_1" xmlns="http://www.w3.org/2000/svg" viewBox="0 0 48 48"><defs><style>.cls-1{fill:#bc955b;}.cls-1,.cls-2{stroke-width:0px;}.cls-2{fill:#fff;}</style></defs><path class="cls-1" d="m47.29,13.07c-.39,0-.71-.32-.71-.71V3.89c0-1.36-1.11-2.47-2.47-2.47h-8.47c-.39,0-.71-.32-.71-.71S35.25,0,35.64,0h8.47c2.14,0,3.89,1.74,3.89,3.89v8.47c0,.39-.32.71-.71.71Z"/><path class="cls-1" d="m44.11,48h-8.47c-.39,0-.71-.32-.71-.71s.32-.71.71-.71h8.47c1.36,0,2.47-1.11,2.47-2.47v-8.47c0-.39.32-.71.71-.71s.71.32.71.71v8.47c0,2.14-1.74,3.89-3.89,3.89Z"/><path class="cls-1" d="m12.36,48H3.89C1.74,48,0,46.26,0,44.11v-8.47c0-.39.32-.71.71-.71s.71.32.71.71v8.47c0,1.36,1.11,2.47,2.47,2.47h8.47c.39,0,.71.32.71.71s-.32.71-.71.71Z"/><path class="cls-1" d="m.71,13.07c-.39,0-.71-.32-.71-.71V3.89C0,1.74,1.74,0,3.89,0h8.47c.39,0,.71.32.71.71s-.32.71-.71.71H3.89c-1.36,0-2.47,1.11-2.47,2.47v8.47c0,.39-.32.71-.71.71Z"/><path class="cls-2" d="m35.64,37.41H12.35c-.97,0-1.77-.79-1.77-1.77v-6.35c0-.39.32-.71.71-.71s.71.32.71.71v6.35c0,.19.16.35.35.35h23.29c.19,0,.35-.16.35-.35v-6.35c0-.39.32-.71.71-.71s.71.32.71.71v6.35c0,.97-.79,1.77-1.77,1.77Z"/><path class="cls-2" d="m36.7,21.54c-.39,0-.71-.32-.71-.71v-8.47c0-.19-.16-.35-.35-.35H12.36c-.19,0-.35.16-.35.35v8.47c0,.39-.32.71-.71.71s-.71-.32-.71-.71v-8.47c0-.97.79-1.77,1.77-1.77h23.29c.98,0,1.77.79,1.77,1.77v8.47c0,.39-.32.71-.71.71Z"/><path class="cls-2" d="m42,28.94H6c-.39,0-.71-.32-.71-.71s.32-.71.71-.71h35.99c.39,0,.71.32.71.71s-.32.71-.71.71Z"/></svg>