<?xml version="1.0" encoding="UTF-8"?><svg id="Calque_1" xmlns="http://www.w3.org/2000/svg" viewBox="0 0 48 48"><defs><style>.cls-1{fill:#bc955b;}.cls-1,.cls-2{stroke-width:0px;}.cls-2{fill:#fff;}</style></defs><path class="cls-1" d="m28.76,48c-.25,0-.5-.14-.63-.37l-8.7-16.13c-.29-.54-.3-1.19-.04-1.74.25-.53.72-.89,1.28-1,2.16-.41,4,.41,5.46,2.45l1.91,2.91v-16.73c0-.89.39-1.73,1.07-2.31.68-.58,1.57-.82,2.46-.68,1.44.24,2.52,1.57,2.52,3.11v7.3c.62-.39,1.37-.54,2.11-.42,1.13.19,2.04,1.05,2.38,2.15.65-.46,1.45-.65,2.26-.52,1.09.18,1.98.99,2.34,2.05.65-.48,1.48-.67,2.29-.54,1.44.24,2.52,1.57,2.52,3.11v16.64c0,.39-.32.71-.71.71h0c-.39,0-.71-.32-.71-.71v-16.64c0-.85-.57-1.59-1.33-1.71-.48-.08-.95.05-1.31.36-.36.31-.57.75-.57,1.23,0,.39-.32.71-.71.71h0c-.39,0-.71-.32-.71-.71,0-.02,0-.05,0-.07v-1.3c0-.85-.57-1.59-1.33-1.71-.48-.08-.95.05-1.31.36-.36.31-.57.75-.57,1.23,0,.39-.32.71-.71.71s-.71-.32-.71-.71h0s0-.07,0-.11v-1.4c0-.85-.57-1.59-1.33-1.71-.48-.08-.95.05-1.31.36-.36.31-.57.75-.57,1.23h0c0,.39-.32.71-.71.71h0c-.39,0-.71-.32-.71-.71h0v-9.86c0-.85-.57-1.59-1.33-1.71-.48-.08-.95.05-1.31.36-.36.31-.57.75-.57,1.23v17.46c0,.53-.34.99-.85,1.15-.51.16-1.05-.03-1.35-.46l-2.31-3.52c-1.13-1.57-2.42-2.17-4.02-1.86-.15.03-.23.13-.27.22-.07.14-.07.31,0,.45l8.7,16.13c.19.35.06.78-.29.96-.11.06-.22.08-.34.08Z"/><path class="cls-2" d="m36.07,7.11c-1.96,0-3.56-1.6-3.56-3.56S34.11,0,36.07,0c.39,0,.71.32.71.71s-.32.71-.71.71c-1.18,0-2.14.96-2.14,2.14s.96,2.14,2.14,2.14,2.14-.96,2.14-2.14c0-.39.32-.71.71-.71s.71.32.71.71c0,1.96-1.6,3.56-3.56,3.56Z"/><path class="cls-2" d="m29.62,4.27H.71c-.39,0-.71-.32-.71-.71s.32-.71.71-.71h28.91c.39,0,.71.32.71.71s-.32.71-.71.71Z"/><path class="cls-2" d="m47.29,4.27h-8.38c-.39,0-.71-.32-.71-.71s.32-.71.71-.71h8.38c.39,0,.71.32.71.71s-.32.71-.71.71Z"/><path class="cls-2" d="m15.41,15.31c-1.96,0-3.56-1.6-3.56-3.56s1.6-3.56,3.56-3.56c.39,0,.71.32.71.71s-.32.71-.71.71c-1.18,0-2.14.96-2.14,2.14s.96,2.14,2.14,2.14,2.14-.96,2.14-2.14c0-.39.32-.71.71-.71s.71.32.71.71c0,1.96-1.59,3.56-3.56,3.56Z"/><path class="cls-2" d="m47.29,12.47h-29.03c-.39,0-.71-.32-.71-.71s.32-.71.71-.71h29.03c.39,0,.71.32.71.71s-.32.71-.71.71Z"/><path class="cls-2" d="m8.96,12.47H.71c-.39,0-.71-.32-.71-.71s.32-.71.71-.71h8.25c.39,0,.71.32.71.71s-.32.71-.71.71Z"/><path class="cls-2" d="m25.15,20.67H.71c-.39,0-.71-.32-.71-.71s.32-.71.71-.71h24.44c.39,0,.71.32.71.71s-.32.71-.71.71Z"/><path class="cls-2" d="m47.29,20.67h-10.3c-.39,0-.71-.32-.71-.71s.32-.71.71-.71h10.3c.39,0,.71.32.71.71s-.32.71-.71.71Z"/></svg>