<?xml version="1.0" encoding="UTF-8"?><svg id="Calque_1" xmlns="http://www.w3.org/2000/svg" viewBox="0 0 48 48"><defs><style>.cls-1{fill:#bc955b;}.cls-1,.cls-2{stroke-width:0px;}.cls-2{fill:#fff;}</style></defs><path class="cls-1" d="m39.89,26.88c-.39,0-.71-.32-.71-.71s.32-.71.71-.71c2.5,0,4.53-2.03,4.53-4.53s-2.03-4.53-4.53-4.53c-.45,0-.92.08-1.44.26-.21.07-.44.04-.62-.08-.18-.12-.3-.32-.31-.54-.29-4.04-3.68-7.21-7.73-7.21-.44,0-.89.04-1.38.13-.19.04-.39-.01-.55-.13-.16-.12-.26-.29-.28-.48-.51-3.95-3.89-6.94-7.88-6.94-4.39,0-7.95,3.57-7.95,7.95v.21c.02.19-.06.37-.19.51-.13.14-.31.22-.5.22-4.12.05-7.48,3.45-7.48,7.57s3.4,7.58,7.58,7.58c.39,0,.71.32.71.71s-.32.71-.71.71c-4.96,0-9-4.04-9-9,0-4.66,3.61-8.54,8.18-8.95C10.57,3.97,14.68,0,19.7,0c4.46,0,8.28,3.16,9.17,7.46.31-.03.62-.05.92-.05,4.5,0,8.32,3.31,9.05,7.68.36-.07.71-.11,1.06-.11,3.28,0,5.95,2.67,5.95,5.95s-2.67,5.95-5.95,5.95Z"/><path class="cls-2" d="m34.95,34.42c-1.82,0-3.29-1.48-3.29-3.29s1.48-3.29,3.29-3.29c.39,0,.71.32.71.71s-.32.71-.71.71c-1.03,0-1.87.84-1.87,1.87s.84,1.87,1.87,1.87,1.87-.84,1.87-1.87c0-.39.32-.71.71-.71s.71.32.71.71c0,1.82-1.48,3.29-3.29,3.29Z"/><path class="cls-2" d="m29.1,31.84H2.87c-.39,0-.71-.32-.71-.71s.32-.71.71-.71h26.23c.39,0,.71.32.71.71s-.32.71-.71.71Z"/><path class="cls-2" d="m45.13,31.84h-7.6c-.39,0-.71-.32-.71-.71s.32-.71.71-.71h7.6c.39,0,.71.32.71.71s-.32.71-.71.71Z"/><path class="cls-2" d="m15.55,41.21c-1.82,0-3.29-1.48-3.29-3.29s1.48-3.29,3.29-3.29c.39,0,.71.32.71.71s-.32.71-.71.71c-1.03,0-1.87.84-1.87,1.87s.84,1.87,1.87,1.87,1.87-.84,1.87-1.87c0-.39.32-.71.71-.71s.71.32.71.71c0,1.82-1.48,3.29-3.29,3.29Z"/><path class="cls-2" d="m27.34,48c-1.82,0-3.29-1.48-3.29-3.29s1.48-3.29,3.29-3.29c.39,0,.71.32.71.71s-.32.71-.71.71c-1.03,0-1.87.84-1.87,1.87s.84,1.87,1.87,1.87,1.87-.84,1.87-1.87c0-.39.32-.71.71-.71s.71.32.71.71c0,1.82-1.48,3.29-3.29,3.29Z"/><path class="cls-2" d="m45.13,38.63h-27c-.39,0-.71-.32-.71-.71s.32-.71.71-.71h27c.39,0,.71.32.71.71s-.32.71-.71.71Z"/><path class="cls-2" d="m9.7,38.63H2.87c-.39,0-.71-.32-.71-.71s.32-.71.71-.71h6.83c.39,0,.71.32.71.71s-.32.71-.71.71Z"/><path class="cls-2" d="m21.49,45.42H2.87c-.39,0-.71-.32-.71-.71s.32-.71.71-.71h18.62c.39,0,.71.32.71.71s-.32.71-.71.71Z"/><path class="cls-2" d="m45.13,45.42h-15.21c-.39,0-.71-.32-.71-.71s.32-.71.71-.71h15.21c.39,0,.71.32.71.71s-.32.71-.71.71Z"/></svg>