<?xml version="1.0" encoding="UTF-8"?><svg id="Calque_1" xmlns="http://www.w3.org/2000/svg" viewBox="0 0 48 48"><defs><style>.cls-1{fill:#bc955b;}.cls-1,.cls-2{stroke-width:0px;}.cls-2{fill:#fff;}</style></defs><path class="cls-2" d="m12.28,13.6h12.14c.4,0,.73-.33.73-.73s-.33-.73-.73-.73h-12.14c-.4,0-.73.33-.73.73s.33.73.73.73Z"/><path class="cls-2" d="m12.28,9.55h12.14c.4,0,.73-.33.73-.73s-.33-.73-.73-.73h-12.14c-.4,0-.73.33-.73.73s.33.73.73.73Z"/><circle class="cls-2" cx="27.28" cy=".73" r=".73"/><path class="cls-1" d="m7.51,4.73l-1.01,18.21c-.01.2.06.4.2.54.14.15.33.23.53.23h28.33c.2,0,.39-.08.53-.23.14-.15.21-.34.2-.54l-1.01-18.21c-.02-.39-.34-.69-.73-.69H8.24c-.39,0-.71.3-.73.69Zm26.34.77l.93,16.76H7.99l.93-16.76h24.93Z"/><path class="cls-2" d="m26.45,19.67h5.06c.4,0,.73-.33.73-.73s-.33-.73-.73-.73h-5.06c-.4,0-.73.33-.73.73s.33.73.73.73Z"/><path class="cls-2" d="m12.28,17.65h2.02c.4,0,.73-.33.73-.73s-.33-.73-.73-.73h-2.02c-.4,0-.73.33-.73.73s.33.73.73.73Z"/><path class="cls-1" d="m29.48,42.5c-.4,0-.73.33-.73.73s.33.73.73.73.73-.33.73-.73-.33-.73-.73-.73Z"/><path class="cls-1" d="m41.63,42.5c-.4,0-.73.33-.73.73s.33.73.73.73.73-.33.73-.73-.33-.73-.73-.73Z"/><path class="cls-2" d="m43.65,33.39h-16.19c-.16,0-.31.01-.45.04l-.3.05-.47-4.7h12.19c1.52,0,2.75-1.23,2.75-2.75,0-.05,0-.12,0-.21l-.53-7.15h4.02c.21,0,.4-.09.54-.24.14-.15.21-.36.18-.56l-1.01-10.12c-.04-.37-.35-.66-.73-.66h-3.85l-.33-4.54c-.11-1.42-1.32-2.54-2.74-2.54h-5.39c-.4,0-.73.33-.73.73s.33.73.75.73h5.37c.68,0,1.23.51,1.28,1.19l1.72,23.27v.1c0,.71-.58,1.3-1.29,1.3H4.35c-.71,0-1.3-.58-1.29-1.36L4.77,2.65c.05-.67.62-1.19,1.29-1.19h17.17c.41,0,.73-.32.73-.73s-.32-.73-.73-.73H6.06c-1.43,0-2.63,1.12-2.74,2.54l-1.71,23.28c0,.09,0,.15,0,.21,0,1.52,1.23,2.75,2.75,2.75h12.19l-.56,5.63H6.73c-1.22,0-2.31.82-2.65,2l-1.61,5.64-.02.17v5.06c0,.4.33.73.73.73h40.47c1.52,0,2.75-1.23,2.75-2.75v-9.3c0-1.41-1.23-2.56-2.75-2.56Zm-.66-24.85l.87,8.66h-3.32l-.64-8.66h3.09ZM5.48,36.8c.16-.55.67-.94,1.24-.94h9.1l-.22,2.24c-.02.2.05.41.19.56.14.15.33.24.54.24h8.38v2.59H4.14l1.34-4.69Zm-1.58,9.75v-3.6h20.8v2.31c0,.31.05.62.16.92l.13.38H3.9Zm21.35-12.12c-.2.25-.34.51-.43.8-.08.24-.12.49-.12.73v1.49h-7.57l.87-8.66h6.77l.56,5.55-.07.09Zm19.69,10.83c0,.71-.58,1.3-1.3,1.3h-16.19c-.71,0-1.3-.58-1.3-1.3v-9.3c0-.49.38-.91.93-1.05.13-.03.25-.05.36-.05h16.19c.71,0,1.3.49,1.3,1.1v9.3Z"/><path class="cls-1" d="m41.63,37.44c-.4,0-.73.33-.73.73s.33.73.73.73.73-.33.73-.73-.33-.73-.73-.73Z"/><path class="cls-1" d="m31.51,37.44h-2.02c-.4,0-.73.33-.73.73s.33.73.73.73h2.02c.4,0,.73-.33.73-.73s-.33-.73-.73-.73Z"/><circle class="cls-1" cx="37.58" cy="43.22" r=".73"/><path class="cls-1" d="m33.53,42.5c-.4,0-.73.33-.73.73s.33.73.73.73.73-.33.73-.73-.33-.73-.73-.73Z"/></svg>