<?xml version="1.0" encoding="UTF-8"?><svg id="Calque_1" xmlns="http://www.w3.org/2000/svg" viewBox="0 0 48 48"><defs><style>.cls-1{fill:#bc955b;}.cls-1,.cls-2{stroke-width:0px;}.cls-2{fill:#fff;}</style></defs><path class="cls-2" d="m24,48c-2.26,0-4.21-1.5-4.83-3.64h-.76c-.71,0-1.29-.58-1.29-1.29v-3.94c0-.71.58-1.29,1.29-1.29h11.18c.71,0,1.29.58,1.29,1.29v3.94c0,.71-.58,1.29-1.29,1.29h-.76c-.62,2.14-2.57,3.64-4.83,3.64Zm-5.45-5.06h1.19c.35,0,.64.25.7.59.29,1.77,1.79,3.05,3.56,3.05s3.27-1.28,3.56-3.05c.06-.34.35-.59.7-.59h1.19v-3.68h-10.91v3.68Zm11.04-3.68h0,0Z"/><path class="cls-1" d="m24,7.45c-1.1,0-1.99-.85-1.99-1.9V1.9c0-1.05.89-1.9,1.99-1.9s1.99.85,1.99,1.9v3.65c0,1.05-.89,1.9-1.99,1.9Zm0-6.03c-.31,0-.57.22-.57.48v3.65c0,.27.25.48.57.48s.57-.22.57-.48V1.9c0-.27-.25-.48-.57-.48Z"/><path class="cls-1" d="m16.02,9.61c-.69,0-1.32-.36-1.67-.95l-1.86-3.17c-.26-.44-.33-.95-.2-1.45.13-.5.45-.91.9-1.17.87-.5,2.11-.18,2.62.7l1.86,3.17c.26.44.33.95.19,1.45-.13.5-.45.91-.9,1.17-.29.17-.62.25-.96.25Zm-1.86-5.57c-.09,0-.18.02-.25.07-.12.07-.2.17-.24.3-.03.12-.02.25.05.36l1.86,3.17c.13.23.46.32.7.18.12-.07.2-.17.23-.3.03-.12.02-.25-.05-.36l-1.86-3.17c-.09-.15-.26-.25-.44-.25Z"/><path class="cls-1" d="m10.15,15.5c-.33,0-.66-.09-.95-.26l-3.18-1.86c-.44-.26-.75-.67-.88-1.17-.13-.5-.06-1.01.19-1.45.5-.89,1.74-1.22,2.61-.7l3.17,1.86c.91.53,1.22,1.71.69,2.62-.34.6-.97.97-1.65.97Zm-3.17-4.29c-.17,0-.33.1-.42.25-.07.12-.09.26-.05.39.04.13.11.24.23.31l3.17,1.86c.22.13.53.04.66-.18.14-.25.06-.56-.18-.7l-3.17-1.86c-.07-.04-.16-.07-.24-.07Z"/><path class="cls-1" d="m8,23.54h-3.65c-1.05,0-1.9-.89-1.9-1.99s.85-1.98,1.9-1.98h3.65c1.05,0,1.9.89,1.9,1.98s-.85,1.99-1.9,1.99Zm-3.65-2.55c-.26,0-.48.26-.48.56s.22.57.48.57h3.65c.27,0,.48-.25.48-.57s-.22-.56-.48-.56h-3.65Z"/><path class="cls-1" d="m6.97,33.33c-.68,0-1.32-.37-1.65-.97-.52-.91-.21-2.09.7-2.62l3.17-1.86c.87-.51,2.1-.19,2.61.71.52.91.21,2.09-.69,2.62l-3.18,1.86c-.29.17-.62.26-.96.26Zm3.17-4.29c-.08,0-.16.02-.23.06l-3.18,1.86c-.24.14-.32.45-.18.7.13.23.43.32.66.18l3.18-1.86c.23-.14.32-.46.18-.7-.09-.15-.25-.25-.42-.25Z"/><path class="cls-1" d="m41.03,33.33c-.34,0-.67-.09-.96-.26l-3.17-1.86c-.44-.26-.75-.68-.89-1.17-.13-.49-.06-1.01.19-1.45.5-.89,1.74-1.22,2.61-.71l3.17,1.86c.44.26.75.67.88,1.17.13.5.06,1.02-.19,1.46-.34.6-.97.97-1.65.97Zm-3.17-4.29c-.17,0-.33.1-.42.25-.07.12-.09.26-.05.39.03.13.12.24.23.31l3.17,1.86c.23.14.53.04.66-.18.07-.12.09-.26.05-.39-.03-.13-.12-.24-.23-.31l-3.17-1.86c-.07-.04-.15-.06-.24-.06Z"/><path class="cls-1" d="m43.66,23.54h-3.65c-1.05,0-1.9-.89-1.9-1.99s.85-1.98,1.9-1.98h3.65c1.05,0,1.9.89,1.9,1.98s-.85,1.99-1.9,1.99Zm-3.65-2.55c-.27,0-.48.25-.48.56s.22.57.48.57h3.65c.27,0,.48-.25.48-.57s-.22-.56-.48-.56h-3.65Z"/><path class="cls-1" d="m37.85,15.5c-.68,0-1.32-.37-1.65-.97-.52-.92-.21-2.09.7-2.62l3.17-1.86c.88-.52,2.11-.18,2.61.71.25.44.32.96.19,1.45-.13.5-.45.91-.88,1.17l-3.18,1.86c-.29.17-.62.26-.96.26Zm3.17-4.29c-.08,0-.16.02-.24.07l-3.18,1.86c-.24.14-.32.45-.18.7.13.23.43.32.66.18l3.17-1.86c.11-.07.19-.17.23-.31.03-.13.02-.27-.05-.39-.09-.15-.25-.25-.42-.25Z"/><path class="cls-1" d="m31.98,9.61c-.33,0-.67-.09-.96-.25-.45-.26-.77-.67-.9-1.17-.13-.49-.06-1.01.2-1.45l1.86-3.17c.51-.88,1.74-1.2,2.63-.7.45.25.77.67.9,1.16.13.49.06,1.01-.2,1.45l-1.86,3.18c-.34.58-.98.95-1.67.95Zm1.86-5.57c-.18,0-.35.1-.44.25l-1.86,3.17c-.06.11-.08.24-.05.36.03.13.12.23.23.3.23.13.56.05.7-.18l1.86-3.18c.06-.11.08-.24.05-.36-.03-.13-.12-.23-.23-.3-.08-.05-.17-.07-.26-.07Z"/><path class="cls-1" d="m29.41,36.52h-10.82c-.67,0-1.28-.45-1.48-1.08l-.24-.73c-.59-1.79-1.55-3.52-2.95-5.3-1.48-1.89-2.4-4.14-2.67-6.5-.04-.39.24-.74.63-.78.38-.05.74.24.78.63.23,2.1,1.06,4.1,2.37,5.78,1.5,1.91,2.54,3.79,3.18,5.73l.25.74c.02.06.08.1.13.1h10.82c.06,0,.11-.03.13-.09l.25-.75c.62-1.89,1.62-3.71,3.05-5.55,1.1-1.42,1.86-2.94,2.24-4.51.12-.52.21-1,.26-1.45.04-.39.4-.67.78-.63.39.04.67.39.63.78-.05.5-.15,1.05-.29,1.63-.43,1.76-1.27,3.46-2.5,5.04-1.33,1.72-2.25,3.39-2.82,5.13l-.25.75c-.2.64-.79,1.07-1.48,1.07Z"/><path class="cls-2" d="m11.96,20.47c-.39,0-.71-.32-.71-.71,0-.78.57-1.45,1.33-1.56l2.09-.3.32-.78-1.27-1.72c-.46-.61-.39-1.49.15-2.04l2.22-2.24c.55-.55,1.41-.62,2.05-.16l1.69,1.27.76-.32.3-2.11c.12-.79.77-1.35,1.55-1.35h3.14c.77,0,1.42.56,1.55,1.34l.31,2.12.76.32,1.68-1.27c.64-.47,1.5-.4,2.05.15l2.22,2.24c.54.55.61,1.43.15,2.04l-1.27,1.72.32.78,2.09.31c.39.06.66.42.6.81-.06.39-.42.66-.81.6l-2.49-.36c-.25-.04-.46-.2-.55-.43l-.62-1.53c-.09-.23-.06-.49.08-.69l1.51-2.04c.04-.05.03-.15-.02-.2l-2.22-2.24c-.06-.06-.15-.05-.2,0l-2,1.5c-.2.15-.47.19-.7.09l-1.51-.63c-.23-.1-.39-.31-.43-.55l-.36-2.51c-.01-.07-.07-.13-.14-.13h-3.14c-.07,0-.13.06-.14.14l-.36,2.5c-.04.25-.2.46-.43.55l-1.51.63c-.23.1-.5.06-.7-.09l-2.01-1.51s-.13-.05-.19.02l-2.21,2.24s-.06.15-.02.2l1.51,2.05c.15.2.18.46.08.69l-.62,1.53c-.1.23-.31.4-.55.43l-2.49.36c-.07,0-.11.07-.11.15,0,.39-.32.71-.71.71Z"/><path class="cls-2" d="m36.04,20.47c-.39,0-.71-.32-.71-.71,0-.08-.04-.14-.11-.15-.39-.05-.66-.41-.61-.8.05-.39.42-.66.8-.61.76.1,1.33.77,1.33,1.56,0,.39-.32.71-.71.71Z"/><path class="cls-2" d="m24,26.79c-3.03,0-5.49-2.46-5.49-5.49s2.46-5.49,5.49-5.49,5.49,2.46,5.49,5.49-2.46,5.49-5.49,5.49Zm0-9.56c-2.25,0-4.07,1.83-4.07,4.07s1.83,4.07,4.07,4.07,4.07-1.83,4.07-4.07-1.83-4.07-4.07-4.07Z"/></svg>