<?xml version="1.0" encoding="UTF-8"?><svg id="Calque_1" xmlns="http://www.w3.org/2000/svg" viewBox="0 0 48 48"><defs><style>.cls-1{fill:#bc955b;}.cls-1,.cls-2{stroke-width:0px;}.cls-2{fill:#fff;}</style></defs><path class="cls-1" d="m26.36,47.9h-4.84c-.71,0-1.37-.53-1.53-1.22l-1.22-4.38c-.04-.18-.23-.39-.37-.44l-3.16-1.31c-.17-.08-.46-.07-.58,0l-4.02,2.28c-.57.36-1.41.27-1.92-.23l-3.43-3.44c-.5-.5-.59-1.35-.21-1.95l2.24-3.96c.1-.15.11-.44.05-.57l-1.31-3.16c-.06-.18-.28-.37-.41-.4l-4.46-1.24C.53,27.74,0,27.08,0,26.37v-4.84c0-.72.53-1.37,1.22-1.53l4.38-1.22c.17-.04.39-.23.44-.37l1.31-3.16c.08-.17.07-.46,0-.57l-2.28-4.02c-.36-.56-.27-1.42.24-1.92l3.43-3.43c.5-.5,1.35-.59,1.95-.21l3.96,2.24c.15.1.44.11.57.05l3.17-1.31c.18-.06.37-.28.4-.42l1.24-4.45c.14-.65.81-1.19,1.52-1.19h4.84c.72,0,1.37.53,1.53,1.22l1.22,4.38c.04.17.24.39.37.44l3.16,1.31c.17.08.46.07.57,0l4.02-2.28c.57-.36,1.41-.27,1.92.23l3.43,3.44c.51.5.6,1.34.21,1.95l-2.24,3.96c-.1.15-.11.44-.05.57l1.31,3.16c.06.18.28.37.41.4l4.46,1.24c.66.15,1.19.8,1.19,1.52v4.84c0,.72-.53,1.37-1.22,1.53l-4.38,1.22c-.18.04-.39.23-.44.37l-.43,1.05c-.15.36-.57.53-.93.38-.36-.15-.53-.57-.38-.93l.42-1c.19-.56.79-1.11,1.42-1.24l4.38-1.22c.08-.02.15-.11.15-.15v-4.84s-.07-.13-.12-.14l-4.45-1.24c-.59-.13-1.19-.67-1.4-1.28l-1.27-3.08c-.26-.53-.22-1.34.12-1.88l2.24-3.96c.04-.07.03-.18,0-.21l-3.43-3.43s-.14-.04-.18-.02l-4.02,2.28c-.51.33-1.32.37-1.9.08l-3.07-1.28c-.56-.19-1.11-.8-1.24-1.42l-1.22-4.38c-.02-.08-.11-.15-.15-.15h-4.84s-.13.07-.14.11l-1.24,4.45c-.13.59-.67,1.19-1.28,1.4l-3.08,1.27c-.53.26-1.34.22-1.88-.13l-3.96-2.24c-.07-.04-.18-.03-.21,0l-3.43,3.43s-.04.14-.02.18l2.28,4.02c.33.51.37,1.32.08,1.89l-1.28,3.08c-.19.56-.79,1.11-1.42,1.24l-4.38,1.22c-.08.02-.15.11-.15.15v4.84s.07.13.12.14l4.45,1.24c.59.13,1.19.67,1.4,1.28l1.27,3.08c.26.53.22,1.34-.13,1.88l-2.24,3.96c-.04.07-.03.18,0,.21l3.43,3.44s.14.04.18.02l4.02-2.28c.51-.33,1.32-.37,1.9-.08l3.07,1.28c.57.19,1.11.8,1.24,1.42l1.22,4.38c.02.08.11.15.15.15h4.84s.13-.07.14-.11l1.24-4.46c.12-.58.68-1.2,1.28-1.4l.95-.39c.36-.15.78.02.93.39.15.36-.02.78-.39.93l-1,.41c-.18.06-.37.28-.4.41l-1.24,4.46c-.14.65-.81,1.19-1.52,1.19Z"/><path class="cls-2" d="m42.87,47.99c-1.36,0-2.72-.52-3.75-1.55l-11.28-11.28c-4.29,1.49-9.06.41-12.29-2.82-2.83-2.83-4.04-6.87-3.23-10.8.1-.5.47-.9.96-1.05.49-.15,1.02-.01,1.39.35l5.55,5.55c.1.1.24.13.37.1,2.86-.77,5.11-3.02,5.88-5.88.04-.13,0-.27-.1-.37l-5.56-5.56h0c-.36-.36-.5-.89-.35-1.38.15-.49.55-.86,1.05-.96,3.93-.82,7.98.38,10.82,3.22,3.23,3.23,4.31,8.02,2.81,12.31l11.34,11.34c.99.99,1.53,2.31,1.51,3.72-.02,1.4-.59,2.71-1.61,3.68-.97.92-2.24,1.38-3.51,1.38Zm-14.85-14.36c.18,0,.37.07.5.21l11.6,11.6c1.46,1.45,3.82,1.52,5.28.14.74-.7,1.16-1.65,1.17-2.67.01-1.02-.37-1.97-1.09-2.69l-11.66-11.66c-.2-.2-.26-.5-.16-.76,1.53-3.87.61-8.28-2.33-11.22-2.49-2.49-6.03-3.55-9.48-2.85l5.53,5.53c.45.45.63,1.12.47,1.74-.9,3.35-3.53,5.98-6.88,6.88-.62.17-1.29-.01-1.74-.47l-5.55-5.55c-.67,3.44.4,7,2.89,9.49,2.94,2.94,7.34,3.85,11.21,2.34.08-.03.17-.05.26-.05Z"/></svg>