<?xml version="1.0" encoding="UTF-8"?><svg id="Calque_1" xmlns="http://www.w3.org/2000/svg" viewBox="0 0 48 48"><defs><style>.cls-1{fill:#bc955b;}.cls-1,.cls-2{stroke-width:0px;}.cls-2{fill:#fff;}</style></defs><path class="cls-1" d="m37.66,48c-.33,0-.63-.24-.7-.58l-.51-2.76c-.3-1.62-1.03-3.14-2.12-4.38l-5.28-6.04c-.83-.95-1.47-2.03-1.91-3.2-.14-.37.05-.78.41-.91.36-.14.78.05.91.41.38,1.02.94,1.95,1.66,2.77l5.28,6.04c1.25,1.43,2.1,3.18,2.44,5.05l.51,2.76c.07.39-.18.76-.57.83-.04,0-.09.01-.13.01Z"/><path class="cls-2" d="m27.18,27.86c-.18,0-.37-.07-.5-.21l-1.14-1.15-6.69-6.69c-.47-.47-.72-1.09-.72-1.75,0-.66.26-1.28.72-1.75l8.72-8.72c.96-.96,2.53-.96,3.5,0l14.46,14.46c.47.47.72,1.09.72,1.75s-.26,1.28-.72,1.75l-1.2,1.2c-.28.28-.73.28-1,0s-.28-.73,0-1l1.2-1.2c.2-.2.31-.46.31-.74s-.11-.54-.31-.74l-14.46-14.46c-.41-.41-1.08-.41-1.49,0l-8.72,8.72c-.41.41-.41,1.08,0,1.49l7.83,7.84c.28.28.27.73,0,1-.14.14-.32.21-.5.21Z"/><path class="cls-1" d="m44.43,42.37c-.33,0-.62-.23-.69-.56l-1.11-5.12s-.01-.07-.01-.1c-.03-.46-.01-.92.06-1.38l.61-3.84c.21-1.36-.32-2.74-1.41-3.6-.8-.63-1.4-1.48-1.72-2.45l-.88-2.61c-.25-.76-1.04-1.19-1.81-1.02-.41.09-.75.34-.97.69-.22.35-.29.77-.19,1.18l1.56,6.57c.09.38-.15.76-.53.85-.38.09-.76-.15-.85-.53l-1.56-6.57c-.18-.78-.05-1.58.37-2.26.42-.68,1.09-1.15,1.87-1.32,1.5-.33,2.99.5,3.47,1.95l.88,2.61c.24.71.67,1.33,1.26,1.79,1.49,1.17,2.23,3.07,1.93,4.94l-.61,3.84c-.05.33-.07.67-.05,1.01l1.1,5.07c.08.38-.16.76-.54.84-.05.01-.1.02-.15.02Z"/><path class="cls-2" d="m35.05,35c-.63,0-1.25-.24-1.72-.71l-6.65-6.64c-.28-.28-.28-.73,0-1,.28-.28.73-.28,1,0l6.65,6.64c.4.4,1.06.39,1.47-.02l.43-.42c.28-.27.73-.27,1,.01.27.28.27.73-.01,1l-.42.41c-.48.48-1.12.72-1.75.72Z"/><path class="cls-2" d="m24.37,18.73c-.39,0-.7-.31-.71-.7-.03-1.66.49-3.08,1.52-4.1s2.4-1.56,4.1-1.52c.39,0,.7.33.69.73,0,.39-.32.69-.71.69-.04,0-.09,0-.14,0-1.21,0-2.22.38-2.94,1.1-.75.75-1.13,1.81-1.1,3.07,0,.39-.3.72-.7.72h-.01Z"/><path class="cls-2" d="m26.84,19.97c-.39,0-.7-.31-.71-.69-.03-1.29.38-2.4,1.19-3.21.81-.81,1.89-1.21,3.21-1.19.39,0,.7.33.69.73,0,.39-.32.69-.71.69-.03,0-.07,0-.1,0-.62,0-1.45.14-2.08.77-.66.66-.79,1.55-.77,2.17,0,.39-.3.72-.69.73h-.02Z"/><path class="cls-2" d="m29.31,21.22c-.39,0-.7-.31-.71-.7-.02-.93.28-1.73.86-2.31s1.43-.89,2.31-.86c.39,0,.7.33.69.73s-.37.73-.73.69c-.39-.03-.89.06-1.28.45s-.45.91-.45,1.28c0,.39-.3.72-.7.72h-.01Z"/><path class="cls-1" d="m15.05,10.11h-1.28c-.39,0-.71-.32-.71-.71s.32-.71.71-.71h1.28c.39,0,.71.32.71.71s-.32.71-.71.71Z"/><path class="cls-2" d="m22.79,48H6.04c-2.36,0-4.29-1.92-4.29-4.29V4.29C1.75,1.92,3.68,0,6.04,0h16.75c2.36,0,4.29,1.92,4.29,4.29v1.29c0,.39-.32.71-.71.71s-.71-.32-.71-.71v-1.29c0-1.58-1.29-2.87-2.87-2.87H6.04c-1.58,0-2.87,1.29-2.87,2.87v39.42c0,1.58,1.29,2.87,2.87,2.87h16.75c1.58,0,2.87-1.29,2.87-2.87v-8.41c0-.39.32-.71.71-.71s.71.32.71.71v8.41c0,2.36-1.92,4.29-4.29,4.29Z"/><path class="cls-1" d="m20.28,43.62h-11.72c-1.77,0-3.21-1.51-3.21-3.37V15.28c0-1.86,1.44-3.37,3.21-3.37h10.41c.39,0,.71.32.71.71s-.32.71-.71.71h-10.41c-.99,0-1.79.87-1.79,1.95v24.98c0,1.07.8,1.95,1.79,1.95h11.72c.99,0,1.79-.87,1.79-1.95v-12.59c0-.39.32-.71.71-.71s.71.32.71.71v12.59c0,1.86-1.44,3.37-3.21,3.37Z"/><path class="cls-1" d="m22.78,6.78H6.05c-.39,0-.71-.32-.71-.71s.32-.71.71-.71h16.73c.39,0,.71.32.71.71s-.32.71-.71.71Z"/></svg>