<?xml version="1.0" encoding="UTF-8"?><svg id="Calque_1" xmlns="http://www.w3.org/2000/svg" viewBox="0 0 48 48"><defs><style>.cls-1{fill:#bc955b;}.cls-1,.cls-2{stroke-width:0px;}.cls-2{fill:#fff;}</style></defs><g id="icons"><path class="cls-2" d="m34.38,40.71H4.71c-2.6,0-4.71-2.11-4.71-4.71V12c0-2.6,2.11-4.71,4.71-4.71h29.67c2.6,0,4.71,2.11,4.71,4.71v5.86c0,.39-.32.71-.71.71s-.71-.32-.71-.71v-5.86c0-1.81-1.48-3.29-3.29-3.29H4.71c-1.81,0-3.29,1.48-3.29,3.29v24c0,1.81,1.48,3.29,3.29,3.29h29.67c1.81,0,3.29-1.48,3.29-3.29v-5.86c0-.39.32-.71.71-.71s.71.32.71.71v5.86c0,2.6-2.11,4.71-4.71,4.71Z"/></g><path class="cls-1" d="m20.97,33.71c-.43,0-.83-.17-1.21-.52l-13.02-11.6c-.82-.74-.85-1.76-.46-2.38.35-.55,1.12-.93,2.05-.54l8.3,3.41v-6.16c0-.93.64-1.63,1.49-1.63.54,0,.94.3,1.2.52l13.02,11.61c.74.66.93,1.63.47,2.37-.35.55-1.11.94-2.05.55l-8.31-3.42v6.17c0,.92-.64,1.62-1.49,1.62Zm-13.39-13.78s-.08.01-.1.04c-.06.09-.06.33.21.57l13.02,11.6c.17.15.24.15.26.15.02,0,.07-.07.07-.2v-7.23c0-.24.12-.46.31-.59.2-.13.45-.16.67-.07l9.29,3.82s.25.1.31,0c.06-.09.05-.32-.21-.56l-13.01-11.61c-.19-.16-.26-.17-.26-.17-.02,0-.07.08-.07.21v7.22c0,.24-.12.46-.31.59-.2.13-.44.16-.67.07l-9.29-3.81s-.13-.05-.21-.05Z"/><path class="cls-2" d="m45.29,34.58h-4.03c-.39,0-.71-.32-.71-.71s.32-.71.71-.71h4.03c.71,0,1.29-.58,1.29-1.29v-15.73c0-.71-.58-1.29-1.29-1.29h-4.03c-.39,0-.71-.32-.71-.71s.32-.71.71-.71h4.03c1.49,0,2.71,1.22,2.71,2.71v15.73c0,1.49-1.22,2.71-2.71,2.71Z"/></svg>