<?xml version="1.0" encoding="UTF-8"?><svg id="Calque_1" xmlns="http://www.w3.org/2000/svg" viewBox="0 0 48 48"><defs><style>.cls-1{fill:#bc955b;}.cls-1,.cls-2{stroke-width:0px;}.cls-2{fill:#fff;}</style></defs><path class="cls-1" d="m42.75,44.48H5.25c-2.89,0-5.25-2.35-5.25-5.25V8.76C0,5.87,2.35,3.52,5.25,3.52h37.51c2.89,0,5.25,2.35,5.25,5.25v30.48c0,2.89-2.35,5.25-5.25,5.25ZM5.25,4.94c-2.11,0-3.83,1.72-3.83,3.83v30.48c0,2.11,1.72,3.83,3.83,3.83h37.51c2.11,0,3.83-1.72,3.83-3.83V8.76c0-2.11-1.72-3.83-3.83-3.83H5.25Z"/><path class="cls-2" d="m9.12,8.91h-1.55c-.39,0-.71-.32-.71-.71s.32-.71.71-.71h1.55c.39,0,.71.32.71.71s-.32.71-.71.71Z"/><path class="cls-2" d="m16.32,8.91h-1.55c-.39,0-.71-.32-.71-.71s.32-.71.71-.71h1.55c.39,0,.71.32.71.71s-.32.71-.71.71Z"/><path class="cls-2" d="m18.71,27.74c-.39,0-.71-.32-.71-.71v-3.99c0-3.31,2.69-6,6-6s6,2.69,6,6v1.2c0,.39-.32.71-.71.71s-.71-.32-.71-.71v-1.2c0-2.53-2.06-4.58-4.58-4.58s-4.58,2.06-4.58,4.58v3.99c0,.39-.32.71-.71.71Z"/><path class="cls-2" d="m27.61,38.22h-7.21c-2.64,0-4.79-2.15-4.79-4.79v-5.49c0-.89.73-1.62,1.62-1.62h13.56c.89,0,1.62.73,1.62,1.62v5.49c0,2.64-2.15,4.79-4.79,4.79Zm-10.39-10.48c-.11,0-.2.09-.2.2v5.49c0,1.86,1.51,3.37,3.37,3.37h7.21c1.86,0,3.37-1.51,3.37-3.37v-5.49c0-.11-.09-.2-.2-.2h-13.56Z"/><path class="cls-2" d="m24,34.67c-.39,0-.71-.32-.71-.71v-3.31c0-.39.32-.71.71-.71s.71.32.71.71v3.31c0,.39-.32.71-.71.71Z"/><path class="cls-2" d="m43.5,12.64H3.8c-.39,0-.71-.32-.71-.71s.32-.71.71-.71h39.7c.39,0,.71.32.71.71s-.32.71-.71.71Z"/></svg>