<?xml version="1.0" encoding="UTF-8"?><svg id="Calque_1" xmlns="http://www.w3.org/2000/svg" viewBox="0 0 48 48"><defs><style>.cls-1{fill:#bc955b;}.cls-1,.cls-2{stroke-width:0px;}.cls-2{fill:#fff;}</style></defs><path class="cls-2" d="m12.8,28.46c-2.42,0-4.4-1.97-4.4-4.4s1.97-4.4,4.4-4.4,4.4,1.97,4.4,4.4-1.97,4.4-4.4,4.4Zm0-7.38c-1.64,0-2.98,1.34-2.98,2.98s1.34,2.98,2.98,2.98,2.98-1.34,2.98-2.98-1.34-2.98-2.98-2.98Z"/><path class="cls-2" d="m8.36,47.95c-.39,0-.71-.32-.71-.71v-7.58c0-.39.32-.71.71-.71s.71.32.71.71v7.58c0,.39-.32.71-.71.71Z"/><path class="cls-1" d="m31.83,19.25c-.22,0-.44-.1-.58-.3-1.67-2.37-4.39-3.78-7.27-3.78s-5.59,1.41-7.26,3.77c-.23.32-.67.4-.99.17-.32-.23-.4-.67-.17-.99,1.94-2.74,5.08-4.37,8.42-4.37s6.5,1.64,8.43,4.39c.23.32.15.76-.17.99-.12.09-.27.13-.41.13Z"/><path class="cls-2" d="m35.2,28.46c-2.42,0-4.4-1.97-4.4-4.4s1.97-4.4,4.4-4.4,4.4,1.97,4.4,4.4-1.97,4.4-4.4,4.4Zm0-7.38c-1.64,0-2.98,1.34-2.98,2.98s1.34,2.98,2.98,2.98,2.98-1.34,2.98-2.98-1.34-2.98-2.98-2.98Z"/><path class="cls-2" d="m39.65,47.95c-.39,0-.71-.32-.71-.71v-7.58c0-.39.32-.71.71-.71s.71.32.71.71v7.58c0,.39-.32.71-.71.71Z"/><path class="cls-2" d="m8.36,41.72c-.39,0-.71-.32-.71-.71v-3.18c0-.39.32-.71.71-.71s.71.32.71.71v3.18c0,.39-.32.71-.71.71Z"/><path class="cls-2" d="m39.65,41.72c-.39,0-.71-.32-.71-.71v-3.18c0-.39.32-.71.71-.71s.71.32.71.71v3.18c0,.39-.32.71-.71.71Z"/><path class="cls-2" d="m44.26,47.95c-.39,0-.71-.32-.71-.71v-13.37c0-1.26-1.02-2.28-2.28-2.28h-10.1c-.39,0-.71-.32-.71-.71s.32-.71.71-.71h10.1c2.04,0,3.7,1.66,3.7,3.7v13.37c0,.39-.32.71-.71.71Z"/><path class="cls-2" d="m24,35.28c-2.42,0-4.4-1.97-4.4-4.4s1.97-4.4,4.4-4.4,4.4,1.97,4.4,4.4-1.97,4.4-4.4,4.4Zm0-7.38c-1.64,0-2.98,1.34-2.98,2.98s1.34,2.98,2.98,2.98,2.98-1.34,2.98-2.98-1.34-2.98-2.98-2.98Z"/><path class="cls-2" d="m33.06,47.95c-.39,0-.71-.32-.71-.71v-6.55c0-1.26-1.02-2.28-2.28-2.28h-12.13c-1.26,0-2.28,1.02-2.28,2.28v6.55c0,.39-.32.71-.71.71s-.71-.32-.71-.71v-6.55c0-2.04,1.66-3.7,3.7-3.7h12.13c2.04,0,3.7,1.66,3.7,3.7v6.55c0,.39-.32.71-.71.71Z"/><path class="cls-1" d="m42.96,29.06c-.31,0-.6-.21-.68-.52-.1-.38.12-.77.49-.87l3.66-1.02c.08-.02.15-.11.15-.15v-4.86s-.07-.13-.12-.14l-4.46-1.24c-.59-.13-1.2-.67-1.4-1.28l-1.27-3.08c-.26-.53-.22-1.35.13-1.89l2.24-3.97c.04-.07.03-.18,0-.22l-3.43-3.43s-.14-.04-.18-.02l-4.03,2.28c-.51.33-1.32.37-1.9.08l-3.08-1.28c-.56-.19-1.11-.8-1.25-1.42l-1.22-4.39c-.02-.08-.11-.15-.15-.15h-4.86s-.13.07-.14.12l-1.24,4.46c-.13.59-.67,1.2-1.28,1.4l-3.08,1.27c-.53.27-1.34.22-1.89-.13l-3.97-2.24c-.07-.04-.18-.03-.22,0l-3.43,3.43s-.04.15-.02.18l2.28,4.03c.33.51.37,1.32.08,1.9l-1.28,3.08c-.19.56-.8,1.11-1.42,1.25l-4.39,1.22c-.08.02-.15.11-.15.15v4.86s.07.13.11.14l3.73,1.03c.38.1.6.5.49.87-.1.38-.5.6-.87.49l-3.69-1.02c-.65-.14-1.19-.81-1.19-1.52v-4.86c0-.71.54-1.38,1.23-1.53l4.39-1.22c.18-.04.39-.23.44-.37l1.31-3.17c.08-.17.07-.46,0-.58l-2.28-4.03c-.37-.57-.27-1.41.23-1.92l3.43-3.43c.5-.5,1.35-.59,1.95-.21l3.97,2.24c.15.1.44.11.57.05l3.17-1.31c.18-.06.37-.28.4-.42l1.24-4.46c.15-.66.8-1.19,1.52-1.19h4.86c.71,0,1.38.54,1.53,1.23l1.22,4.39c.04.18.23.39.37.44l3.17,1.31c.17.08.46.07.58,0l4.03-2.28c.57-.37,1.41-.27,1.92.23l3.43,3.43c.51.51.6,1.35.21,1.95l-2.24,3.97c-.1.15-.11.44-.05.57l1.31,3.17c.06.18.28.37.42.4l4.46,1.24c.66.15,1.19.8,1.19,1.52v4.86c0,.72-.53,1.38-1.23,1.53l-3.62,1.01c-.06.02-.13.03-.19.03Z"/><path class="cls-2" d="m3.74,47.95c-.39,0-.71-.32-.71-.71v-13.37c0-2.04,1.66-3.7,3.7-3.7h10.1c.39,0,.71.32.71.71s-.32.71-.71.71H6.73c-1.26,0-2.28,1.02-2.28,2.28v13.37c0,.39-.32.71-.71.71Z"/></svg>