<?xml version="1.0" encoding="UTF-8"?><svg id="Calque_1" xmlns="http://www.w3.org/2000/svg" viewBox="0 0 48 48"><defs><style>.cls-1{fill:#bc955b;}.cls-1,.cls-2{stroke-width:0px;}.cls-2{fill:#fff;}</style></defs><path class="cls-2" d="m17.09,32.97c-.21,0-.43-.05-.62-.16l-3.1-1.79c-.51-.29-.75-.94-.56-1.49l.98-3s0-.14-.02-.18l-1.17-2.02c-.05-.08-.13-.15-.17-.16l-3.09-.66c-.57-.11-1-.64-1-1.23v-3.58c0-.59.44-1.12,1.01-1.23l3.08-.66s.12-.08.14-.11l1.17-2.03c.05-.08.06-.18.06-.22l-.98-3.01c-.19-.55.06-1.19.56-1.48l3.09-1.79c.51-.29,1.19-.18,1.57.26l2.11,2.34s.13.07.17.07h2.34c.1,0,.19-.04.22-.07l2.11-2.35c.38-.44,1.06-.55,1.57-.25l3.1,1.79c.51.29.75.93.56,1.49l-.98,3s0,.14.02.18l1.17,2.02c.05.08.13.15.17.16l3.09.66c.57.11,1,.64,1,1.23v3.58c0,.59-.44,1.12-1.01,1.23l-3.08.65s-.12.07-.14.11l-1.17,2.03c-.05.08-.06.18-.06.22l.98,3.01c.19.55-.06,1.19-.56,1.48l-3.09,1.79c-.51.29-1.19.18-1.57-.26l-2.11-2.34s-.13-.07-.17-.07h-2.34c-.12-.02-.19.04-.22.07l-2.11,2.35c-.24.27-.59.42-.95.42Zm-.11-1.37s0,0,0,0h0Zm9.07,0h0s0,0,0,0Zm-11.86-1.74l2.87,1.66,2.03-2.26c.31-.35.87-.58,1.34-.53h2.22c.42-.04.97.18,1.28.54l2.03,2.25,2.86-1.65-.94-2.89c-.15-.44-.07-1.04.21-1.43l1.11-1.93c.17-.38.64-.75,1.11-.84l2.96-.63v-3.31s-2.97-.63-2.97-.63c-.46-.09-.93-.46-1.13-.89l-1.11-1.92c-.24-.34-.33-.93-.17-1.39l.94-2.88-2.87-1.66-2.03,2.26c-.31.35-.86.58-1.34.53h-2.22c-.41.04-.97-.18-1.29-.54l-2.03-2.25-2.86,1.65.94,2.89c.15.44.07,1.04-.21,1.43l-1.11,1.93c-.17.38-.64.75-1.11.84l-2.96.63v3.31s2.97.63,2.97.63c.46.09.93.46,1.13.89l1.12,1.92c.24.34.33.93.17,1.38l-.94,2.88Zm14.68.12s0,0,0,0h0Zm-14.71-.01h0s0,0,0,0Zm19.25-7.85h0s0,0,0,0Zm-23.8,0h0s0,0,0,0Zm23.8-3.26s0,0,0,0h0Zm-23.79,0h0s0,0,0,0Zm4.53-7.87h0s0,0,0,0Zm2.82-1.62s0,0,0,0h0Zm9.08,0h0s0,0,0,0Z"/><path class="cls-2" d="m21.52,25.77c-2.91,0-5.28-2.37-5.28-5.29s2.37-5.28,5.28-5.28c.39,0,.71.32.71.71s-.32.71-.71.71c-2.13,0-3.86,1.73-3.86,3.86s1.73,3.87,3.86,3.87,3.86-1.73,3.86-3.87c0-.39.32-.71.71-.71s.71.32.71.71c0,2.91-2.37,5.29-5.28,5.29Z"/><path class="cls-1" d="m36.1,48h-8.44c-3.78,0-6.85-3.07-6.85-6.85v-.89c0-.39.32-.71.71-.71s.71.32.71.71v.89c0,2.99,2.43,5.43,5.43,5.43h8.44c1.81,0,3.32-1.36,3.5-3.17l.65-6.64c.1-1,.83-1.82,1.81-2.04l2.83-.62c.26-.06.47-.23.58-.46.11-.24.11-.51,0-.75l-4.52-9.15c-.31-.62-.44-1.34-.39-2.08.03-.39.04-.79.04-1.19,0-5.41-2.31-10.59-6.35-14.2C30.15,2.62,24.87.94,19.36,1.54,10.53,2.51,3.47,9.62,2.55,18.46c-.56,5.38,1.1,10.57,4.66,14.61,1.22,1.38,1.9,3.09,1.9,4.81v9.41c0,.39-.32.71-.71.71s-.71-.32-.71-.71v-9.41c0-1.37-.55-2.75-1.54-3.87C2.32,29.67.54,24.1,1.14,18.32,2.12,8.82,9.72,1.17,19.2.13c5.91-.65,11.59,1.16,15.99,5.1,4.33,3.88,6.82,9.45,6.82,15.26,0,.43-.02.86-.04,1.28-.03.49.05.96.25,1.35l4.52,9.15c.31.63.31,1.36.01,1.99-.3.63-.87,1.08-1.56,1.23l-2.83.62c-.38.08-.66.4-.7.79l-.65,6.64c-.25,2.54-2.36,4.45-4.91,4.45Z"/></svg>