<?xml version="1.0" encoding="UTF-8"?><svg id="Calque_1" xmlns="http://www.w3.org/2000/svg" viewBox="0 0 48 48"><defs><style>.cls-1{fill:#bc955b;}.cls-1,.cls-2{stroke-width:0px;}.cls-2{fill:#fff;}</style></defs><path class="cls-2" d="m46.72,45.57h-26.38c-.39,0-.71-.32-.71-.71s.32-.71.71-.71h26.38c.39,0,.71.32.71.71s-.32.71-.71.71Z"/><path class="cls-2" d="m9.87,45.57H1.27c-.39,0-.71-.32-.71-.71s.32-.71.71-.71h8.6c.39,0,.71.32.71.71s-.32.71-.71.71Z"/><path class="cls-1" d="m24.81,34.62H5.4c-2.67,0-4.84-2.17-4.84-4.84s2.17-4.84,4.84-4.84h19.42c2.67,0,4.84,2.17,4.84,4.84s-2.17,4.84-4.84,4.84ZM5.4,26.36c-1.88,0-3.42,1.53-3.42,3.42s1.53,3.42,3.42,3.42h19.42c1.89,0,3.42-1.53,3.42-3.42s-1.53-3.42-3.42-3.42H5.4Z"/><path class="cls-1" d="m8.97,30.49h-3.57c-.39,0-.71-.32-.71-.71s.32-.71.71-.71h3.57c.39,0,.71.32.71.71s-.32.71-.71.71Z"/><path class="cls-2" d="m15.11,42.57c-.39,0-.71-.32-.71-.71v-5.55c0-.39.32-.71.71-.71s.71.32.71.71v5.55c0,.39-.32.71-.71.71Z"/><path class="cls-2" d="m32.96,26.76c-.59,0-1.12-.44-1.24-1.02l-.66-3.13s-.08-.13-.12-.15l-2.06-1.18c-.09-.05-.19-.07-.24-.06l-3.06.99c-.55.19-1.2-.05-1.49-.57l-1.81-3.14c-.3-.51-.18-1.19.26-1.58l2.38-2.14s.07-.13.07-.18v-2.38c0-.1-.04-.2-.07-.23l-2.38-2.15c-.44-.38-.55-1.06-.25-1.58l1.81-3.14c.3-.51.94-.76,1.5-.56l3.04.98s.15,0,.19-.03l2.06-1.19c.09-.05.15-.13.17-.17l.67-3.14c.11-.57.64-1.01,1.24-1.01h3.64c.59,0,1.12.44,1.24,1.01l.66,3.14s.08.13.12.15l2.06,1.19c.09.05.19.06.24.06l3.06-.99c.55-.19,1.2.05,1.49.57l1.81,3.14c.3.51.18,1.19-.26,1.58l-2.38,2.14s-.07.13-.07.18v2.38c0,.1.04.2.07.23l2.39,2.15c.44.39.55,1.07.25,1.58l-1.81,3.14c-.3.51-.94.76-1.5.57l-3.04-.99s-.15,0-.19.03l-2.06,1.19c-.09.05-.15.13-.17.17l-.66,3.14c-.11.57-.65,1.01-1.24,1.01h-3.64Zm3.49-1.3s0,0,0,0h0Zm-3.34,0h0s0,0,0,0Zm-4.42-5.66c.34,0,.69.1.96.28l1.96,1.12c.38.17.75.65.85,1.12l.64,3.01h3.38s.64-3.02.64-3.02c.09-.46.46-.94.9-1.14l1.95-1.13c.34-.24.95-.33,1.4-.17l2.93.95,1.68-2.92-2.3-2.07c-.36-.31-.58-.87-.54-1.35v-2.26c-.04-.42.18-.98.54-1.3l2.29-2.06-1.69-2.93-2.94.96c-.45.15-1.04.07-1.44-.21l-1.96-1.13c-.38-.18-.75-.65-.85-1.12l-.64-3.01h-3.38l-.64,3.02c-.09.46-.46.94-.9,1.14l-1.95,1.13c-.34.24-.95.33-1.4.17l-2.93-.95-1.68,2.92,2.3,2.07c.36.31.58.87.54,1.35v2.26c.04.42-.18.98-.54,1.3l-2.29,2.06,1.69,2.92,2.94-.95c.15-.05.31-.08.48-.08Zm-3.54,1.07s0,0,0,0h0Zm19.25,0h0s0,0,0,0Zm1.67-2.88s0,0,0,0h0Zm-22.57,0h0s0,0,0,0Zm22.57-9.19s0,0,0,0h0Zm-22.58,0h0s0,0,0,0Zm1.67-2.87s0,0,0,0h0Zm19.26,0h0s0,0,0,0Zm-11.3-4.6h0s0,0,0,0Z"/><path class="cls-2" d="m34.78,18.49c-2.82,0-5.12-2.29-5.12-5.12s2.29-5.12,5.12-5.12c.39,0,.71.32.71.71s-.32.71-.71.71c-2.04,0-3.7,1.66-3.7,3.7s1.66,3.7,3.7,3.7,3.7-1.66,3.7-3.7c0-.39.32-.71.71-.71s.71.32.71.71c0,2.82-2.29,5.12-5.12,5.12Z"/><path class="cls-1" d="m20.56,22.15H5.4c-2.67,0-4.84-2.17-4.84-4.84s2.17-4.84,4.84-4.84h16.5c.39,0,.71.32.71.71s-.32.71-.71.71H5.4c-1.88,0-3.42,1.53-3.42,3.42s1.53,3.42,3.42,3.42h15.16c.39,0,.71.32.71.71s-.32.71-.71.71Z"/><path class="cls-2" d="m15.11,48c-1.73,0-3.14-1.41-3.14-3.14s1.41-3.14,3.14-3.14,3.14,1.41,3.14,3.14-1.41,3.14-3.14,3.14Zm0-4.85c-.95,0-1.72.77-1.72,1.72s.77,1.72,1.72,1.72,1.72-.77,1.72-1.72-.77-1.72-1.72-1.72Z"/><path class="cls-1" d="m8.97,18.02h-3.57c-.39,0-.71-.32-.71-.71s.32-.71.71-.71h3.57c.39,0,.71.32.71.71s-.32.71-.71.71Z"/></svg>