<?xml version="1.0" encoding="UTF-8"?><svg id="Calque_1" xmlns="http://www.w3.org/2000/svg" viewBox="0 0 48 48"><defs><style>.cls-1{fill:#bc955b;}.cls-1,.cls-2{stroke-width:0px;}.cls-2{fill:#fff;}</style></defs><path class="cls-2" d="m7.16,21.35c-.18,0-.36-.07-.5-.21-.28-.28-.28-.73,0-1l8.18-8.18c.28-.28.73-.28,1,0s.28.73,0,1l-8.18,8.18c-.14.14-.32.21-.5.21Z"/><path class="cls-2" d="m25.27,16.28h-5.44c-1.06,0-2.06-.41-2.81-1.16l-.28-.25c-.29-.26-.32-.71-.05-1,.26-.29.71-.31,1-.05l.3.27c.51.5,1.15.77,1.83.77h5.44c.39,0,.71.32.71.71s-.32.71-.71.71Z"/><path class="cls-1" d="m4.01,24.55c-.18,0-.36-.07-.5-.21L.21,21.04c-.28-.28-.28-.73,0-1s.73-.28,1,0l2.79,2.79,11.21-11.21-2.79-2.79c-.28-.28-.28-.73,0-1s.73-.28,1,0l3.3,3.3c.28.28.28.73,0,1l-12.21,12.21c-.14.14-.32.21-.5.21Z"/><path class="cls-2" d="m3.05,18.21c0,.53.43.96.96.96s.96-.43.96-.96-.43-.96-.96-.96-.96.43-.96.96Z"/><path class="cls-2" d="m26.98,40.37c-.68,0-1.35-.26-1.87-.77l-1.59-1.59c-.28-.28-.28-.73,0-1s.73-.28,1,0l1.59,1.59c.46.46,1.26.46,1.72,0,.23-.23.36-.54.36-.86s-.13-.63-.36-.86l-1.09-1.09c-.28-.28-.28-.73,0-1s.73-.28,1,0l1.09,1.09c.5.5.77,1.16.77,1.86s-.27,1.37-.77,1.87c-.51.51-1.19.77-1.87.77Z"/><path class="cls-2" d="m30.27,38.2c-.71,0-1.37-.27-1.86-.77l-3.79-3.79c-.28-.28-.28-.73,0-1s.73-.28,1,0l3.79,3.79c.46.46,1.26.46,1.72,0,.47-.48.47-1.25,0-1.72l-2.21-2.21c-.28-.28-.28-.73,0-1,.28-.28.73-.28,1,0l2.21,2.21c1.03,1.03,1.03,2.7,0,3.73-.5.5-1.16.77-1.87.77Z"/><path class="cls-2" d="m33.56,36.04c-.68,0-1.35-.26-1.87-.77l-4.35-4.35c-.28-.28-.28-.73,0-1s.73-.28,1,0l4.35,4.35c.47.47,1.25.48,1.72,0,.47-.47.47-1.25,0-1.72l-4.35-4.35c-.28-.28-.28-.73,0-1s.73-.28,1,0l4.35,4.35c1.03,1.03,1.03,2.7,0,3.73-.51.51-1.19.77-1.87.77Z"/><path class="cls-2" d="m21,40.38c-.68,0-1.35-.26-1.87-.77-.5-.5-.77-1.16-.77-1.87s.27-1.37.77-1.87l1.09-1.09c1.03-1.03,2.7-1.03,3.73,0,.5.5.77,1.16.77,1.87s-.27,1.37-.77,1.87l-1.09,1.09h0c-.51.51-1.19.77-1.87.77Zm1.36-1.27h0,0Zm-.28-3.67c-.31,0-.62.12-.86.36l-1.09,1.09c-.23.23-.36.54-.36.86s.13.63.36.86c.47.47,1.25.47,1.72,0l1.09-1.09c.23-.23.36-.54.36-.86s-.13-.63-.36-.86c-.24-.24-.55-.36-.86-.36Z"/><path class="cls-2" d="m12.9,32.13c-.68,0-1.35-.26-1.87-.77-1.03-1.03-1.03-2.7,0-3.73l2.21-2.21c1.03-1.03,2.7-1.03,3.73,0,1.03,1.03,1.03,2.7,0,3.73l-2.21,2.21h0c-.51.51-1.19.77-1.87.77Zm1.36-1.27h0,0Zm.85-4.79c-.33,0-.63.13-.86.36l-2.21,2.21c-.23.23-.36.54-.36.86s.13.63.36.86c.46.46,1.26.46,1.72,0l2.21-2.21c.23-.23.36-.54.36-.86s-.13-.63-.36-.86c-.23-.23-.54-.36-.86-.36Z"/><path class="cls-2" d="m17.71,38.22c-.68,0-1.35-.26-1.87-.77-1.03-1.03-1.03-2.7,0-3.73l2.21-2.21c1.03-1.03,2.7-1.03,3.73,0,.5.5.77,1.16.77,1.86s-.27,1.37-.77,1.87l-2.21,2.21c-.51.51-1.19.77-1.87.77Zm2.21-6.07c-.33,0-.63.13-.86.36l-2.21,2.21c-.23.23-.36.54-.36.86s.13.63.36.86c.46.46,1.26.46,1.72,0l2.21-2.21c.23-.23.36-.54.36-.86s-.13-.63-.36-.86c-.23-.23-.54-.36-.86-.36Z"/><path class="cls-2" d="m14.42,36.05c-.68,0-1.35-.26-1.87-.77-.5-.5-.77-1.16-.77-1.86s.27-1.37.77-1.87l3.34-3.34c1.03-1.03,2.7-1.03,3.73,0,1.03,1.03,1.03,2.7,0,3.73l-3.34,3.34h0c-.51.51-1.19.77-1.87.77Zm1.36-1.27h0,0Zm1.97-5.92c-.31,0-.62.12-.86.36l-3.34,3.34c-.23.23-.36.54-.36.86s.13.63.36.86c.47.47,1.25.47,1.72,0l3.34-3.34c.47-.48.47-1.25,0-1.72-.24-.24-.55-.36-.86-.36Z"/><path class="cls-2" d="m35.43,27.8c-.18,0-.36-.07-.5-.21-.28-.28-.28-.73,0-1l4.03-4.03c.28-.28.73-.28,1,0,.28.28.28.73,0,1l-4.03,4.03c-.14.14-.32.21-.5.21Z"/><path class="cls-2" d="m41.43,21.99c-.18,0-.36-.07-.5-.21l-8.82-8.82c-.28-.28-.28-.73,0-1s.73-.28,1,0l8.82,8.82c.28.28.28.73,0,1-.14.14-.32.21-.5.21Z"/><path class="cls-2" d="m35.1,32.1c-.69,0-1.39-.27-1.92-.79l-1.54-1.54c-.28-.28-.28-.73,0-1s.73-.28,1,0l1.54,1.54c.48.48,1.25.51,1.73.07.25-.23.38-.54.39-.87s-.12-.65-.36-.88l-7.25-7.25c-.43-.43-1.02-.67-1.63-.67h-.01l-3.25.02-1.4,1.4c-1.36,1.36-3.44,1.72-5.18.9-.49-.23-.84-.69-.94-1.23-.09-.54.08-1.09.47-1.48l4.34-4.34c.71-.71,1.65-1.1,2.65-1.1h4.4c.68,0,1.32-.26,1.81-.75l.31-.28c.29-.26.74-.24,1,.06.26.29.24.74-.06,1l-.29.26c-.73.72-1.72,1.13-2.78,1.13h-4.4c-.62,0-1.21.24-1.65.68l-4.34,4.34c-.08.08-.08.18-.07.23,0,.05.04.14.15.19,1.2.57,2.63.32,3.57-.62l1.6-1.6c.13-.13.31-.21.5-.21l3.55-.02h.02c.98,0,1.94.4,2.63,1.09l7.25,7.25c.51.51.78,1.19.77,1.91s-.31,1.39-.84,1.88c-.49.46-1.14.69-1.78.69Z"/><path class="cls-2" d="m32.33,24.7c-.18,0-.36-.07-.5-.21-.28-.28-.28-.73,0-1,.6-.6.93-1.39.93-2.24s-.33-1.64-.93-2.24c-.28-.28-.28-.73,0-1s.73-.28,1,0c.87.87,1.34,2.02,1.34,3.25s-.48,2.38-1.34,3.25c-.14.14-.32.21-.5.21Z"/><path class="cls-1" d="m43.99,24.55c-.18,0-.36-.07-.5-.21l-12.21-12.21c-.28-.28-.28-.73,0-1l3.3-3.3c.28-.28.73-.28,1,0s.28.73,0,1l-2.79,2.79,11.21,11.21,2.79-2.79c.28-.28.73-.28,1,0s.28.73,0,1l-3.3,3.3c-.14.14-.32.21-.5.21Z"/><path class="cls-2" d="m12.58,27.8c-.18,0-.36-.07-.5-.21l-4.03-4.03c-.28-.28-.28-.73,0-1s.73-.28,1,0l4.03,4.03c.28.28.28.73,0,1-.14.14-.32.21-.5.21Z"/><path class="cls-2" d="m44.95,18.21c0,.53-.43.96-.96.96s-.96-.43-.96-.96.43-.96.96-.96.96.43.96.96Z"/><path class="cls-2" d="m12.57,27.8c-.18,0-.36-.07-.5-.21-.87-.87-1.34-2.02-1.34-3.25s.48-2.38,1.34-3.25c.28-.28.73-.28,1,0s.28.73,0,1c-.6.6-.93,1.39-.93,2.24s.33,1.64.93,2.24c.28.28.28.73,0,1-.14.14-.32.21-.5.21Z"/></svg>