<?xml version="1.0" encoding="UTF-8"?><svg id="Calque_1" xmlns="http://www.w3.org/2000/svg" viewBox="0 0 48 48"><defs><style>.cls-1{fill:#bc955b;}.cls-1,.cls-2{stroke-width:0px;}.cls-2{fill:#fff;}</style></defs><path class="cls-1" d="m22.73,48h-4.19c-.39,0-.71-.32-.71-.71s.32-.71.71-.71h4.19c.39,0,.71.32.71.71s-.32.71-.71.71Z"/><path class="cls-2" d="m10.78,9.08c-2.5,0-4.54-2.04-4.54-4.54S8.27,0,10.78,0s4.54,2.04,4.54,4.54-2.04,4.54-4.54,4.54Zm0-7.66c-1.72,0-3.12,1.4-3.12,3.12s1.4,3.12,3.12,3.12,3.12-1.4,3.12-3.12-1.4-3.12-3.12-3.12Z"/><path class="cls-2" d="m13.69,48h-5.82c-.98,0-1.81-.78-1.88-1.78l-1.12-15.14c-1.65-.37-3.85-1.69-4-3.41L0,16.08c0-.14,0-.23,0-.28,0-2.66,2.13-4.9,4.74-4.97h26.54c.39,0,.71.32.71.71,0,2.45-1.99,4.45-4.45,4.45h-9.73l-2.25,30.24c-.07.98-.92,1.78-1.88,1.78ZM4.76,12.25c-1.84.04-3.34,1.65-3.34,3.57,0,.05,0,.1,0,.16l.86,11.57c.08.92,1.83,2,3.15,2.19l.16.02c.35.03.62.31.64.65l1.16,15.7c.02.25.24.46.47.46h5.82c.23,0,.45-.22.46-.46l2.3-30.89c.03-.37.34-.66.71-.66h10.38c1.42,0,2.62-.99,2.94-2.32H4.76Z"/><path class="cls-2" d="m10.78,47.5c-.39,0-.71-.32-.71-.71v-17.42c0-.39.32-.71.71-.71s.71.32.71.71v17.42c0,.39-.32.71-.71.71Z"/><path class="cls-2" d="m5.53,31.18c-.37,0-.68-.28-.71-.66l-.97-13.09c-.03-.39.26-.73.66-.76.39-.03.73.26.76.66l.97,13.09c.03.39-.26.73-.66.76-.02,0-.04,0-.05,0Z"/><path class="cls-1" d="m22.73,48c-.39,0-.71-.32-.71-.71v-13.45c0-.39.32-.71.71-.71h5.18c.39,0,.71.32.71.71s-.32.71-.71.71h-4.47v12.74c0,.39-.32.71-.71.71Z"/><path class="cls-2" d="m30.91,48c-.39,0-.71-.32-.71-.71v-24.6c0-.39.32-.71.71-.71h5.18c.39,0,.71.32.71.71s-.32.71-.71.71h-4.47v23.89c0,.39-.32.71-.71.71Z"/><path class="cls-1" d="m39.09,48c-.39,0-.71-.32-.71-.71V11.54c0-.39.32-.71.71-.71h8.18c.39,0,.71.32.71.71s-.32.71-.71.71h-7.47v35.04c0,.39-.32.71-.71.71Z"/></svg>