<?xml version="1.0" encoding="UTF-8"?><svg id="Calque_1" xmlns="http://www.w3.org/2000/svg" viewBox="0 0 48 48"><defs><style>.cls-1{fill:#bc955b;}.cls-1,.cls-2{stroke-width:0px;}.cls-2{fill:#fff;}</style></defs><path class="cls-1" d="m44.27,15.81H3.75c-.39,0-.71-.32-.71-.71s.32-.71.71-.71h40.52c.39,0,.71.32.71.71s-.32.71-.71.71Z"/><path class="cls-2" d="m10.63,12.77s-.09,0-.14-.01c-.38-.08-.63-.45-.56-.83l1.59-8.08c.08-.39.45-.63.83-.56.38.08.63.45.56.83l-1.59,8.08c-.07.34-.36.57-.7.57Z"/><path class="cls-2" d="m19.54,12.77s-.03,0-.05,0c-.39-.03-.69-.36-.66-.75l.53-8.08c.03-.39.35-.69.75-.66.39.03.69.36.66.75l-.53,8.08c-.02.38-.34.66-.71.66Z"/><path class="cls-2" d="m28.46,12.77c-.37,0-.68-.29-.71-.66l-.53-8.08c-.03-.39.27-.73.66-.75.41-.03.73.27.75.66l.53,8.08c.03.39-.27.73-.66.75-.02,0-.03,0-.05,0Z"/><path class="cls-2" d="m37.37,12.77c-.33,0-.63-.23-.7-.57l-1.59-8.08c-.08-.38.17-.76.56-.83.39-.07.76.17.83.56l1.59,8.08c.08.38-.17.76-.56.83-.05,0-.09.01-.14.01Z"/><path class="cls-2" d="m47.29,47.78H.71c-.39,0-.71-.32-.71-.71s.32-.71.71-.71h46.58c.39,0,.71.32.71.71s-.32.71-.71.71Z"/><path class="cls-2" d="m28.66,44.82c-.39,0-.71-.32-.71-.71v-20.33c0-.39.32-.71.71-.71s.71.32.71.71v20.33c0,.39-.32.71-.71.71Z"/><path class="cls-2" d="m42.63,47.76c-.39,0-.71-.32-.71-.71v-22.15c0-.39.32-.71.71-.71s.71.32.71.71v22.15c0,.39-.32.71-.71.71Z"/><path class="cls-2" d="m5.37,47.78c-.39,0-.71-.32-.71-.71v-22.17c0-.39.32-.71.71-.71s.71.32.71.71v22.17c0,.39-.32.71-.71.71Z"/><path class="cls-1" d="m11.95,39.48c-.18,0-.36-.07-.5-.21-.28-.28-.28-.73,0-1l10.47-10.47c.28-.28.73-.28,1,0s.28.73,0,1l-10.47,10.47c-.14.14-.32.21-.5.21Z"/><path class="cls-1" d="m11.95,33.81c-.18,0-.36-.07-.5-.21-.28-.28-.28-.73,0-1l4.81-4.81c.28-.28.73-.28,1,0s.28.73,0,1l-4.81,4.81c-.14.14-.32.21-.5.21Z"/><path class="cls-1" d="m34.23,34.24h-1.47c-.39,0-.71-.32-.71-.71s.32-.71.71-.71h1.47c.39,0,.71.32.71.71s-.32.71-.71.71Z"/><path class="cls-1" d="m42.63,22.46c-1.89,0-3.6-.96-4.59-2.58l-.75-.37.61.37c-.98,1.62-2.7,2.58-4.59,2.58s-3.6-.96-4.59-2.58l-.75-.37.61.37c-.98,1.62-2.7,2.58-4.59,2.58s-3.6-.96-4.59-2.58l-.75-.37.61.37c-.98,1.62-2.7,2.58-4.59,2.58s-3.6-.96-4.59-2.58c0,0-.14,0-.14,0-.98,1.61-2.7,2.58-4.59,2.58-2.96,0-5.37-2.41-5.37-5.37,0-.39.32-.71.71-.71s.71.32.71.71c0,2.18,1.77,3.95,3.95,3.95,1.39,0,2.65-.71,3.38-1.9.27-.45.75-.71,1.28-.71h0c.53,0,1.01.27,1.28.71.72,1.19,1.99,1.9,3.37,1.9s2.65-.71,3.38-1.9c.27-.45.75-.71,1.28-.71h0c.53,0,1.01.27,1.28.71.72,1.19,1.99,1.9,3.38,1.9s2.65-.71,3.38-1.9c.27-.45.75-.71,1.28-.71s1.01.27,1.28.71c.72,1.19,1.99,1.9,3.38,1.9s2.65-.71,3.37-1.9c.27-.45.75-.71,1.28-.71h0c.53,0,1.01.27,1.28.71.72,1.19,1.99,1.9,3.38,1.9,2.18,0,3.95-1.77,3.95-3.95,0-.39.32-.71.71-.71s.71.32.71.71c0,2.96-2.41,5.37-5.37,5.37Z"/><path class="cls-1" d="m47.29,17.8c-.39,0-.71-.32-.71-.71v-1.88l-4.46-13.58H5.88L1.42,15.22v1.88c0,.39-.32.71-.71.71S0,17.48,0,17.09v-1.99c0-.08.01-.15.04-.22L4.69.71c.1-.29.37-.49.67-.49h37.26c.31,0,.58.2.67.49l4.66,14.17c.02.07.04.15.04.22v1.99c0,.39-.32.71-.71.71Z"/></svg>