<?xml version="1.0" encoding="UTF-8"?><svg id="Calque_1" xmlns="http://www.w3.org/2000/svg" viewBox="0 0 48 48"><defs><style>.cls-1{fill:#bc955b;}.cls-1,.cls-2{stroke-width:0px;}.cls-2{fill:#fff;}</style></defs><path class="cls-2" d="m20.77,39.84h-6c-.39,0-.71-.32-.71-.71s.32-.71.71-.71h6c.39,0,.71.32.71.71s-.32.71-.71.71Z"/><path class="cls-2" d="m8.26,28.64c-.39,0-.71-.32-.71-.71V3.22c0-1.77,1.44-3.22,3.22-3.22h15.07c1.77,0,3.22,1.44,3.22,3.22v20.66c0,.39-.32.71-.71.71s-.71-.32-.71-.71V3.22c0-.99-.81-1.8-1.8-1.8h-15.07c-.99,0-1.8.81-1.8,1.8v24.71c0,.39-.32.71-.71.71Z"/><path class="cls-1" d="m2.89,48c-.39,0-.71-.32-.71-.71v-18.19c0-2.07,1.03-3.98,2.77-5.11.33-.21.77-.12.98.21.21.33.12.77-.21.98-1.33.87-2.12,2.33-2.12,3.92v18.19c0,.39-.32.71-.71.71Z"/><path class="cls-1" d="m12.65,42.81c-.37,0-.68-.29-.71-.66l-.04-.69c-.09-1.37-.98-2.59-2.26-3.09-.21-.08-.38-.27-.43-.49-.06-.22,0-.46.15-.64l4.82-5.52c.55-.63.49-1.6-.13-2.16-.58-.53-1.46-.53-2.05,0l-6.7,5.93c-.29.26-.74.23-1-.06-.26-.29-.23-.74.06-1l6.7-5.93c1.13-1,2.82-.99,3.94.02,1.19,1.08,1.3,2.93.25,4.14l-4.22,4.84c1.31.85,2.18,2.28,2.29,3.88l.04.69c.03.39-.27.73-.66.75-.02,0-.03,0-.05,0Z"/><path class="cls-1" d="m10.62,46.49h-.57c-.39,0-.71-.32-.71-.71s.32-.71.71-.71h.57c1.95,0,3.67-1.32,4.18-3.2.1-.38.49-.6.87-.5.38.1.6.49.5.87-.68,2.5-2.96,4.25-5.56,4.25Z"/><path class="cls-1" d="m13.67,48c-.39,0-.71-.32-.71-.71v-2.54c0-.39.32-.71.71-.71s.71.32.71.71v2.54c0,.39-.32.71-.71.71Z"/><path class="cls-1" d="m24.62,38.29c-.23,0-.46-.11-.59-.32-.02-.03-.03-.05-.05-.08l-5.88-11.54c-.19-.38-.3-.81-.3-1.23,0-1.02.56-1.94,1.47-2.41.64-.33,1.38-.39,2.06-.17.69.22,1.25.7,1.58,1.34l2.05,4.05c.25-.36.59-.66.99-.87,1.29-.66,2.87-.18,3.58,1.06.25-.37.59-.67,1-.88.64-.33,1.38-.39,2.06-.17.69.22,1.25.7,1.58,1.34l.97,1.9c.18.35.04.78-.31.96s-.78.04-.96-.31l-.97-1.9c-.16-.31-.42-.53-.75-.64-.33-.11-.68-.08-.98.08-.31.16-.53.42-.64.75-.1.33-.08.67.08.98h0c.18.35.04.78-.31.96-.35.18-.78.04-.96-.31h0l-1.03-2c-.32-.63-1.1-.88-1.73-.56-.31.16-.53.42-.64.75-.1.32-.08.67.07.97v.02c.19.35.05.78-.3.95-.35.18-.78.04-.95-.31v-.02s-3.13-6.16-3.13-6.16c-.16-.3-.42-.53-.75-.64-.33-.11-.68-.08-.98.08-.43.22-.7.66-.7,1.15,0,.2.05.4.14.59l5.88,11.55c.17.33.05.75-.27.93-.11.07-.24.1-.36.1Z"/><path class="cls-1" d="m25.64,48c-.1,0-.2-.02-.3-.07l-.74-.35c-.49-.23-.95-.54-1.35-.93-.4-.38-.72-.83-.97-1.32-.71-1.39-.73-3.06-.05-4.46l.58-1.19c.17-.35.59-.5.95-.33.35.17.5.59.33.95l-.58,1.2c-.49,1-.48,2.2.04,3.19.18.35.42.67.7.94.28.27.61.5.96.66l.74.35c.35.17.51.59.34.94-.12.26-.38.41-.64.41Z"/><path class="cls-1" d="m45.11,45.56c-.32,0-.6-.21-.69-.53l-.67-2.6c-.35-1.37-.86-2.7-1.5-3.95l-5.02-9.79c-.32-.63-1.1-.88-1.73-.56-.31.16-.53.42-.64.75s-.08.68.08.98c.18.35.04.78-.31.96-.35.18-.78.04-.96-.31-.33-.64-.39-1.38-.17-2.07.22-.69.7-1.25,1.34-1.58,1.33-.68,2.96-.15,3.65,1.17l5.02,9.79c.69,1.35,1.23,2.77,1.61,4.24l.67,2.6c.1.38-.13.77-.51.87-.06.02-.12.02-.18.02Z"/><path class="cls-1" d="m26.32,41.61c-.26,0-.51-.14-.63-.39l-1.71-3.33c-.18-.35-.04-.78.31-.96.35-.18.78-.04.96.31l1.71,3.33c.18.35.04.78-.31.96-.1.05-.21.08-.32.08Z"/><path class="cls-1" d="m27.05,34.27c-.26,0-.51-.14-.63-.39l-1.63-3.17c-.18-.35-.04-.78.31-.96.35-.18.78-.04.96.31l1.63,3.17c.18.35.04.78-.31.96-.1.05-.21.08-.32.08Z"/><path class="cls-1" d="m31.22,33.65c-.26,0-.51-.14-.63-.39l-1.21-2.37c-.18-.35-.04-.78.31-.96.35-.18.78-.04.96.31l1.21,2.37c.18.35.04.78-.31.96-.1.05-.21.08-.32.08Z"/><path class="cls-1" d="m35.28,32.81c-.26,0-.51-.14-.63-.39l-.74-1.45c-.18-.35-.04-.78.31-.96.35-.18.78-.04.96.31l.74,1.45c.18.35.04.78-.31.96-.1.05-.21.08-.32.08Z"/><path class="cls-2" d="m18.14,18.44c-1.17,0-2.26-.5-2.9-1.35-.24-.31-.18-.76.13-1,.31-.24.76-.18,1,.13.37.49,1.05.79,1.77.79,1.13,0,2.06-.71,2.06-1.58,0-.79-.81-1.47-1.89-1.58-1.66-.12-2.93-1.32-2.93-2.78,0-1.54,1.45-2.79,3.22-2.79,1.07,0,2.06.45,2.66,1.22.24.31.19.75-.12,1-.31.24-.75.19-1-.12-.33-.42-.92-.67-1.55-.67-.99,0-1.8.62-1.8,1.37,0,.7.72,1.3,1.63,1.37,1.82.18,3.18,1.47,3.18,2.99,0,1.66-1.56,3-3.48,3Z"/><path class="cls-2" d="m18.35,20.16c-.39,0-.71-.32-.71-.71v-1.62c0-.39.32-.71.71-.71s.71.32.71.71v1.62c0,.39-.32.71-.71.71Z"/><path class="cls-2" d="m18.35,9.56c-.39,0-.71-.32-.71-.71v-1.69c0-.39.32-.71.71-.71s.71.32.71.71v1.69c0,.39-.32.71-.71.71Z"/><path class="cls-2" d="m20.8,4.11h-5c-.39,0-.71-.32-.71-.71s.32-.71.71-.71h5c.39,0,.71.32.71.71s-.32.71-.71.71Z"/></svg>