<?xml version="1.0" encoding="UTF-8"?><svg id="Calque_1" xmlns="http://www.w3.org/2000/svg" viewBox="0 0 48 48"><defs><style>.cls-1{fill:#bc955b;}.cls-1,.cls-2{stroke-width:0px;}.cls-2{fill:#fff;}</style></defs><path class="cls-1" d="m42.75,44.48H5.25c-2.89,0-5.25-2.35-5.25-5.25V8.76C0,5.87,2.35,3.52,5.25,3.52h37.51c2.89,0,5.25,2.35,5.25,5.25v30.48c0,2.89-2.35,5.25-5.25,5.25ZM5.25,4.94c-2.11,0-3.83,1.72-3.83,3.83v30.48c0,2.11,1.72,3.83,3.83,3.83h37.51c2.11,0,3.83-1.72,3.83-3.83V8.76c0-2.11-1.72-3.83-3.83-3.83H5.25Z"/><path class="cls-2" d="m42.5,12.65H4.8c-.39,0-.71-.32-.71-.71s.32-.71.71-.71h37.7c.39,0,.71.32.71.71s-.32.71-.71.71Z"/><path class="cls-2" d="m9.12,8.91h-1.55c-.39,0-.71-.32-.71-.71s.32-.71.71-.71h1.55c.39,0,.71.32.71.71s-.32.71-.71.71Z"/><path class="cls-2" d="m16.32,8.91h-1.55c-.39,0-.71-.32-.71-.71s.32-.71.71-.71h1.55c.39,0,.71.32.71.71s-.32.71-.71.71Z"/><path class="cls-1" d="m8.33,35.98c-.39,0-.71-.32-.71-.71,0-9.03,7.35-16.38,16.38-16.38,3.09,0,6.11.87,8.72,2.51.33.21.43.65.22.98-.21.33-.65.43-.98.22-2.38-1.5-5.14-2.29-7.96-2.29-8.25,0-14.96,6.71-14.96,14.96,0,.39-.32.71-.71.71Z"/><path class="cls-1" d="m39.67,35.98c-.39,0-.71-.32-.71-.71,0-2.82-.79-5.58-2.29-7.96-.21-.33-.11-.77.22-.98.33-.21.77-.11.98.22,1.64,2.61,2.51,5.62,2.51,8.72,0,.39-.32.71-.71.71Z"/><path class="cls-2" d="m26.26,33.72c-.18,0-.36-.07-.5-.21-.28-.28-.28-.73,0-1l12.88-12.88c.28-.28.73-.28,1,0s.28.73,0,1l-12.88,12.88c-.14.14-.32.21-.5.21Z"/><path class="cls-2" d="m24,39.17c-1,0-2-.38-2.76-1.14-1.52-1.52-1.52-4,0-5.53,1.52-1.52,4-1.52,5.53,0,.28.28.28.73,0,1s-.73.28-1,0c-.97-.97-2.55-.97-3.52,0-.97.97-.97,2.55,0,3.52.97.97,2.55.97,3.52,0,.28-.28.73-.28,1,0s.28.73,0,1c-.76.76-1.76,1.14-2.76,1.14Z"/></svg>