<?xml version="1.0" encoding="UTF-8"?><svg id="Calque_1" xmlns="http://www.w3.org/2000/svg" viewBox="0 0 48 48"><defs><style>.cls-1{fill:#bc955b;}.cls-1,.cls-2{stroke-width:0px;}.cls-2{fill:#fff;}</style></defs><path class="cls-2" d="m18.58,19.8c-.25,0-.48-.13-.62-.35-.2-.34-.08-.77.26-.97l10.75-6.21c.34-.2.77-.08.97.26.2.34.08.77-.26.97l-10.75,6.21c-.11.06-.23.09-.35.09Z"/><path class="cls-1" d="m29.06,35.68c-.12,0-.24-.03-.35-.09l-10.49-6.05c-.34-.2-.46-.63-.26-.97.2-.34.63-.46.97-.26l10.49,6.05c.34.2.46.63.26.97-.13.23-.37.36-.62.36Z"/><path class="cls-1" d="m10.07,32.12c-4.48,0-8.12-3.64-8.12-8.12s3.64-8.12,8.12-8.12,8.12,3.64,8.12,8.12-3.64,8.12-8.12,8.12Zm0-14.82c-3.69,0-6.7,3.01-6.7,6.7s3.01,6.7,6.7,6.7,6.7-3.01,6.7-6.7-3-6.7-6.7-6.7Z"/><path class="cls-2" d="m37.57,48c-4.48,0-8.12-3.64-8.12-8.12s3.64-8.12,8.12-8.12,8.12,3.64,8.12,8.12-3.64,8.12-8.12,8.12Zm0-14.82c-3.69,0-6.7,3-6.7,6.7s3.01,6.7,6.7,6.7,6.7-3.01,6.7-6.7-3.01-6.7-6.7-6.7Z"/><path class="cls-2" d="m37.93,16.24c-4.48,0-8.12-3.64-8.12-8.12S33.45,0,37.93,0s8.12,3.64,8.12,8.12-3.64,8.12-8.12,8.12Zm0-14.82c-3.69,0-6.7,3.01-6.7,6.7s3.01,6.7,6.7,6.7,6.7-3,6.7-6.7-3.01-6.7-6.7-6.7Z"/><path class="cls-1" d="m10.07,28.65c-.39,0-.71-.32-.71-.71s.32-.71.71-.71c1.78,0,3.23-1.45,3.23-3.23,0-.39.32-.71.71-.71s.71.32.71.71c0,2.56-2.08,4.65-4.65,4.65Z"/><path class="cls-2" d="m37.57,44.53c-.39,0-.71-.32-.71-.71s.32-.71.71-.71c1.78,0,3.23-1.45,3.23-3.23,0-.39.32-.71.71-.71s.71.32.71.71c0,2.56-2.08,4.65-4.65,4.65Z"/><path class="cls-2" d="m37.93,12.77c-.39,0-.71-.32-.71-.71s.32-.71.71-.71c1.78,0,3.23-1.45,3.23-3.23,0-.39.32-.71.71-.71s.71.32.71.71c0,2.56-2.08,4.65-4.65,4.65Z"/></svg>