<?xml version="1.0" encoding="UTF-8"?><svg id="Calque_1" xmlns="http://www.w3.org/2000/svg" viewBox="0 0 48 48"><defs><style>.cls-1{fill:#bc955b;}.cls-1,.cls-2{stroke-width:0px;}.cls-2{fill:#fff;}</style></defs><path class="cls-2" d="m29.97,6.41c-1.77,0-3.21-1.44-3.21-3.21s1.44-3.21,3.21-3.21,3.21,1.44,3.21,3.21-1.44,3.21-3.21,3.21Zm0-4.99c-.99,0-1.79.8-1.79,1.79s.8,1.79,1.79,1.79,1.79-.8,1.79-1.79-.8-1.79-1.79-1.79Z"/><path class="cls-2" d="m33.61,31.17c-.91,0-1.72-.58-2.02-1.43l-1.96-5.64-3.43-2.95-1.19,3.1c-.31.82-1.11,1.38-2,1.38h-7.3c-1.18,0-2.14-.96-2.14-2.14s.96-2.14,2.14-2.14h5.29l3.99-10.55h-1.47l-2.27,4.01c-.56.99-1.92,1.37-2.91.81-.5-.28-.86-.74-1.01-1.29-.15-.55-.08-1.13.2-1.62l2.88-5.09c.38-.67,1.09-1.08,1.86-1.08h6.46c1.22,0,2.4.58,3.14,1.56l2.59,3.41,3.37-.73c.62-.13,1.25.02,1.75.4.49.38.8.96.83,1.58.06,1.03-.7,1.99-1.77,2.21l-4.62.99c-.77.17-1.66-.15-2.15-.79l-1.3-1.71-1.48,3.89,3.41,2.96c.28.24.5.56.62.91l2.48,7.11c.39,1.11-.2,2.33-1.32,2.72-.23.08-.46.12-.7.12Zm-7.72-11.93c.17,0,.33.06.46.17l4.34,3.73c.1.08.17.19.21.31l2.03,5.82c.13.36.56.56.92.44.37-.13.57-.54.44-.91l-2.48-7.11c-.04-.12-.12-.23-.21-.31l-3.79-3.28c-.23-.19-.3-.51-.2-.79l2.11-5.55c.09-.24.31-.41.56-.45.26-.04.51.07.67.27l2.07,2.72c.17.22.48.32.72.27l4.62-.99c.38-.08.67-.41.65-.75-.01-.22-.11-.41-.28-.54-.17-.13-.39-.18-.59-.14l-3.81.82c-.27.06-.55-.04-.71-.26l-2.86-3.77c-.47-.62-1.22-1-2.01-1h-6.46c-.26,0-.5.14-.62.37l-2.88,5.09c-.09.17-.12.36-.07.54.05.18.17.34.34.43.33.19.79.06.98-.27l2.47-4.37c.13-.22.36-.36.62-.36h2.91c.23,0,.45.11.58.31.13.19.16.44.08.65l-4.53,11.97c-.1.28-.37.46-.66.46h-5.78c-.4,0-.72.32-.72.72s.32.72.72.72h7.3c.3,0,.57-.19.67-.46l1.56-4.04c.08-.21.27-.38.49-.43.06-.01.12-.02.17-.02Z"/><path class="cls-1" d="m43.29,48h-10.32c-.39,0-.71-.32-.71-.71s.32-.71.71-.71h10.32c1.81,0,3.29-1.48,3.29-3.29v-13.17l-4.67-3.85-6.44,11.11c-.13.22-.36.35-.61.35h-8.41c-.39,0-.71-.32-.71-.71s.32-.71.71-.71h8l6.65-11.48c.1-.18.28-.31.49-.34.21-.03.42.02.58.15l5.57,4.6c.16.14.26.34.26.55v13.5c0,2.6-2.11,4.71-4.71,4.71Z"/><path class="cls-2" d="m29.55,48H4.71c-2.6,0-4.71-2.11-4.71-4.71v-16.76c0-.39.32-.71.71-.71h2.97l4.5-4.65c.15-.15.35-.23.56-.21.21.02.4.13.52.3l5.57,7.87h3.63c.24,0,.47.12.6.33l11.09,17.45c.14.22.15.5.02.72-.12.23-.36.37-.62.37ZM1.42,27.24v16.05c0,1.81,1.48,3.29,3.29,3.29h23.55l-10.18-16.03h-3.6c-.23,0-.45-.11-.58-.3l-5.28-7.47-4.12,4.25c-.13.14-.32.22-.51.22H1.42Z"/></svg>