<?xml version="1.0" encoding="UTF-8"?><svg id="Calque_1" xmlns="http://www.w3.org/2000/svg" viewBox="0 0 48 48"><defs><style>.cls-1{fill:#bc955b;}.cls-1,.cls-2{stroke-width:0px;}.cls-2{fill:#fff;}</style></defs><path class="cls-2" d="m39.23,39.98c-1.24,0-2.25-1.01-2.25-2.25s1.01-2.25,2.25-2.25,2.25,1.01,2.25,2.25-1.01,2.25-2.25,2.25Zm0-3.08c-.46,0-.83.37-.83.83s.37.83.83.83.83-.37.83-.83-.37-.83-.83-.83Z"/><path class="cls-2" d="m34.59,39.98c-1.24,0-2.25-1.01-2.25-2.25s1.01-2.25,2.25-2.25,2.25,1.01,2.25,2.25-1.01,2.25-2.25,2.25Zm0-3.08c-.46,0-.83.37-.83.83s.37.83.83.83.83-.37.83-.83-.37-.83-.83-.83Z"/><path class="cls-2" d="m29.96,39.98c-1.24,0-2.25-1.01-2.25-2.25s1.01-2.25,2.25-2.25,2.25,1.01,2.25,2.25-1.01,2.25-2.25,2.25Zm0-3.08c-.46,0-.83.37-.83.83s.37.83.83.83.83-.37.83-.83-.37-.83-.83-.83Z"/><path class="cls-1" d="m43.31,48c-.22,0-.44-.05-.65-.14l-3.51-1.61c-1.88,1.01-3.99,1.37-6.12,1.03-4.06-.65-7.33-3.93-7.96-7.97-.49-3.13.5-6.19,2.71-8.4,2.22-2.21,5.28-3.19,8.41-2.69,4.03.65,7.3,3.93,7.94,7.98.34,2.13-.02,4.23-1.03,6.1l1.61,3.51c.27.59.15,1.27-.31,1.73-.3.3-.69.45-1.09.45Zm-4.19-3.26c.1,0,.2.02.3.06l3.84,1.76s.08.04.14-.02c.06-.06.03-.12.02-.14h0s-1.76-3.84-1.76-3.84c-.1-.21-.08-.46.03-.66.98-1.67,1.34-3.56,1.03-5.49-.55-3.45-3.33-6.25-6.76-6.8-2.67-.43-5.29.41-7.18,2.29-1.89,1.89-2.73,4.5-2.31,7.17.54,3.44,3.33,6.23,6.79,6.78,1.93.31,3.83-.05,5.5-1.03.11-.06.24-.1.36-.1Z"/><path class="cls-2" d="m30.54,26.85c-.29,0-.56-.18-.67-.47-.97-2.71-3.2-4.85-5.96-5.71-.37-.12-.58-.51-.47-.89.12-.37.51-.58.89-.47,3.19.99,5.76,3.46,6.88,6.59.13.37-.06.78-.43.91-.08.03-.16.04-.24.04Z"/><path class="cls-1" d="m22.86,11.85s-.05,0-.08,0c-.39-.04-.67-.4-.62-.79.23-2.02.09-2.97-.02-3.29h-.02c-1.4.37-2.99.79-4.43.79s-2.93-.39-4.38-.77l-.08-.02c-.12.32-.25,1.27-.02,3.29.04.39-.24.74-.62.79-.39.04-.74-.24-.79-.62-.43-3.77.28-4.39.55-4.62.3-.26.69-.35,1.09-.24l.24.06c1.37.36,2.78.72,4.02.72s2.68-.38,4.07-.74l.18-.05c.4-.1.79-.02,1.09.24.27.23.98.85.55,4.62-.04.36-.35.63-.7.63Z"/><path class="cls-1" d="m18.74,16.35h-2.13c-.84,0-1.52-.68-1.52-1.52v-1.05c0-.83.68-1.51,1.52-1.51h2.13c.39,0,.71.32.71.71s-.32.71-.71.71h-2.13c-.05,0-.1.04-.1.09v1.05s.05.1.1.1h2.13s.07-.05.08-.08c.05-.35.35-.6.7-.6h.16c.39,0,1.76-.04,3.23-.51.38-.12.77.09.89.46.12.37-.09.77-.46.89-1.37.44-2.65.55-3.35.57-.27.42-.73.68-1.26.68Z"/><path class="cls-2" d="m17.69,20.28c-3.76,0-7.08-2.48-8.24-6.1h-.71c-1.14,0-2.07-.93-2.07-2.08v-2.42c0-1.14.93-2.07,2.07-2.07h.17c-.27-1.9-.1-3.21.53-3.99.24-.3.54-.52.9-.65.04-.6.26-1.13.66-1.56C12.52-.24,16.28-.01,19.59.18c1.49.09,3.19.19,3.68-.02.64-.28,1.28-.2,1.8.21,1.46,1.15,1.7,4.66,1.41,7.24h.16c1.14,0,2.07.93,2.07,2.07v2.42c0,1.15-.93,2.08-2.07,2.08h-.71c-1.17,3.62-4.48,6.1-8.24,6.1Zm-8.95-11.25c-.36,0-.65.29-.65.65v2.42c0,.36.3.66.65.66h1.24c.32,0,.61.22.69.53.84,3.28,3.73,5.57,7.02,5.57s6.18-2.29,7.02-5.57c.08-.31.36-.53.69-.53h1.24c.35,0,.65-.3.65-.66v-2.42c0-.36-.29-.65-.65-.65h-.98c-.21,0-.41-.09-.54-.25-.14-.16-.19-.37-.16-.58.52-3.03.01-6.1-.77-6.71-.08-.07-.17-.11-.36-.03-.76.33-2.07.27-4.33.14-2.7-.16-6.4-.38-7.47.78-.16.17-.35.46-.26,1.08.03.2-.03.4-.16.55-.13.15-.32.25-.52.25-.32.01-.46.14-.55.25-.2.25-.6,1.1-.1,3.68.04.21-.02.42-.15.59-.13.16-.34.26-.55.26h-1.01Z"/><path class="cls-2" d="m22.57,37.77H5.54c-.66,0-1.27-.26-1.72-.73-.45-.47-.69-1.08-.67-1.72.04-1.88.16-4.66.46-7.14.51-4.14,3.42-7.62,7.41-8.87.38-.12.77.09.89.47.12.37-.09.77-.47.89-3.46,1.08-5.99,4.1-6.43,7.69-.3,2.42-.41,5.15-.45,7.01,0,.26.09.51.27.7.18.19.43.3.7.3h17.03c.39,0,.71.32.71.71s-.32.71-.71.71Z"/><path class="cls-1" d="m19.52,33.77c-.35,0-.66-.26-.7-.62l-.87-6.96c-.02-.2.04-.41.17-.56.13-.15.33-.24.53-.24h.49v-1.74h-2.94v1.74h.49c.2,0,.4.09.53.24.13.15.2.36.17.56l-.87,6.96c-.05.39-.4.67-.79.62-.39-.05-.67-.4-.62-.79l.77-6.18c-.63-.11-1.1-.65-1.1-1.31v-1.91c0-.74.6-1.34,1.33-1.34h3.12c.73,0,1.33.6,1.33,1.34v1.91c0,.66-.48,1.2-1.1,1.31l.77,6.18c.05.39-.23.74-.62.79-.03,0-.06,0-.09,0Z"/></svg>