<?xml version="1.0" encoding="UTF-8"?><svg id="Calque_1" xmlns="http://www.w3.org/2000/svg" viewBox="0 0 48 48"><defs><style>.cls-1{fill:#bc955b;}.cls-1,.cls-2{stroke-width:0px;}.cls-2{fill:#fff;}</style></defs><path class="cls-1" d="m27.99,44.63c-.99,0-1.92-.39-2.62-1.08L7.82,26c-.7-.7-1.08-1.63-1.08-2.62v-2.1c0-.39.32-.71.71-.71s.71.32.71.71v2.1c0,.61.24,1.18.67,1.61l17.55,17.55c.86.86,2.37.86,3.23,0l16.31-16.31c.89-.89.89-2.34,0-3.23L28.36,5.46c-.42-.42-1.01-.67-1.61-.67H10.44c-1.26,0-2.28,1.02-2.28,2.28v9.2c0,.39-.32.71-.71.71s-.71-.32-.71-.71V7.07c0-2.04,1.66-3.7,3.7-3.7h16.31c.97,0,1.93.39,2.62,1.08l17.55,17.55c1.44,1.44,1.44,3.79,0,5.23l-16.31,16.31c-.7.7-1.63,1.08-2.62,1.08Z"/><path class="cls-2" d="m21.06,28.72c-.93,0-1.87-.36-2.58-1.07-.69-.69-1.07-1.61-1.07-2.58s.38-1.89,1.07-2.58c1.42-1.42,3.74-1.42,5.17,0,1.42,1.42,1.42,3.74,0,5.16-.71.71-1.65,1.07-2.58,1.07Zm0-5.88c-.57,0-1.14.22-1.58.65-.42.42-.65.98-.65,1.58s.23,1.16.65,1.58c.87.87,2.29.87,3.16,0s.87-2.29,0-3.16c-.44-.44-1.01-.65-1.58-.65Z"/><path class="cls-2" d="m34.53,28.78c-.98,0-1.89-.38-2.58-1.07-.69-.69-1.07-1.61-1.07-2.58s.38-1.89,1.07-2.58h0c1.38-1.38,3.79-1.38,5.16,0,.69.69,1.07,1.61,1.07,2.58s-.38,1.89-1.07,2.58c-.69.69-1.61,1.07-2.58,1.07Zm0-5.88c-.6,0-1.16.23-1.58.65h0c-.42.42-.65.98-.65,1.58s.23,1.16.65,1.58c.84.84,2.31.84,3.16,0,.42-.42.65-.98.65-1.58s-.23-1.16-.65-1.58c-.42-.42-.98-.65-1.58-.65Zm-2.08.15h0,0Z"/><path class="cls-2" d="m27.82,35.37c-.39,0-.71-.32-.71-.71V15.5c0-.39.32-.71.71-.71s.71.32.71.71v19.16c0,.39-.32.71-.71.71Z"/><path class="cls-1" d="m13.82,15.06c-.39,0-.71-.32-.71-.71,0-2.54,2.07-4.6,4.61-4.6.39,0,.71.32.71.71s-.32.71-.71.71c-1.76,0-3.19,1.43-3.19,3.19,0,.39-.32.71-.71.71Z"/><path class="cls-1" d="m7.45,14.53c-.39,0-.71-.32-.71-.71v-5.69c0-.39.32-.71.71-.71s.71.32.71.71v5.69c0,.39-.32.71-.71.71Z"/><path class="cls-2" d="m8.88,19.56c-4.98,0-8.88-2.28-8.88-5.2,0-1.96,1.82-3.73,4.75-4.61.38-.11.77.1.88.48.11.38-.1.77-.47.88-2.28.68-3.75,1.96-3.75,3.25,0,2.05,3.42,3.78,7.46,3.78s7.46-1.73,7.46-3.78c0-.26-.06-.52-.18-.78-.16-.36,0-.78.35-.94.35-.16.78,0,.94.35.2.45.31.91.31,1.37,0,2.92-3.9,5.2-8.88,5.2Z"/></svg>