<?xml version="1.0" encoding="UTF-8"?><svg id="Calque_1" xmlns="http://www.w3.org/2000/svg" viewBox="0 0 48 48"><defs><style>.cls-1{fill:#bc955b;}.cls-1,.cls-2{stroke-width:0px;}.cls-2{fill:#fff;}</style></defs><path class="cls-1" d="m41.69,29.13c-.24,0-.46-.12-.59-.31l-5.6-8.28c-.15-.22-.16-.5-.04-.73.12-.23.36-.38.63-.38h3.48c.39,0,.71.32.71.71s-.32.71-.71.71h-2.14l4.27,6.31,4.27-6.31h-2.14c-.39,0-.71-.32-.71-.71s.32-.71.71-.71h3.48c.26,0,.5.14.63.38.12.23.11.51-.04.73l-5.6,8.28c-.13.2-.35.31-.59.31Z"/><path class="cls-2" d="m18.19,34.42c-.61,0-1.16-.45-1.28-1.05l-.71-3.36c-.02-.06-.1-.17-.15-.2l-2.21-1.27c-.1-.06-.24-.08-.29-.07l-3.28,1.06c-.57.19-1.23-.06-1.54-.59l-1.94-3.37c-.31-.53-.19-1.23.27-1.63l2.55-2.29s.1-.17.1-.23v-2.55c0-.12-.05-.24-.09-.29l-2.56-2.31c-.45-.4-.57-1.1-.26-1.63l1.94-3.36c.31-.53.97-.78,1.55-.58l3.26,1.06c.06.02.2,0,.25-.03l2.2-1.27c.1-.05.19-.16.2-.22l.71-3.37c.12-.59.67-1.04,1.28-1.04h3.9c.61,0,1.16.45,1.28,1.05l.71,3.36c.02.06.1.17.15.2l2.21,1.27c.1.06.23.08.29.07l3.28-1.07c.57-.19,1.24.06,1.54.59l1.94,3.37c.3.53.19,1.23-.27,1.63l-2.55,2.29s-.1.17-.1.23v2.55c0,.12.05.24.09.28l2.56,2.31c.45.4.57,1.1.26,1.63l-1.94,3.36c-.31.53-.97.78-1.55.58l-3.26-1.06c-.06-.02-.2,0-.25.03l-2.2,1.27c-.1.06-.19.16-.2.22l-.71,3.37c-.12.59-.67,1.04-1.28,1.04h-3.9Zm3.79-1.33s0,0,0,0h0Zm-3.68,0h0s0,0,0,0Zm-4.7-6.02c.36,0,.73.1,1,.29l2.1,1.21c.39.18.79.68.88,1.17l.69,3.27h3.71s.69-3.28.69-3.28c.09-.48.49-.98.94-1.19l2.1-1.21c.35-.25.99-.34,1.45-.18l3.18,1.03,1.85-3.2-2.49-2.25c-.36-.32-.6-.91-.56-1.41v-2.42c-.04-.43.19-1.02.57-1.35l2.49-2.24-1.85-3.21-3.19,1.04c-.46.16-1.09.07-1.5-.22l-2.1-1.21c-.39-.18-.79-.68-.88-1.17l-.69-3.27h-3.71l-.69,3.28c-.09.48-.49.98-.94,1.19l-2.1,1.21c-.35.25-.99.34-1.46.18l-3.18-1.03-1.85,3.2,2.49,2.25c.36.32.6.91.56,1.41v2.42c.04.43-.19,1.02-.57,1.35l-2.48,2.24,1.85,3.21,3.19-1.04c.15-.05.32-.08.49-.08Zm-3.77,1.14s0,0,0,0h0Zm20.6,0h0s0,0,0,0Zm1.84-3.17s0,0,0,0h0Zm-24.26,0h0s0,0,0,0Zm24.26-9.77s0,0,0,0h0Zm-24.27,0h0s0,0,0,0Zm1.84-3.16s0,0,0,0h0Zm20.61,0h0s0,0,0,0Zm-12.15-4.9h0s0,0,0,0Z"/><path class="cls-2" d="m20.14,25.57c-2.99,0-5.43-2.44-5.43-5.43s2.44-5.43,5.43-5.43c.39,0,.71.32.71.71s-.32.71-.71.71c-2.21,0-4.01,1.8-4.01,4.01s1.8,4.01,4.01,4.01,4.01-1.8,4.01-4.01c0-.39.32-.71.71-.71s.71.32.71.71c0,2.99-2.44,5.43-5.43,5.43Z"/><path class="cls-1" d="m42.91,48H5.09c-2.81,0-5.09-2.28-5.09-5.09s2.28-5.09,5.09-5.09h37.82c2.81,0,5.09,2.28,5.09,5.09s-2.28,5.09-5.09,5.09ZM5.09,39.24c-2.02,0-3.67,1.65-3.67,3.67s1.65,3.67,3.67,3.67h37.82c2.02,0,3.67-1.65,3.67-3.67s-1.65-3.67-3.67-3.67H5.09Z"/><path class="cls-2" d="m32.29,43.62H5.09c-.39,0-.71-.32-.71-.71s.32-.71.71-.71h27.2c.39,0,.71.32.71.71s-.32.71-.71.71Z"/><path class="cls-1" d="m6.24,34.42c-.18,0-.37-.07-.51-.21C2.04,30.43,0,25.43,0,20.14,0,9.03,9.03,0,20.14,0s20.14,9.03,20.14,20.14c0,.39-.32.71-.71.71s-.71-.32-.71-.71C38.85,9.82,30.46,1.42,20.14,1.42S1.42,9.82,1.42,20.14c0,4.92,1.89,9.56,5.33,13.08.27.28.27.73-.01,1-.14.13-.32.2-.5.2Z"/></svg>