<?xml version="1.0" encoding="UTF-8"?><svg id="Calque_1" xmlns="http://www.w3.org/2000/svg" viewBox="0 0 48 48"><defs><style>.cls-1{fill:#bc955b;}.cls-1,.cls-2{stroke-width:0px;}.cls-2{fill:#fff;}</style></defs><path class="cls-2" d="m26.91,15.09c-.02,1.13-.71,2.2-1.78,2.58-1.13.4-2.37.07-3.13-.87-.7-.87-.78-2.15-.2-3.12s1.73-1.5,2.83-1.3c1.33.25,2.26,1.38,2.28,2.71.01.96,1.51.97,1.5,0-.02-1.79-1.13-3.36-2.8-3.99s-3.6-.09-4.7,1.26-1.33,3.35-.41,4.91,2.72,2.31,4.48,2c1.99-.36,3.4-2.19,3.43-4.17.01-.97-1.49-.97-1.5,0Z"/><path class="cls-2" d="m14.04,23.38c-1.2,0-2.47-.1-3.24,1.04-.99,1.45-.06,3.49,1.68,3.7.89.11,1.84.03,2.73.02,1.74,0,3.33-.64,4.59-1.85l-1.28-.53v3.6c0,.3.09.74-.13.97-.36.39-1.01.68-1.45.98l-1.84,1.24c-.51.35-1,.68-1.26,1.27-.3.67-.32,1.81-.09,2.51.33.98,1.22,1.54,2.22,1.57,1.27.04,2.55,0,3.83,0,.97,0,.97-1.5,0-1.5h-3.39c-.59,0-1.21-.03-1.28-.79-.05-.52-.08-1.15.34-1.51.9-.77,2.02-1.37,3-2.03.39-.26.86-.52,1.16-.89.38-.48.38-1.03.38-1.6v-3.84c0-.66-.82-.98-1.28-.53-.94.91-2.13,1.39-3.43,1.41-.71,0-1.43,0-2.15,0-.26,0-.54.03-.78-.09-.49-.23-.64-.85-.34-1.29.4-.57,1.39-.38,2-.38.97,0,.97-1.5,0-1.5h0Z"/><path class="cls-2" d="m27.1,33.15c-.98,0-1.97-.03-2.95.03-1.63.09-2.83,1.67-2.18,3.25.47,1.16,1.55,1.48,2.69,1.48h7.07c1.07,0,2.11-.15,2.68-1.2.62-1.13.36-2.99-.63-3.79-.78-.63-1.68-1.14-2.51-1.69-.37-.25-1.06-.54-1.34-.9-.22-.27-.13-.71-.13-1.05v-3.52l-1.28.53c1.93,1.83,4.22,1.88,6.71,1.85,1.05-.01,2-.36,2.48-1.37.58-1.22,0-2.7-1.25-3.2-.92-.37-1.95-.07-2.91-.25-1.65-.31-2.58-1.79-4.04-2.48-1.79-.85-3.72-.71-5.65-.71-1.08,0-2.18-.07-3.25.12-.87.15-1.73.49-2.48.96-.48.31-1.47.86-1.47,1.52,0,.97,1.5.97,1.5,0h0c-.07.18-.15.35-.22.53,1.82-1.74,3.98-1.64,6.3-1.64.72,0,1.43-.01,2.15,0,1.73.03,2.94.76,4.2,1.85,1.08.94,2.39,1.39,3.81,1.4.36,0,.75-.04,1.11,0,.87.08,1.33,1.25.41,1.68-.68.31-1.83.08-2.55.08-1.46,0-2.72-.39-3.8-1.41-.47-.44-1.28-.13-1.28.53v2.37c0,.76-.14,1.68.06,2.43.22.84,1.11,1.27,1.78,1.71.84.56,1.73,1.07,2.53,1.69.73.56.86,2.26-.27,2.45-.49.08-1.06,0-1.56,0h-6.18c-.23,0-.46.02-.69-.04-1.07-.28-.73-1.6.27-1.69s1.92-.02,2.87-.03.97-1.51,0-1.5h0Z"/><path class="cls-1" d="m24.82,7.71V2.91c0-.39-.34-.77-.75-.75s-.75.33-.75.75v4.8c0,.39.34.77.75.75s.75-.33.75-.75h0Z"/><path class="cls-1" d="m24.91,47.11v-6.56c0-.97-1.5-.97-1.5,0v6.56c0,.97,1.5.97,1.5,0h0Z"/><path class="cls-1" d="m24.82,1.12v-.23c0-.1-.02-.2-.06-.29-.03-.09-.08-.17-.16-.24-.07-.07-.15-.12-.24-.16-.09-.05-.19-.07-.29-.06l-.2.03c-.13.04-.24.1-.33.19l-.12.15c-.07.12-.1.24-.1.38v.23c0,.1.02.2.06.29.03.09.08.17.16.24.07.07.15.12.24.16.09.05.19.07.29.06l.2-.03c.13-.04.24-.1.33-.19l.12-.15c.07-.12.1-.24.1-.38h0Z"/><path class="cls-1" d="m.75,24.7h8.09c.97,0,.97-1.5,0-1.5H.75c-.97,0-.97,1.5,0,1.5h0Z"/><path class="cls-1" d="m41.16,24.79c.97,0,.97-1.5,0-1.5s-.97,1.5,0,1.5h0Z"/><path class="cls-1" d="m43.75,24.7h3.5c.39,0,.77-.34.75-.75s-.33-.75-.75-.75h-3.5c-.39,0-.77.34-.75.75s.33.75.75.75h0Z"/><path class="cls-1" d="m36,12.97c.99-.99,1.98-1.98,2.97-2.97l.42-.42c.28-.28.3-.79,0-1.06s-.76-.3-1.06,0c-.99.99-1.98,1.98-2.97,2.97l-.42.42c-.28.28-.3.79,0,1.06s.76.3,1.06,0h0Z"/><path class="cls-1" d="m6.98,41.76l4.06-4.06.58-.58c.28-.28.3-.79,0-1.06s-.76-.3-1.06,0l-4.06,4.06-.58.58c-.28.28-.3.79,0,1.06s.76.3,1.06,0h0Z"/><path class="cls-1" d="m40.66,8.3s.09-.09.14-.14l.02-.02c.07-.07.12-.15.16-.24.05-.09.07-.19.06-.29,0-.1-.02-.2-.06-.29-.03-.09-.08-.17-.16-.24l-.15-.12c-.12-.07-.24-.1-.38-.1l-.2.03c-.13.04-.24.1-.33.19-.05.05-.09.09-.14.14l-.02.02c-.07.07-.12.15-.16.24-.05.09-.07.19-.06.29,0,.1.02.2.06.29.03.09.08.17.16.24l.15.12c.12.07.24.1.38.1l.2-.03c.13-.04.24-.1.33-.19h0Z"/><path class="cls-1" d="m42.37,41.24c-1.67-1.67-3.34-3.34-5.01-5.01-.24-.24-.47-.47-.71-.71-.68-.68-1.74.38-1.06,1.06,1.67,1.67,3.34,3.34,5.01,5.01.24.24.47.47.71.71.68.68,1.74-.38,1.06-1.06h0Z"/><path class="cls-1" d="m11.83,12.64c.97,0,.97-1.5,0-1.5s-.97,1.5,0,1.5h0Z"/><path class="cls-1" d="m10.6,9.47c-.72-.72-1.44-1.44-2.17-2.17l-.31-.31c-.28-.28-.79-.3-1.06,0s-.3.76,0,1.06c.72.72,1.44,1.44,2.17,2.17l.31.31c.28.28.79.3,1.06,0s.3-.76,0-1.06h0Z"/></svg>